<svg xmlns="http://www.w3.org/2000/svg" viewBox="0 0 298.1 61.5"><path d="m57.8 13 2.9 11.5 4.7-14.9zM49.2 0c-4.3 1-10.4 2.5-15.1 3.3l3.8 4.5zM37.5 39.6l14.4 9-3.6-14.2zM39.1 9.3l5.5 6.6 6.2-14.7zM29 27.7l12.6-9-17.4 1.6zM42 55.5l9.9-5-14.5-9.1zM27.5 28.8l-4.8-7.5L11.8 40zM47.8 32.6l-3.1-12.2-7.3 17.2zM46.4 19.5l3.1 12.3 9.2-4.4zM42.8 20.1 30 29.2l5.4 8.3.2-.4v.1zM59.1 25.7l-3-12-9.3 4.1zM37.6 10.4 26 18.5l17-1.6zM28.5 30.3l-16 11.5 21.5-3zM36.4 9l-3.8-4.6-7.1 12.2zM57.4 11.2l7.8-3.5L54.6.3zM53.5 47.7l5.8-18.6-9.4 4.5zM46.6 15.9l9-4L52.9 1zM43.6 60.4h6.1l2.4-8-9.5 4.9zM20.2 60.4l-3.9-5.5-7.4 5.5zM16.7 52.3l15.6-11.6-21.7 3zM41.7 60.4l-.8-2.3-4.5 2.3zM0 60.4h5.8l9.4-7-6.1-8.7zM22.4 60.4h3.3L33.6 42 17.8 53.8zM28 60.4h4.4l8-4.1-4.8-14.4z"/><g fill="#4d6977"><path d="M86.3 50.3h6.4V14.1h-6.4V3.8h43.8v16.8h-11.9V15h-11.3v11.5h16.6v11.1h-16.6v11.9h12.2v-5.6H131v16.8H86.2V50.3zM138.1 50.7h5.2V29.6h-5.6v-9.9H157v31h5.2v9.9h-24.1zm5.4-46.9h13.4v10.7h-13.4zM167.8 50.7h5.2V29.6h-5.6v-9.9h5.6V18c0-13.4 11.8-15.2 18.1-15.2 2.8 0 4.9.3 4.9.3v10.8s-1-.2-3.3-.2c-2 0-5.9.1-5.9 4v2h8.4v9.9h-8.4v21.1h6v9.9h-25zM199.7 50.7h5.2V29.6h-5.6v-9.9h5.6V18c0-13.4 11.8-15.2 18.1-15.2 2.8 0 4.9.3 4.9.3v10.8s-1-.2-3.3-.2c-2 0-5.9.1-5.9 4v2h8.4v9.9h-8.4v21.1h6v9.9h-25zM252.5 18.7c12.2 0 19.1 8.4 19.1 19.8 0 1.4-.3 4.1-.3 4.1h-26c1 5.2 5.2 7.6 9.5 7.6 6 0 11.5-3.9 11.5-3.9l5 9.5s-6.6 5.7-17.7 5.7c-14.6 0-22.5-10.6-22.5-21.5.1-11.9 8.2-21.3 21.4-21.3m4.8 16.4c0-3.3-2.1-6-5.2-6-4 0-5.9 2.9-6.6 6zM278.9 13.7h-5.6V3.8h19.3v41c0 3.9.7 5.2 3.8 5.2.9 0 1.7-.1 1.7-.1v10.9s-1.9.2-4.1.2c-7.3 0-15.1-1.8-15.1-15.5z"/></g></svg>