<svg xmlns="http://www.w3.org/2000/svg" xml:space="preserve" style="fill-rule:evenodd;clip-rule:evenodd;stroke-linecap:round" viewBox="0 0 1067 1067"><circle cx="533.333" cy="533.333" r="431.925" style="fill:#fff;fill-opacity:.96;stroke:#fffffe;stroke-width:1.57px"/><path d="M818.579 610.523 610.245 818.439c-.833.834-2.083 1.25-2.916.834l-284.584-76.25c-1.25-.417-2.083-1.25-2.083-2.084l-76.667-284.166c-.416-1.25 0-2.084.834-2.917l208.333-207.917c.833-.833 2.083-1.25 2.917-.833l284.583 76.25c1.25.417 2.083 1.25 2.083 2.083l76.25 284.167c.834 1.25.417 2.083-.416 2.917m-279.167-226.25-279.583 74.583c-.417 0-.834.833-.417 1.25l204.583 204.167c.417.416 1.25.416 1.25-.417l75-279.167c.417 0-.416-.833-.833-.416" style="fill-rule:nonzero"/></svg>