<svg xmlns="http://www.w3.org/2000/svg" width="636.426" height="414.568" viewBox="0 0 168.388 109.688"><path d="M55.574 113.318c17.685-24.024 39.323-30.224 51.897-26.326 30.554 9.882 46.181 17.338 46.544 7.527 6.99.259 14.056 29.166 29 33.459 9.355 3.394 1.335 5.448-10.025 15.15-25.433 20.733-150.819 18.497-117.416-29.81m-36.837-3.575c.04-7.23 15.62-7.706 27.516-8.843 7.225-11.79-19.476-26.346-19.476-26.346 1.469-6.32 22.978-2.175 40.647 6.774 12.798-7.052-5.429-31.545-5.429-31.545 5.054-6.61 29.352 15.232 33.627 22.916 10.412.415 10.553-17.876 5.775-25.92 5.145-6.168 22.855 20.275 26.738 31.097 7.576.201 7.545-4.482 4.704-17.537 4.157-4.881 15.269 21.421 15.513 27.834.076 8.152-15.574-1.08-21.476-2.3-9.961-4.17-20.736-8.012-31.676-5.767-16.437 2.095-28.753 9.428-41.29 23.861-18.104 25.458 5.05 12.091-35.173 5.776" style="fill:#fff9e5;stroke-width:1;fill-opacity:1;fill-rule:nonzero;stroke:none;stroke-opacity:1" transform="translate(-18.737 -45.858)"/></svg>