<svg xmlns="http://www.w3.org/2000/svg" width="27" height="26"><path fill="#3178c6" fill-rule="evenodd" d="M.986 0H25.31a.98.98 0 0 1 .986.975v24.05a.98.98 0 0 1-.986.975H.986A.98.98 0 0 1 0 25.025V.975A.98.98 0 0 1 .986 0m13.632 13.832V11.7H5.259v2.132H8.6v9.495h2.66v-9.495zm1.06 9.244q.643.325 1.522.487.878.162 1.852.162.948 0 1.802-.178.854-.18 1.497-.588c.643-.408.768-.63 1.019-1.07s.375-.986.375-1.635q0-.705-.215-1.236a2.9 2.9 0 0 0-.618-.945q-.405-.413-.97-.742c-.565-.329-.8-.425-1.274-.62a16 16 0 0 1-.932-.41 5 5 0 0 1-.701-.405 1.8 1.8 0 0 1-.445-.438.9.9 0 0 1-.157-.523q0-.267.14-.482t.396-.37c.256-.155.38-.182.627-.238q.37-.085.825-.085.33 0 .697.048.366.05.738.15.37.102.722.256.35.153.647.356v-2.424a6.5 6.5 0 0 0-1.316-.337 11 11 0 0 0-1.637-.109 7.7 7.7 0 0 0-1.781.199q-.842.198-1.481.62c-.639.422-.763.64-1.01 1.074q-.372.653-.372 1.561 0 1.16.68 1.979.682.819 2.067 1.386.544.22 1.015.43t.812.438.54.494c.198.267.198.382.198.609a.9.9 0 0 1-.123.466q-.124.214-.376.373c-.252.159-.376.188-.627.247q-.375.09-.878.09a5.1 5.1 0 0 1-1.7-.297 5.1 5.1 0 0 1-1.558-.887z" clip-rule="evenodd"/></svg>