<svg xmlns="http://www.w3.org/2000/svg" xml:space="preserve" width="64.333" height="12.415"><defs><clipPath id="a" clipPathUnits="userSpaceOnUse"><path d="M0 93.507h93.507V0H0Z"/></clipPath></defs><g clip-path="url(#a)" style="fill:#fff" transform="matrix(1.33333 0 0 -1.33333 -31.44 68.496)"><g style="fill:#fff"><path d="M0 0v-7.026h-2.017V0h-2.826v1.747h7.656V0Zm-8.276-5.615a2.7 2.7 0 0 0-.718-.863 3.4 3.4 0 0 0-1.067-.569 4.2 4.2 0 0 0-1.321-.204q-.653 0-1.193.124a4.7 4.7 0 0 0-.973.327 4.4 4.4 0 0 0-1.377.997l1.278 1.384q.172-.187.4-.381a3 3 0 0 1 .509-.352 2.8 2.8 0 0 1 .614-.255 2.5 2.5 0 0 1 .716-.097q.226 0 .447.064.223.065.41.191t.296.303.11.404q0 .49-.474.762t-1.504.536q-.5.117-.922.342a2.9 2.9 0 0 0-.729.543 2.3 2.3 0 0 0-.474.726 2.4 2.4 0 0 0-.169.914q0 .552.195 1.038.195.487.595.859.399.37.993.589.595.218 1.406.218.67 0 1.187-.137.517-.138.877-.329t.591-.391q.232-.2.348-.316L-9.368-.454a14 14 0 0 1-.338.255 3 3 0 0 1-.946.459 2.2 2.2 0 0 1-.601.08q-.212 0-.416-.067a1.6 1.6 0 0 1-.367-.178.9.9 0 0 1-.264-.265.6.6 0 0 1-.1-.323q0-.451.477-.73t1.307-.465q.49-.116.955-.319.466-.203.832-.536t.591-.814.225-1.172q0-.588-.263-1.086m-10.307 1.854a4 4 0 0 0-.257-1.449 3.1 3.1 0 0 0-.74-1.124 3.4 3.4 0 0 0-1.167-.729 4.2 4.2 0 0 0-1.526-.263q-.84 0-1.522.257a3.2 3.2 0 0 0-1.159.729 3.2 3.2 0 0 0-.734 1.13 4 4 0 0 0-.256 1.449v5.446h1.985v-5.271q0-.443.086-.795.087-.353.284-.606.196-.254.521-.394t.795-.14q.463 0 .785.14.321.14.521.394.2.253.283.606.084.353.084.795v5.271h2.017zM-30.68-7.026a1.077 1.077 0 1 0-.002 2.154 1.077 1.077 0 0 0 .002-2.154m-1.702 3.551-1.067 3.314-1.092-3.314-.054-.181h-1.899l2.018 5.403h2.196l1.977-5.4-2.023-.005zm-3.708-3.551a1.078 1.078 0 1 0 0 2.155 1.078 1.078 0 0 0 0-2.155M-39.541 0h-3.912v-1.991h2.974v-1.696h-2.974v-3.339h-1.984v8.773h5.896z" style="fill:#fff;fill-opacity:1;fill-rule:nonzero;stroke:none" transform="translate(69.017 49.387)"/></g></g></svg>