<svg xmlns="http://www.w3.org/2000/svg" viewBox="38 117 223 64">
  <defs>
    <style>
      .cls-2,.cls-3{
        fill:#7fff00;
      }
      .cls-3{
        fill:#609
      }
    </style>
  </defs>
  <g>
    <path id="background" d="M0 0h300v300H0z" class="cls-3"/>
    <path d="M36.25 108.87h202.52v33.34H36.25z" class="cls-3"/>
  </g>
  <path id="_anatol_mn" d="m79.23 143.68-3.09 12.39c-1.35 5.41-6.16 9-11.24 9h-9l-2.98 11.94H41.51l8.31-33.33h11.41l-2.39 9.59h3.2c2.35 0 3.83-1.24 4.21-2.22.15-.33.42-1.17.54-1.63l1.43-5.74h11.02Zm.81-3.26-.16.65H50.47l.16-.65h29.41Zm.41-1.63-.16.65H50.88l.16-.65h29.41Zm.39-1.56-.16.65H51.27l.16-.65h29.41Zm.34-1.63-.1.65H51.67l.16-.65h29.35Zm-.07-1.57c.05.07.05.59.03.65H52.05l.16-.65H81.1Zm-.41-1.5c.05.07.18.59.23.65h-28.5l.16-.65H80.7ZM53 130.9h26.61c.16.13.46.52.55.65H52.83l.16-.65Zm.38-1.5h21.78c1.04 0 1.94.07 3.23.65H53.22l.16-.65Zm31.05 14.35h11.41l-5.33 21.39H79.1l5.33-21.39Zm12.24-3.33-.16.65H85.1l.16-.65h11.41Zm.41-1.63-.16.65H85.51l.16-.65h11.41Zm.39-1.56-.16.65H85.9l.16-.65h11.41Zm.41-1.63-.16.65H86.31l.16-.65h11.41Zm.39-1.57-.16.65H86.7l.16-.65h11.41Zm.39-1.57-.16.65H87.09l.16-.65h11.41Zm.37-1.5-.16.65H87.46l.16-.65h11.41Zm.39-1.57-.16.65H87.85l.16-.65h11.41Zm-11.02-1.56h11.41l-.16.65H88.24l.16-.65Zm.41-1.63h11.41l-.16.65H88.65l.16-.65Zm.37-1.5h11.41l-.16.65H89.02l.16-.65Zm.39-1.57h11.41l-.16.65H89.41l.16-.65Zm.37-1.5h11.41l-.16.65H89.78l.16-.65Zm22.99 22.12-1.3 5.22c-.71 2.87.35 4.37 3.21 4.37h3.33l2.39-9.59h11.87l-5.33 21.39h-22.3c-5.09 0-8.16-3.65-6.81-9.07l3.07-12.33h11.87Zm-11.04-3.33h31.37l-.16.65h-31.37l.16-.65Zm.41-1.63h31.37l-.16.65h-31.37l.16-.65Zm.39-1.56h31.37l-.16.65h-31.37l.16-.65Zm.24-.98c.02-.07.28-.59.29-.65h31.24l-.16.65h-31.37Zm.72-1.57c.02-.07.28-.59.36-.65h30.85l-.16.65h-31.04Zm.96-1.5c.08-.07.47-.59.55-.65h30.06l-.16.65H104.6Zm31.02-2.28-.16.65h-29.28c.16-.13.65-.52.88-.65h28.56Zm.38-1.5-.16.65h-27.13c1.37-.52 2.38-.65 3.62-.65h23.67Zm1.59 14.28h11.41l-5.35 21.46h-11.41l5.35-21.46Zm30.09-3.26-.16.65h-29.28l.16-.65h29.28Zm.41-1.63-.16.65h-29.28l.16-.65h29.28Zm.39-1.56-.16.65h-29.28l.16-.65h29.28Zm.34-1.63-.1.65h-29.28l.16-.65h29.22Zm-.07-1.57c.05.07.05.59.03.65h-28.96l.16-.65h28.76Zm-.41-1.5c.05.07.18.59.23.65h-28.37l.16-.65h27.98Zm-27.57-1.63h26.48c.16.13.46.52.55.65h-27.2l.16-.65Zm.38-1.5h21.65c1.04 0 1.94.07 3.23.65H141l.16-.65Zm14.31 14.28h11.41l-5.35 21.46h-11.41l5.35-21.46Zm46.93-.13-6.1 24.46c-1.27 5.09-5.88 8.94-11.36 8.94h-21.13l2.94-11.8h15.26c2.15 0 3.93-1.37 4.33-3l.58-2.35c.03-.13.16-.65-.1-.65-.13 0-.29.13-.33.26-.64 1.76-1.86 2.48-4.4 2.48h-5.48c-5.09 0-8.15-3.65-6.8-9.07l2.31-9.26h11.41l-.93 3.72c-.52 2.09.44 3.46 2.27 3.46h1.3c1.63 0 3.37-1.5 3.76-3.07l1.02-4.11h11.41Zm-29.48-3.13h30.26l-.16.65h-30.26l.16-.65Zm.41-1.63h30.26l-.16.65h-30.26l.16-.65Zm.39-1.56h30.26l-.16.65h-30.26l.16-.65Zm.24-.98c.02-.07.28-.59.29-.65h30.13l-.16.65h-30.26Zm.72-1.57c.02-.07.28-.59.36-.65h29.74l-.16.65h-29.93Zm.96-1.5c.08-.07.47-.59.55-.65h28.96l-.16.65h-29.35Zm29.92-2.28-.16.65h-28.17c.16-.13.65-.52.88-.65h27.46Zm.38-1.5-.16.65h-26.02c1.58-.59 2.58-.65 3.62-.65h22.57Zm4.75 14.41h15.72l4.57 6.78c1.24 1.83 1.49 3.72.9 6.07-1.2 4.83-5.57 8.48-11.77 8.48h-17.93l2.94-11.8h12.2l-6.62-9.52Zm-1.49-5.02h25.5l-.16.65h-25.43l.1-.65Zm.08 2.28c-.05-.06-.07-.52-.1-.65h25.11l-.16.65h-24.85Zm.18-3.85h25.63l-.16.65H209.3l.16-.65Zm.54-1.63h25.5l-.16.65h-25.56l.23-.65Zm.42-.91c.02-.07.41-.59.42-.65h25.04l-.16.65h-25.3Zm.96-1.5c.08-.07.47-.59.55-.65h24.33l-.16.65h-24.72Zm25.29-2.28-.16.65h-23.54c.16-.13.65-.52.88-.65h22.82Zm.38-1.5-.16.65h-21.33c1.58-.59 2.51-.65 3.55-.65h17.94Zm.87 23.93h11.41l-2.94 11.8h-11.41l2.94-11.8Zm7.9-31.7h11.41l-7.06 28.3h-11.41l7.06-28.3Z" class="cls-2" data-name="original font: anatol mn"/>
  <path id="new_font" d="m50.47 141.07 2.91-11.67h22.17s5.17-.24 5.59 5.28c0 0 .1 2.68-1.27 6.39H50.46Zm34.63 0 4.85-19.43h11.41l-4.85 19.43H85.1zm16.63 0s1.12-11.04 9.89-11.68h24.39l-2.91 11.68h-31.37Zm36.52 0 2.91-11.67h22.65s7.92.12 3.72 11.67h-29.28Zm34.51 0s.65-11.17 10.11-11.68h23.06l-2.91 11.68h-30.26Zm36.52 0s-1.29-10.6 9.43-11.68h18.33l-2.91 11.68h-24.85Z" class="cls-2" data-name="new font"/>
  <path id="lines" stroke="#609" stroke-miterlimit="10" stroke-width="1.5" d="M83.37 138.79h152.92m-150.78-3h152.92m-152.92-3h152.92m-152.92-3h152.92m-155.06-3h152.92m-150.78-3h152.92"/>
</svg>