<svg xmlns="http://www.w3.org/2000/svg" xml:space="preserve" style="fill-rule:evenodd;clip-rule:evenodd;stroke-linejoin:round;stroke-miterlimit:2" viewBox="0 0 38 31"><path d="M18.175 30.566c-1.06 0-2.211-.667-3.669-1.513-1.893-1.097-4.249-2.463-7.287-2.82-3.729-.437-5.801-1.278-6.517-2.644-.438-.829-.347-1.795.27-2.954l.017-.033 6.459-8.262c.842-1.761 2.169-3.272 3.947-4.495l-.036-.422c-.352-4.107-.323-6.694.906-6.904q.484-.084.975-.084c2.634 0 4.181 1.867 4.743 2.712h7.199c.831-.684 3.052-2.425 4.092-2.425a.86.86 0 0 1 .415.1c2.077 1.159 1.125 4.687.627 6.133l3.476 2.911-.532 1.332 3.762 6.613-1.248 1.307c.886 2.625-.686 3.927-1.299 4.32-.292 2.587-1.869 3.139-3.161 3.139-2.081 0-4.514-1.431-5.077-1.78l-3.544.091c-.32 1.281-1.145 2.742-2.632 4.671-.522.678-1.14 1.007-1.888 1.007" style="fill:#231f20;fill-rule:nonzero"/><path d="M13.244.868c2.688 0 4.172 2.161 4.506 2.712h7.589c.199-.165 2.936-2.424 3.937-2.424q.107-.003.203.045c1.986 1.107.61 5.134.329 5.893l3.465 2.903-.491 1.235 3.705 6.515-1.21 1.267c1.185 3.062-1.211 4.163-1.211 4.163-.18 2.27-1.363 2.968-2.751 2.968-2.217 0-4.956-1.784-4.956-1.784l-3.854.099s-.059 0-.161-.004c-.214 1.187-.94 2.654-2.627 4.839-.46.598-.968.84-1.544.84-2.248 0-5.516-3.698-10.906-4.331-6.34-.745-7.147-2.646-5.911-4.964l6.468-8.27c.984-2.082 2.555-3.528 4.026-4.505-.067-1.143-.756-6.904.494-7.117a5 5 0 0 1 .902-.078m0-.868a6 6 0 0 0-1.048.091c-1.571.269-1.657 2.798-1.265 7.368l.015.174c-1.724 1.23-3.022 2.734-3.868 4.476L.67 20.305l-.047.059-.035.068c-.679 1.276-.771 2.406-.271 3.358.788 1.504 2.965 2.417 6.851 2.873 2.948.346 5.261 1.688 7.12 2.766 1.513.875 2.709 1.571 3.887 1.571.879 0 1.629-.396 2.231-1.177 1.404-1.822 2.236-3.247 2.622-4.51l3.094-.081c.75.454 3.12 1.779 5.193 1.779 1.178 0 3.151-.444 3.565-3.307.968-.667 2.06-2.152 1.387-4.472l.848-.888.446-.466-.319-.56-3.499-6.153.341-.847.234-.583-.482-.403-3.007-2.52c.538-1.681 1.307-5.126-.921-6.369a1.3 1.3 0 0 0-.626-.155c-1.088 0-3.036 1.436-4.248 2.425h-6.819C17.519 1.745 15.896.001 13.244 0" style="fill:#fff;fill-rule:nonzero"/><path d="M16.021 6.214a.9.9 0 0 0-.373.077s-5.521 1.398-7.826 6.278l-6.468 8.269c-1.233 2.318-.426 4.22 5.915 4.965 6.768.795 10.19 6.423 12.45 3.491 4.106-5.327 2.521-6.384 1.721-9.524-.765-2.992-2.886-13.56-5.419-13.56" style="fill:url(#a);fill-rule:nonzero"/><path d="M14.551 3.577h11.068l7.657 6.416-.494 1.239 3.705 6.516-1.211 1.267c1.186 3.062-1.209 4.162-1.209 4.162-.47 5.899-7.707 1.185-7.707 1.185l-3.855.099s-10.523-.099-8.349-7.503c2.174-7.405-6.373-6.073.395-13.381" style="fill:#0a1a28;fill-rule:nonzero"/><path d="M11.855 8.203c0-.69-.826-7.033.487-7.257 3.691-.631 5.484 2.764 5.484 2.764zm13.466-4.606s3.383-2.829 4.16-2.396c2.195 1.224.281 6.016.281 6.016z" style="fill:#0a1a28;fill-rule:nonzero"/><path d="M23.098 11.329s2.595-.326 3.959.282c0 0-.006 4.358-3.959-.282" style="fill:#ccc26a;fill-rule:nonzero"/><path d="M36.458 17.805c-.267.246-.491.489-.693.703-.731.774-1.077 1.388-1.216 1.661-.068.134-.107.066-.141 0-.958-1.835-2.45-2.41-2.821-2.56-.055-.022-.033-.054 0-.065 1.624-.521 4.358.021 4.871.161.056.015.025.077 0 .1m-2.16 3.079c-.299.316-1.853 1.844-5.023 3.065-.015.006-.025.012.014 0 .499-.143 3.94-1.112 4.751-.769.012.005.024.007.029-.021q.032-.178.266-2.275 0-.039-.037 0" style="fill:#324a6d;fill-rule:nonzero"/><path d="M25.651 12.831c-.475 0-.863-.474-.863-1.058 0-.191.018-.392.12-.531q.571.015.856.046.236.026.699.129.049.168.05.356c0 .583-.387 1.058-.862 1.058" style="fill:#25234d;fill-rule:nonzero"/><path d="M25.779 11.3c-.005.249-.153.381-.348.381s-.354-.201-.354-.449z" style="fill:#fff;fill-rule:nonzero"/><defs><radialGradient id="a" cx="0" cy="0" r="1" gradientTransform="translate(43.973 19.848)scale(17.1663)" gradientUnits="userSpaceOnUse"><stop offset="0" style="stop-color:#324a6d;stop-opacity:1"/><stop offset="1" style="stop-color:#0d1b28;stop-opacity:1"/></radialGradient></defs></svg>