<svg xmlns="http://www.w3.org/2000/svg" width="230" height="230"><path fill="#fbc707" d="M115 28.753 49.5 21.5 0 .003h57.498L115 28.757M115 28.753 182 23 230 .003h-57.502L115 28.757"/><path fill="#f68712" d="m115 201.25 62.5 2.25L230 230h-57.502L115 201.245"/><path fill="#f25c19" d="M115 201.25H52L0 230h57.498L115 201.245"/><path fill="#fff200" d="M28.749 115.003V175.5L0 230v-57.498l28.749-57.5"/><path fill="#fff200" d="M28.749 115.003 23.999 55 0 .003v57.498l28.749 57.5"/><path fill="#f1471d" d="M201.246 115.003 207.5 52 230 .003v57.498l-28.754 57.5"/><path fill="#f1471d" d="M201.246 115.003 206.5 182.5 230 230v-57.498l-28.754-57.5"/><path fill="#fab20b" d="m0 .003 115 28.75L96.5 102 28.75 115.003 0 .009"/><path fill="#f47216" d="m230 .003-28.754 115L124 100.996l-9-72.246L230 .01"/><path fill="#f25c19" d="m230 230-115-28.75 13-76.245 73.246-9.997L230 229.993"/><path fill="#f89c0e" d="m0 230 28.749-114.997L98 130.5l17 70.75L0 229.993"/><path fill="#f68712" d="m115 28.753-86.251 86.25L115 201.25l86.246-86.247L115 28.757"/></svg>