<svg xmlns="http://www.w3.org/2000/svg" viewBox="0 0 510 552"><defs><linearGradient id="b" x1="50%" x2="50%" y1="0%" y2="100%"><stop offset="0%" stop-color="#34AADC"/><stop offset="100%" stop-color="#007AFF"/></linearGradient><filter id="a" width="200%" height="200%" x="-50%" y="-50%"><feOffset dy="5" in="SourceAlpha" result="offset"/><feGaussianBlur in="offset" result="blur" stdDeviation="2.5"/><feColorMatrix in="blur" result="matrix" values="0 0 0 0 0 0 0 0 0 0 0 0 0 0 0 0 0 0 0.07 0"/><feMerge><feMergeNode in="matrix"/><feMergeNode in="SourceGraphic"/></feMerge></filter></defs><path fill="#FF9D00" d="M477.861 306.928c34.185 26.66 34.185 70.518 0 97.393L317.015 530.737c-34.185 26.66-89.845 26.66-124.03 0L32.139 404.536c-34.185-26.66-34.185-70.519 0-97.393l160.846-126.417c34.185-26.659 89.845-26.659 124.03 0z"/><path fill="rgba(0, 0, 0, 0.1)" d="M193.37 451.832 31.812 324.86C15.524 312.098 6.5 295.01 6.5 276.84s9.024-35.258 25.312-48.02L193.37 101.632c16.288-12.762 38.299-19.9 61.63-19.9s45.122 7.138 61.63 19.9l161.558 126.972c16.288 12.762 25.312 29.85 25.312 48.02s-9.024 35.258-25.312 48.02L316.63 451.615c-16.508 12.979-38.299 20.117-61.63 20.117s-45.122-7.138-61.63-19.9" filter="url(#a)"/><path fill="#FC0" d="M193.37 451.832 31.812 324.86C15.524 312.098 6.5 295.01 6.5 276.84s9.024-35.258 25.312-48.02L193.37 101.632c16.288-12.762 38.299-19.9 61.63-19.9s45.122 7.138 61.63 19.9l161.558 126.972c16.288 12.762 25.312 29.85 25.312 48.02s-9.024 35.258-25.312 48.02L316.63 451.615c-16.508 12.979-38.299 20.117-61.63 20.117s-45.122-7.138-61.63-19.9"/><path fill="rgba(0, 0, 0, 0.1)" d="M193.37 371.832 31.812 244.86C15.524 232.098 6.5 215.01 6.5 196.84s9.024-35.258 25.312-48.02L193.37 21.632C209.658 8.87 231.67 1.732 255 1.732s45.122 7.138 61.63 19.9l161.558 126.972c16.288 12.762 25.312 29.85 25.312 48.02s-9.024 35.258-25.312 48.02L316.63 371.615c-16.508 12.979-38.299 20.117-61.63 20.117s-45.122-7.138-61.63-19.9" filter="url(#a)"/><path fill="url(#b)" d="M193.37 371.832 31.812 244.86C15.524 232.098 6.5 215.01 6.5 196.84s9.024-35.258 25.312-48.02L193.37 21.632C209.658 8.87 231.67 1.732 255 1.732s45.122 7.138 61.63 19.9l161.558 126.972c16.288 12.762 25.312 29.85 25.312 48.02s-9.024 35.258-25.312 48.02L316.63 371.615c-16.508 12.979-38.299 20.117-61.63 20.117s-45.122-7.138-61.63-19.9"/><path fill="#fff" d="M255.558 318.523c82.555 0 149.48-54.705 149.48-122.187S338.113 74.148 255.558 74.148c-82.556 0-149.48 54.706-149.48 122.188s66.924 122.187 149.48 122.187m0 12.579c-91.054 0-164.868-60.337-164.868-134.766 0-74.43 73.814-134.766 164.868-134.766s164.867 60.337 164.867 134.766-73.813 134.766-164.867 134.766"/><path fill="#8CC8F6" d="M266.576 248.2c8.263-1.083 16.318-3.387 23.691-6.911l47.054 19.341-24.647-36.924c12.965-16.701 12.965-37.855 0-54.557l24.647-36.924-44.346 18.229-1.275 19.499c18.13 15.204 17.666 39.216-1.172 53.894-4.807 3.845-10.326 6.543-16.123 8.46zM244.58 144.623c-13.649 1.775-23.879 6.942-23.879 6.942l-47.01-19.34 24.647 36.923c-12.965 16.702-12.965 37.856 0 54.557L173.69 260.63l45.559-18.727.97-18.262c-19.057-15.16-18.905-39.413.31-54.639 4.471-4.002 14.577-8.24 16.093-8.465z"/><path fill="#fff" fill-rule="evenodd" d="m232.944 192.305-6.261 110.997 50.706-102.943L284.65 89.57zm-.655 89.664 40.615-82.406-35.591-6.494z"/></svg>