<svg xmlns="http://www.w3.org/2000/svg" xml:space="preserve" style="fill-rule:evenodd;clip-rule:evenodd" viewBox="0 0 100 100"><path d="M256.411-189.476h108.018v108.018H256.411z" style="fill:#fff;stroke:#909090;stroke-width:.98px" transform="matrix(.92577 0 0 .92577 -237.378 175.412)"/><path d="M311.086-137.826h4.7v4.483h-4.7zM311.086-122.003h4.7v4.483h-4.7zM311.086-127.277h4.7v4.483h-4.7z" style="fill:#35c0ed;fill-opacity:.82" transform="matrix(.92577 0 0 .92577 -237.378 175.412)"/><path d="M262.409-110.306h96.207v1.937h-96.207zM261.693-123.326h96.49v1.943h-96.49z" style="fill:#909090;fill-rule:nonzero" transform="matrix(.92577 0 0 .92577 -237.378 175.412)"/><path d="M101.95 130.716c0 9.747-8.02 17.767-17.767 17.767s-17.767-8.02-17.767-17.767 8.02-17.767 17.767-17.767 17.767 8.02 17.767 17.767" style="fill:#909090;fill-rule:nonzero" transform="matrix(.15779 0 0 .15779 61.57 23.103)"/><path d="M101.95 130.716c0 9.747-8.02 17.767-17.767 17.767s-17.767-8.02-17.767-17.767 8.02-17.767 17.767-17.767 17.767 8.02 17.767 17.767" style="fill:#909090;fill-rule:nonzero" transform="matrix(.15779 0 0 .15779 61.57 35.647)"/><path d="M555.5 45.048h16v313.041h-16z" style="fill:#909090;fill-rule:nonzero" transform="matrix(.15779 0 0 .15779 -6.267 18.058)"/><path d="M594.5 42.934h49v319h-49z" style="fill:#909090" transform="matrix(.15779 0 0 .15779 -6.267 18.058)"/><path d="M101.95 130.716c0 9.747-8.02 17.767-17.767 17.767s-17.767-8.02-17.767-17.767 8.02-17.767 17.767-17.767 17.767 8.02 17.767 17.767" style="fill:#909090;fill-rule:nonzero" transform="matrix(-.15779 0 0 -.15779 38.43 76.899)"/><path d="M101.95 130.716c0 9.747-8.02 17.767-17.767 17.767s-17.767-8.02-17.767-17.767 8.02-17.767 17.767-17.767 17.767 8.02 17.767 17.767" style="fill:#909090;fill-rule:nonzero" transform="matrix(-.15779 0 0 -.15779 38.43 64.354)"/><path d="M555.5 45.048h16v313.041h-16z" style="fill:#909090;fill-rule:nonzero" transform="rotate(179.736 53.134 40.972)scale(.15779)"/><path d="M594.5 42.934h49v319h-49z" style="fill:#909090" transform="rotate(179.736 53.134 40.972)scale(.15779)"/><path d="M262.024-162.574h95.999v1.933h-95.999zM261.87-136.36h97.183v1.956H261.87zm.177-13.12h97.183v1.956h-97.183z" style="fill:#909090;fill-rule:nonzero" transform="matrix(.92577 0 0 .92577 -237.378 175.412)"/><path d="M311.005-164.276h4.862v4.637h-4.862zM311.005-169.551h4.862v4.637h-4.862zM311.005-174.825h4.862v4.637h-4.862zM311.005-180.1h4.862v4.637h-4.862zM294.413-106.257h4.862v4.637h-4.862zM299.943-106.257h4.862v4.637h-4.862zM294.413-100.982h4.862v4.637h-4.862zM299.943-100.982h4.862v4.637h-4.862zM294.413-95.707h4.862v4.637h-4.862zM299.943-95.707h4.862v4.637h-4.862zM311.005-111.531h4.862v4.637h-4.862zM311.005-116.806h4.862v4.637h-4.862zM283.351-106.257h4.862v4.637h-4.862zM311.086-185.297h4.7v4.483h-4.7zM283.432-100.905h4.7v4.483h-4.7zM316.617-174.748h4.7v4.483h-4.7zM283.432-95.63h4.7v4.483h-4.7zM316.617-169.474h4.7v4.483h-4.7zM311.086-158.924h4.7v4.483h-4.7zM322.147-169.474h4.7v4.483h-4.7zM305.555-111.454h4.7v4.483h-4.7zM311.086-132.552h4.7v4.483h-4.7zM305.555-106.179h4.7v4.483h-4.7zM305.555-100.905h4.7v4.483h-4.7zM300.024-111.454h4.7v4.483h-4.7zM288.963-111.454h4.7v4.483h-4.7zM294.494-111.454h4.7v4.483h-4.7zM288.963-106.179h4.7v4.483h-4.7zM311.086-153.65h4.7v4.483h-4.7zM288.963-100.905h4.7v4.483h-4.7zM311.086-148.375h4.7v4.483h-4.7zM288.963-95.63h4.7v4.483h-4.7zM311.086-143.101h4.7v4.483h-4.7zM277.901-95.63h4.7v4.483h-4.7zM277.901-100.905h4.7v4.483h-4.7zM283.432-90.356h4.7v4.483h-4.7zM294.494-90.356h4.7v4.483h-4.7zM288.963-90.356h4.7v4.483h-4.7z" style="fill:#35c0ed;fill-opacity:.82" transform="matrix(.92577 0 0 .92577 -237.378 175.412)"/><path d="M311.086-100.905h4.7l-4.7 4.483zm-5.531 5.275h4.7l-4.7 4.482zm-5.531 5.274h4.7l-4.7 4.483zm-17.404.02v4.7l-4.482-4.7zm-.018-11.361h-4.7l4.7-4.482zm5.53-5.274h-4.7l4.7-4.483z" style="fill:#35c0ed;fill-opacity:.82;fill-rule:nonzero" transform="matrix(.92577 0 0 .92577 -237.378 175.412)"/><path d="M311.086-106.179h4.7v4.483h-4.7z" style="fill:#35c0ed;fill-opacity:.82" transform="matrix(.92577 0 0 .92577 -237.378 175.412)"/><path d="M316.597-175.56v-4.7l4.483 4.7zm5.531 5.275v-4.7l4.483 4.7zm5.531 5.275v-4.7l4.483 4.7zm5.275 5.53v-4.7l4.482 4.7zm-.792-4.7v4.7l-4.483-4.7zm6.096 30.385h4.7l-4.7 4.483zm-5.449 5.197h4.7l-4.7 4.483zm4.7-.714h-4.7l4.7-4.483z" style="fill:#35c0ed;fill-opacity:.82;fill-rule:nonzero" transform="matrix(.92577 0 0 .92577 -237.378 175.412)"/><path d="M338.364-143.569h4.309v4.109h-4.309zM338.364-148.393h4.309v4.109h-4.309z" style="fill:#35c0ed;fill-opacity:.82" transform="matrix(.92577 0 0 .92577 -237.378 175.412)"/><path d="M337.416-158.649v4.7l-4.482-4.7zm.792 4.7v-4.7l4.483 4.7z" style="fill:#35c0ed;fill-opacity:.82;fill-rule:nonzero" transform="matrix(.92577 0 0 .92577 -237.378 175.412)"/><path d="M338.364-138.745h4.309v4.109h-4.309zM338.364-153.217h4.309v4.109h-4.309z" style="fill:#35c0ed;fill-opacity:.82" transform="matrix(.92577 0 0 .92577 -237.378 175.412)"/></svg>