<svg xmlns="http://www.w3.org/2000/svg" xml:space="preserve" style="fill-rule:evenodd;clip-rule:evenodd" viewBox="0 0 100 100"><path d="M256.411-189.476h108.018v108.018H256.411z" style="fill:#fff;stroke:#909090;stroke-width:.98px" transform="translate(-237.378 175.412)scale(.92577)"/><path d="M311.086-137.826h4.7v4.483h-4.7zm0 15.823h4.7v4.483h-4.7zm0-5.274h4.7v4.483h-4.7z" style="fill:#35c0ed;fill-opacity:.82" transform="translate(-237.378 175.412)scale(.92577)"/><path d="M262.409-110.306h96.207v1.937h-96.207zm-.716-13.02h96.49v1.943h-96.49z" style="fill:#909090;fill-rule:nonzero" transform="translate(-237.378 175.412)scale(.92577)"/><path d="M101.95 130.716c0 9.747-8.02 17.767-17.767 17.767s-17.767-8.02-17.767-17.767 8.02-17.767 17.767-17.767 17.767 8.02 17.767 17.767" style="fill:#909090;fill-rule:nonzero" transform="translate(61.57 23.103)scale(.15779)"/><path d="M101.95 130.716c0 9.747-8.02 17.767-17.767 17.767s-17.767-8.02-17.767-17.767 8.02-17.767 17.767-17.767 17.767 8.02 17.767 17.767" style="fill:#909090;fill-rule:nonzero" transform="translate(61.57 35.647)scale(.15779)"/><path d="M555.5 45.048h16v313.041h-16z" style="fill:#909090;fill-rule:nonzero" transform="translate(-6.267 18.058)scale(.15779)"/><path d="M594.5 42.934h49v319h-49z" style="fill:#909090" transform="translate(-6.267 18.058)scale(.15779)"/><path d="M101.95 130.716c0 9.747-8.02 17.767-17.767 17.767s-17.767-8.02-17.767-17.767 8.02-17.767 17.767-17.767 17.767 8.02 17.767 17.767" style="fill:#909090;fill-rule:nonzero" transform="rotate(180 19.215 38.45)scale(.15779)"/><path d="M101.95 130.716c0 9.747-8.02 17.767-17.767 17.767s-17.767-8.02-17.767-17.767 8.02-17.767 17.767-17.767 17.767 8.02 17.767 17.767" style="fill:#909090;fill-rule:nonzero" transform="rotate(180 19.215 32.177)scale(.15779)"/><path d="M555.5 45.048h16v313.041h-16z" style="fill:#909090;fill-rule:nonzero" transform="rotate(179.736 53.134 40.972)scale(.15779)"/><path d="M594.5 42.934h49v319h-49z" style="fill:#909090" transform="rotate(179.736 53.134 40.972)scale(.15779)"/><path d="M262.024-162.574h95.999v1.933h-95.999zm-.154 26.214h97.183v1.956H261.87zm.177-13.12h97.183v1.956h-97.183z" style="fill:#909090;fill-rule:nonzero" transform="translate(-237.378 175.412)scale(.92577)"/><path d="M311.005-164.276h4.862v4.637h-4.862zm0-5.275h4.862v4.637h-4.862zm0-5.274h4.862v4.637h-4.862zm0-5.275h4.862v4.637h-4.862zm-16.592 73.843h4.862v4.637h-4.862zm5.53 0h4.862v4.637h-4.862zm-5.53 5.275h4.862v4.637h-4.862zm5.53 0h4.862v4.637h-4.862zm-5.53 5.275h4.862v4.637h-4.862zm5.53 0h4.862v4.637h-4.862zm11.062-15.824h4.862v4.637h-4.862zm0-5.275h4.862v4.637h-4.862zm-27.654 10.549h4.862v4.637h-4.862zm27.735-79.04h4.7v4.483h-4.7zm-27.654 84.392h4.7v4.483h-4.7zm33.185-73.843h4.7v4.483h-4.7zM283.432-95.63h4.7v4.483h-4.7zm33.185-73.844h4.7v4.483h-4.7zm-5.531 10.55h4.7v4.483h-4.7zm11.061-10.55h4.7v4.483h-4.7zm-16.592 58.02h4.7v4.483h-4.7zm5.531-21.098h4.7v4.483h-4.7zm-5.531 26.373h4.7v4.483h-4.7zm0 5.274h4.7v4.483h-4.7zm-5.531-10.549h4.7v4.483h-4.7zm-11.061 0h4.7v4.483h-4.7zm5.531 0h4.7v4.483h-4.7zm-5.531 5.275h4.7v4.483h-4.7zm22.123-47.471h4.7v4.483h-4.7zm-22.123 52.745h4.7v4.483h-4.7zm22.123-47.47h4.7v4.483h-4.7zM288.963-95.63h4.7v4.483h-4.7zm22.123-47.471h4.7v4.483h-4.7zM277.901-95.63h4.7v4.483h-4.7zm0-5.275h4.7v4.483h-4.7zm5.531 10.549h4.7v4.483h-4.7zm11.062 0h4.7v4.483h-4.7zm-5.531 0h4.7v4.483h-4.7z" style="fill:#35c0ed;fill-opacity:.82" transform="translate(-237.378 175.412)scale(.92577)"/><path d="M311.086-100.905h4.7l-4.7 4.483zm-5.531 5.275h4.7l-4.7 4.482zm-5.531 5.274h4.7l-4.7 4.483zm-17.404.02v4.7l-4.482-4.7zm-.018-11.361h-4.7l4.7-4.482zm5.53-5.274h-4.7l4.7-4.483z" style="fill:#35c0ed;fill-opacity:.82;fill-rule:nonzero" transform="translate(-237.378 175.412)scale(.92577)"/><path d="M311.086-106.179h4.7v4.483h-4.7z" style="fill:#35c0ed;fill-opacity:.82" transform="translate(-237.378 175.412)scale(.92577)"/><path d="M316.597-175.56v-4.7l4.483 4.7zm5.531 5.275v-4.7l4.483 4.7zm5.531 5.275v-4.7l4.483 4.7zm5.275 5.53v-4.7l4.482 4.7zm-.792-4.7v4.7l-4.483-4.7zm6.096 30.385h4.7l-4.7 4.483zm-5.449 5.197h4.7l-4.7 4.483zm4.7-.714h-4.7l4.7-4.483z" style="fill:#35c0ed;fill-opacity:.82;fill-rule:nonzero" transform="translate(-237.378 175.412)scale(.92577)"/><path d="M338.364-143.569h4.309v4.109h-4.309zm0-4.824h4.309v4.109h-4.309z" style="fill:#35c0ed;fill-opacity:.82" transform="translate(-237.378 175.412)scale(.92577)"/><path d="M337.416-158.649v4.7l-4.482-4.7zm.792 4.7v-4.7l4.483 4.7z" style="fill:#35c0ed;fill-opacity:.82;fill-rule:nonzero" transform="translate(-237.378 175.412)scale(.92577)"/><path d="M338.364-138.745h4.309v4.109h-4.309zm0-14.472h4.309v4.109h-4.309z" style="fill:#35c0ed;fill-opacity:.82" transform="translate(-237.378 175.412)scale(.92577)"/></svg>