<?xml version="1.0" encoding="UTF-8" standalone="no"?>
<svg width="100%" height="100%" viewBox="0 0 100 100" version="1.1"
    xmlns="http://www.w3.org/2000/svg" xmlns:xlink="http://www.w3.org/1999/xlink"
    xml:space="preserve" xmlns:serif="http://www.serif.com/"
    style="fill-rule:evenodd;clip-rule:evenodd;"><g transform="matrix(0.59633,0,0,0.59633,-134.341,130.72)"><g transform="matrix(1.55245,0,0,1.55245,-172.785,74.9443)"><rect x="256.411" y="-189.476" width="108.018" height="108.018" style="fill:white;stroke:rgb(144,144,144);stroke-width:0.98px;"/></g><g transform="matrix(1.55245,0,0,1.55245,-172.785,74.9443)"><rect x="311.086" y="-137.826" width="4.7" height="4.483" style="fill:rgb(53,192,237);fill-opacity:0.82;"/></g><g transform="matrix(1.55245,0,0,1.55245,-172.785,74.9443)"><rect x="311.086" y="-122.003" width="4.7" height="4.483" style="fill:rgb(53,192,237);fill-opacity:0.82;"/></g><g transform="matrix(1.55245,0,0,1.55245,-172.785,74.9443)"><rect x="311.086" y="-127.277" width="4.7" height="4.483" style="fill:rgb(53,192,237);fill-opacity:0.82;"/></g><g transform="matrix(1.55245,0,0,1.55245,-172.785,74.9443)"><rect x="262.409" y="-110.306" width="96.207" height="1.937" style="fill:rgb(144,144,144);fill-rule:nonzero;"/></g><g transform="matrix(1.55245,0,0,1.55245,-172.785,74.9443)"><rect x="261.693" y="-123.326" width="96.49" height="1.943" style="fill:rgb(144,144,144);fill-rule:nonzero;"/></g><g transform="matrix(0.264599,0,0,0.264599,214.771,-188.925)"><g transform="matrix(1,0,0,1,429.923,31.968)"><path d="M101.95,130.716C101.95,140.463 93.93,148.483 84.183,148.483C74.436,148.483 66.416,140.463 66.416,130.716C66.416,120.969 74.436,112.949 84.183,112.949C93.93,112.949 101.95,120.969 101.95,130.716" style="fill:rgb(144,144,144);fill-rule:nonzero;"/></g><g transform="matrix(1,0,0,1,429.923,111.468)"><path d="M101.95,130.716C101.95,140.463 93.93,148.483 84.183,148.483C74.436,148.483 66.416,140.463 66.416,130.716C66.416,120.969 74.436,112.949 84.183,112.949C93.93,112.949 101.95,120.969 101.95,130.716" style="fill:rgb(144,144,144);fill-rule:nonzero;"/></g><rect x="555.5" y="45.048" width="16" height="313.041" style="fill:rgb(144,144,144);fill-rule:nonzero;"/><rect x="594.5" y="42.934" width="49" height="319" style="fill:rgb(144,144,144);"/></g><g transform="matrix(-0.264599,0,0,-0.264599,403.481,-81.7956)"><g transform="matrix(1,0,0,1,429.923,31.968)"><path d="M101.95,130.716C101.95,140.463 93.93,148.483 84.183,148.483C74.436,148.483 66.416,140.463 66.416,130.716C66.416,120.969 74.436,112.949 84.183,112.949C93.93,112.949 101.95,120.969 101.95,130.716" style="fill:rgb(144,144,144);fill-rule:nonzero;"/></g><g transform="matrix(1,0,0,1,429.923,111.468)"><path d="M101.95,130.716C101.95,140.463 93.93,148.483 84.183,148.483C74.436,148.483 66.416,140.463 66.416,130.716C66.416,120.969 74.436,112.949 84.183,112.949C93.93,112.949 101.95,120.969 101.95,130.716" style="fill:rgb(144,144,144);fill-rule:nonzero;"/></g><rect x="555.5" y="45.048" width="16" height="313.041" style="fill:rgb(144,144,144);fill-rule:nonzero;"/><rect x="594.5" y="42.934" width="49" height="319" style="fill:rgb(144,144,144);"/></g><g transform="matrix(1.55245,0,0,1.55245,-172.785,74.9443)"><rect x="262.024" y="-162.574" width="95.999" height="1.933" style="fill:rgb(144,144,144);fill-rule:nonzero;"/></g><g transform="matrix(1.55245,0,0,1.55245,-172.785,74.9443)"><path d="M261.87,-136.36L359.053,-136.36L359.053,-134.404L261.87,-134.404L261.87,-136.36ZM262.047,-149.48L359.23,-149.48L359.23,-147.524L262.047,-147.524L262.047,-149.48Z" style="fill:rgb(144,144,144);fill-rule:nonzero;"/></g><g transform="matrix(1.55245,0,0,1.55245,-172.785,74.9443)"><rect x="311.005" y="-164.276" width="4.862" height="4.637" style="fill:rgb(53,192,237);fill-opacity:0.82;"/></g><g transform="matrix(1.55245,0,0,1.55245,-172.785,74.9443)"><rect x="311.005" y="-169.551" width="4.862" height="4.637" style="fill:rgb(53,192,237);fill-opacity:0.82;"/></g><g transform="matrix(1.55245,0,0,1.55245,-172.785,74.9443)"><rect x="311.005" y="-174.825" width="4.862" height="4.637" style="fill:rgb(53,192,237);fill-opacity:0.82;"/></g><g transform="matrix(1.55245,0,0,1.55245,-172.785,74.9443)"><rect x="311.005" y="-180.1" width="4.862" height="4.637" style="fill:rgb(53,192,237);fill-opacity:0.82;"/></g><g transform="matrix(1.55245,0,0,1.55245,-172.785,74.9443)"><rect x="294.413" y="-106.257" width="4.862" height="4.637" style="fill:rgb(53,192,237);fill-opacity:0.82;"/></g><g transform="matrix(1.55245,0,0,1.55245,-172.785,74.9443)"><rect x="299.943" y="-106.257" width="4.862" height="4.637" style="fill:rgb(53,192,237);fill-opacity:0.82;"/></g><g transform="matrix(1.55245,0,0,1.55245,-172.785,74.9443)"><rect x="294.413" y="-100.982" width="4.862" height="4.637" style="fill:rgb(53,192,237);fill-opacity:0.82;"/></g><g transform="matrix(1.55245,0,0,1.55245,-172.785,74.9443)"><rect x="299.943" y="-100.982" width="4.862" height="4.637" style="fill:rgb(53,192,237);fill-opacity:0.82;"/></g><g transform="matrix(1.55245,0,0,1.55245,-172.785,74.9443)"><rect x="294.413" y="-95.707" width="4.862" height="4.637" style="fill:rgb(53,192,237);fill-opacity:0.82;"/></g><g transform="matrix(1.55245,0,0,1.55245,-172.785,74.9443)"><rect x="299.943" y="-95.707" width="4.862" height="4.637" style="fill:rgb(53,192,237);fill-opacity:0.82;"/></g><g transform="matrix(1.55245,0,0,1.55245,-172.785,74.9443)"><rect x="311.005" y="-111.531" width="4.862" height="4.637" style="fill:rgb(53,192,237);fill-opacity:0.82;"/></g><g transform="matrix(1.55245,0,0,1.55245,-172.785,74.9443)"><rect x="311.005" y="-116.806" width="4.862" height="4.637" style="fill:rgb(53,192,237);fill-opacity:0.82;"/></g><g transform="matrix(1.55245,0,0,1.55245,-172.785,74.9443)"><rect x="283.351" y="-106.257" width="4.862" height="4.637" style="fill:rgb(53,192,237);fill-opacity:0.82;"/></g><g transform="matrix(1.55245,0,0,1.55245,-172.785,74.9443)"><rect x="311.086" y="-185.297" width="4.7" height="4.483" style="fill:rgb(53,192,237);fill-opacity:0.82;"/></g><g transform="matrix(1.55245,0,0,1.55245,-172.785,74.9443)"><rect x="283.432" y="-100.905" width="4.7" height="4.483" style="fill:rgb(53,192,237);fill-opacity:0.82;"/></g><g transform="matrix(1.55245,0,0,1.55245,-172.785,74.9443)"><rect x="316.617" y="-174.748" width="4.7" height="4.483" style="fill:rgb(53,192,237);fill-opacity:0.82;"/></g><g transform="matrix(1.55245,0,0,1.55245,-172.785,74.9443)"><rect x="283.432" y="-95.63" width="4.7" height="4.483" style="fill:rgb(53,192,237);fill-opacity:0.82;"/></g><g transform="matrix(1.55245,0,0,1.55245,-172.785,74.9443)"><rect x="316.617" y="-169.474" width="4.7" height="4.483" style="fill:rgb(53,192,237);fill-opacity:0.82;"/></g><g transform="matrix(1.55245,0,0,1.55245,-172.785,74.9443)"><rect x="311.086" y="-158.924" width="4.7" height="4.483" style="fill:rgb(53,192,237);fill-opacity:0.82;"/></g><g transform="matrix(1.55245,0,0,1.55245,-172.785,74.9443)"><rect x="322.147" y="-169.474" width="4.7" height="4.483" style="fill:rgb(53,192,237);fill-opacity:0.82;"/></g><g transform="matrix(1.55245,0,0,1.55245,-172.785,74.9443)"><rect x="305.555" y="-111.454" width="4.7" height="4.483" style="fill:rgb(53,192,237);fill-opacity:0.82;"/></g><g transform="matrix(1.55245,0,0,1.55245,-172.785,74.9443)"><rect x="311.086" y="-132.552" width="4.7" height="4.483" style="fill:rgb(53,192,237);fill-opacity:0.82;"/></g><g transform="matrix(1.55245,0,0,1.55245,-172.785,74.9443)"><rect x="305.555" y="-106.179" width="4.7" height="4.483" style="fill:rgb(53,192,237);fill-opacity:0.82;"/></g><g transform="matrix(1.55245,0,0,1.55245,-172.785,74.9443)"><rect x="305.555" y="-100.905" width="4.7" height="4.483" style="fill:rgb(53,192,237);fill-opacity:0.82;"/></g><g transform="matrix(1.55245,0,0,1.55245,-172.785,74.9443)"><rect x="300.024" y="-111.454" width="4.7" height="4.483" style="fill:rgb(53,192,237);fill-opacity:0.82;"/></g><g transform="matrix(1.55245,0,0,1.55245,-172.785,74.9443)"><rect x="288.963" y="-111.454" width="4.7" height="4.483" style="fill:rgb(53,192,237);fill-opacity:0.82;"/></g><g transform="matrix(1.55245,0,0,1.55245,-172.785,74.9443)"><rect x="294.494" y="-111.454" width="4.7" height="4.483" style="fill:rgb(53,192,237);fill-opacity:0.82;"/></g><g transform="matrix(1.55245,0,0,1.55245,-172.785,74.9443)"><rect x="288.963" y="-106.179" width="4.7" height="4.483" style="fill:rgb(53,192,237);fill-opacity:0.82;"/></g><g transform="matrix(1.55245,0,0,1.55245,-172.785,74.9443)"><rect x="311.086" y="-153.65" width="4.7" height="4.483" style="fill:rgb(53,192,237);fill-opacity:0.82;"/></g><g transform="matrix(1.55245,0,0,1.55245,-172.785,74.9443)"><rect x="288.963" y="-100.905" width="4.7" height="4.483" style="fill:rgb(53,192,237);fill-opacity:0.82;"/></g><g transform="matrix(1.55245,0,0,1.55245,-172.785,74.9443)"><rect x="311.086" y="-148.375" width="4.7" height="4.483" style="fill:rgb(53,192,237);fill-opacity:0.82;"/></g><g transform="matrix(1.55245,0,0,1.55245,-172.785,74.9443)"><rect x="288.963" y="-95.63" width="4.7" height="4.483" style="fill:rgb(53,192,237);fill-opacity:0.82;"/></g><g transform="matrix(1.55245,0,0,1.55245,-172.785,74.9443)"><rect x="311.086" y="-143.101" width="4.7" height="4.483" style="fill:rgb(53,192,237);fill-opacity:0.82;"/></g><g transform="matrix(1.55245,0,0,1.55245,-172.785,74.9443)"><rect x="277.901" y="-95.63" width="4.7" height="4.483" style="fill:rgb(53,192,237);fill-opacity:0.82;"/></g><g transform="matrix(1.55245,0,0,1.55245,-172.785,74.9443)"><rect x="277.901" y="-100.905" width="4.7" height="4.483" style="fill:rgb(53,192,237);fill-opacity:0.82;"/></g><g transform="matrix(1.55245,0,0,1.55245,-172.785,74.9443)"><rect x="283.432" y="-90.356" width="4.7" height="4.483" style="fill:rgb(53,192,237);fill-opacity:0.82;"/></g><g transform="matrix(1.55245,0,0,1.55245,-172.785,74.9443)"><rect x="294.494" y="-90.356" width="4.7" height="4.483" style="fill:rgb(53,192,237);fill-opacity:0.82;"/></g><g transform="matrix(1.55245,0,0,1.55245,-172.785,74.9443)"><rect x="288.963" y="-90.356" width="4.7" height="4.483" style="fill:rgb(53,192,237);fill-opacity:0.82;"/></g><g transform="matrix(1.55245,0,0,1.55245,-172.785,74.9443)"><path d="M311.086,-100.905L315.786,-100.905L311.086,-96.422L311.086,-100.905ZM305.555,-95.63L310.255,-95.63L305.555,-91.148L305.555,-95.63ZM300.024,-90.356L304.724,-90.356L300.024,-85.873L300.024,-90.356ZM282.62,-90.336L282.62,-85.636L278.138,-90.336L282.62,-90.336ZM282.602,-101.697L277.902,-101.697L282.602,-106.179L282.602,-101.697ZM288.132,-106.971L283.432,-106.971L288.132,-111.454L288.132,-106.971Z" style="fill:rgb(53,192,237);fill-opacity:0.82;fill-rule:nonzero;"/></g><g transform="matrix(1.55245,0,0,1.55245,-172.785,74.9443)"><rect x="311.086" y="-106.179" width="4.7" height="4.483" style="fill:rgb(53,192,237);fill-opacity:0.82;"/></g><g transform="matrix(1.55245,0,0,1.55245,-172.785,74.9443)"><path d="M316.597,-175.56L316.597,-180.26L321.08,-175.56L316.597,-175.56ZM322.128,-170.285L322.128,-174.985L326.611,-170.285L322.128,-170.285ZM327.659,-165.01L327.659,-169.71L332.142,-165.01L327.659,-165.01ZM332.934,-159.48L332.934,-164.18L337.416,-159.48L332.934,-159.48ZM332.142,-164.18L332.142,-159.48L327.659,-164.18L332.142,-164.18ZM338.238,-133.795L342.938,-133.795L338.238,-129.312L338.238,-133.795ZM332.789,-128.598L337.489,-128.598L332.789,-124.115L332.789,-128.598ZM337.489,-129.312L332.789,-129.312L337.489,-133.795L337.489,-129.312Z" style="fill:rgb(53,192,237);fill-opacity:0.82;fill-rule:nonzero;"/></g><g transform="matrix(1.55245,0,0,1.55245,-172.785,74.9443)"><rect x="338.364" y="-143.569" width="4.309" height="4.109" style="fill:rgb(53,192,237);fill-opacity:0.82;"/></g><g transform="matrix(1.55245,0,0,1.55245,-172.785,74.9443)"><rect x="338.364" y="-148.393" width="4.309" height="4.109" style="fill:rgb(53,192,237);fill-opacity:0.82;"/></g><g transform="matrix(1.55245,0,0,1.55245,-172.785,74.9443)"><path d="M337.416,-158.649L337.416,-153.949L332.934,-158.649L337.416,-158.649ZM338.208,-153.949L338.208,-158.649L342.691,-153.949L338.208,-153.949Z" style="fill:rgb(53,192,237);fill-opacity:0.82;fill-rule:nonzero;"/></g><g transform="matrix(1.55245,0,0,1.55245,-172.785,74.9443)"><rect x="338.364" y="-138.745" width="4.309" height="4.109" style="fill:rgb(53,192,237);fill-opacity:0.82;"/></g><g transform="matrix(1.55245,0,0,1.55245,-172.785,74.9443)"><rect x="338.364" y="-153.217" width="4.309" height="4.109" style="fill:rgb(53,192,237);fill-opacity:0.82;"/></g></g></svg>