<svg xmlns="http://www.w3.org/2000/svg" width="100" height="100">
    <g transform="translate(-134.341 130.72)scale(.59633)">
        <text xml:space="preserve" x="287.085" y="-176.479"
            style="font-style:normal;font-weight:400;font-size:40px;line-height:1.25;font-family:sans-serif;letter-spacing:0;word-spacing:0;fill:#000;fill-opacity:1;stroke:none"><tspan x="287.085" y="-176.479"> </tspan></text>
        <rect width="108.018" height="108.018" x="256.411" y="-189.476" ry="8.451"
            style="fill:#fff;fill-opacity:1;stroke:#909090;stroke-width:.98198199;stroke-opacity:1" />
        <rect width="4.7" height="4.483" x="311.086" y="-137.826" rx="0" ry="0"
            style="opacity:1;fill:#35c0ed;fill-opacity:.82178219;stroke:#030303;stroke-width:0;stroke-linecap:butt;stroke-linejoin:miter;stroke-miterlimit:4;stroke-dasharray:none;stroke-dashoffset:0;stroke-opacity:1" />
        <rect width="4.7" height="4.483" x="311.086" y="-122.003" rx="0" ry="0"
            style="opacity:1;fill:#35c0ed;fill-opacity:.82178219;stroke:#030303;stroke-width:0;stroke-linecap:butt;stroke-linejoin:miter;stroke-miterlimit:4;stroke-dasharray:none;stroke-dashoffset:0;stroke-opacity:1" />
        <rect width="4.7" height="4.483" x="311.086" y="-127.277" rx="0" ry="0"
            style="opacity:1;fill:#35c0ed;fill-opacity:.82178219;stroke:#030303;stroke-width:0;stroke-linecap:butt;stroke-linejoin:miter;stroke-miterlimit:4;stroke-dasharray:none;stroke-dashoffset:0;stroke-opacity:1" />
        <path d="M262.409-110.306h96.207v1.937h-96.207z"
            style="opacity:1;vector-effect:none;fill:#909090;fill-opacity:1;stroke:none;stroke-width:.16765696;stroke-linecap:butt;stroke-linejoin:miter;stroke-miterlimit:4;stroke-dasharray:none;stroke-dashoffset:0;stroke-opacity:1" />
        <path d="M261.693-123.326h96.49v1.943h-96.49z"
            style="opacity:1;vector-effect:none;fill:#909090;fill-opacity:1;stroke:none;stroke-width:.5113343;stroke-linecap:round;stroke-linejoin:miter;stroke-miterlimit:4;stroke-dasharray:none;stroke-dashoffset:0;stroke-opacity:1" />
        <g style="fill:#909090;fill-opacity:1" transform="matrix(.17044 0 0 .17044 249.642 -169.97)">
            <path d="M101.95 130.716a17.767 17.767 0 1 1-35.534 0 17.767 17.767 0 1 1 35.534 0"
                style="opacity:1;fill:#909090;fill-opacity:1;stroke:none;stroke-width:3;stroke-linecap:round;stroke-linejoin:miter;stroke-miterlimit:4;stroke-dasharray:none;stroke-dashoffset:0;stroke-opacity:1"
                transform="translate(429.923 31.968)" />
            <path d="M101.95 130.716a17.767 17.767 0 1 1-35.534 0 17.767 17.767 0 1 1 35.534 0"
                style="opacity:1;fill:#909090;fill-opacity:1;stroke:none;stroke-width:3;stroke-linecap:round;stroke-linejoin:miter;stroke-miterlimit:4;stroke-dasharray:none;stroke-dashoffset:0;stroke-opacity:1"
                transform="translate(429.923 111.468)" />
            <path d="M555.5 45.048h16v313.041h-16z"
                style="opacity:1;fill:#909090;fill-opacity:1;stroke:none;stroke-width:3;stroke-linecap:round;stroke-linejoin:miter;stroke-miterlimit:4;stroke-dasharray:none;stroke-dashoffset:0;stroke-opacity:1" />
            <rect width="49" height="319" x="594.5" y="42.934" ry="2.538"
                style="opacity:1;fill:#909090;fill-opacity:1;stroke:none;stroke-width:3;stroke-linecap:round;stroke-linejoin:miter;stroke-miterlimit:4;stroke-dasharray:none;stroke-dashoffset:0;stroke-opacity:1" />
        </g>
        <g
            style="opacity:1;vector-effect:none;fill:#909090;fill-opacity:1;stroke:none;stroke-width:3;stroke-linecap:round;stroke-linejoin:miter;stroke-miterlimit:4;stroke-dasharray:none;stroke-dashoffset:0;stroke-opacity:1"
            transform="matrix(-.17044 0 0 -.17044 371.198 -100.963)">
            <path d="M101.95 130.716a17.767 17.767 0 1 1-35.534 0 17.767 17.767 0 1 1 35.534 0"
                style="opacity:1;vector-effect:none;fill:#909090;fill-opacity:1;stroke:none;stroke-width:3;stroke-linecap:round;stroke-linejoin:miter;stroke-miterlimit:4;stroke-dasharray:none;stroke-dashoffset:0;stroke-opacity:1"
                transform="translate(429.923 31.968)" />
            <path d="M101.95 130.716a17.767 17.767 0 1 1-35.534 0 17.767 17.767 0 1 1 35.534 0"
                style="opacity:1;vector-effect:none;fill:#909090;fill-opacity:1;stroke:none;stroke-width:3;stroke-linecap:round;stroke-linejoin:miter;stroke-miterlimit:4;stroke-dasharray:none;stroke-dashoffset:0;stroke-opacity:1"
                transform="translate(429.923 111.468)" />
            <path d="M555.5 45.048h16v313.041h-16z"
                style="opacity:1;vector-effect:none;fill:#909090;fill-opacity:1;stroke:none;stroke-width:3;stroke-linecap:round;stroke-linejoin:miter;stroke-miterlimit:4;stroke-dasharray:none;stroke-dashoffset:0;stroke-opacity:1" />
            <rect width="49" height="319" x="594.5" y="42.934" ry="2.538"
                style="opacity:1;vector-effect:none;fill:#909090;fill-opacity:1;stroke:none;stroke-width:3;stroke-linecap:round;stroke-linejoin:miter;stroke-miterlimit:4;stroke-dasharray:none;stroke-dashoffset:0;stroke-opacity:1" />
        </g>
        <path d="M262.024-162.574h95.999v1.933h-95.999z"
            style="opacity:1;vector-effect:none;fill:#909090;fill-opacity:1;stroke:none;stroke-width:.16729446;stroke-linecap:butt;stroke-linejoin:miter;stroke-miterlimit:4;stroke-dasharray:none;stroke-dashoffset:0;stroke-opacity:1" />
        <path d="M261.87-136.36h97.183v1.956H261.87zM262.047-149.48h97.183v1.956h-97.183z"
            style="opacity:1;vector-effect:none;fill:#909090;fill-opacity:1;stroke:none;stroke-width:.16935654;stroke-linecap:butt;stroke-linejoin:miter;stroke-miterlimit:4;stroke-dasharray:none;stroke-dashoffset:0;stroke-opacity:1" />
        <rect width="4.862" height="4.637" x="311.005" y="-164.276" rx="0" ry="0"
            style="opacity:1;fill:#35c0ed;fill-opacity:.82178219;stroke:#030303;stroke-width:0;stroke-linecap:butt;stroke-linejoin:miter;stroke-miterlimit:4;stroke-dasharray:none;stroke-dashoffset:0;stroke-opacity:1" />
        <rect width="4.862" height="4.637" x="311.005" y="-169.551" rx="0" ry="0"
            style="opacity:1;fill:#35c0ed;fill-opacity:.82178219;stroke:#030303;stroke-width:0;stroke-linecap:butt;stroke-linejoin:miter;stroke-miterlimit:4;stroke-dasharray:none;stroke-dashoffset:0;stroke-opacity:1" />
        <rect width="4.862" height="4.637" x="311.005" y="-174.825" rx="0" ry="0"
            style="opacity:1;fill:#35c0ed;fill-opacity:.82178219;stroke:#030303;stroke-width:0;stroke-linecap:butt;stroke-linejoin:miter;stroke-miterlimit:4;stroke-dasharray:none;stroke-dashoffset:0;stroke-opacity:1" />
        <rect width="4.862" height="4.637" x="311.005" y="-180.1" rx="0" ry="0"
            style="opacity:1;fill:#35c0ed;fill-opacity:.82178219;stroke:#030303;stroke-width:0;stroke-linecap:butt;stroke-linejoin:miter;stroke-miterlimit:4;stroke-dasharray:none;stroke-dashoffset:0;stroke-opacity:1" />
        <rect width="4.862" height="4.637" x="294.413" y="-106.257" rx="0" ry="0"
            style="opacity:1;fill:#35c0ed;fill-opacity:.82178219;stroke:#030303;stroke-width:0;stroke-linecap:butt;stroke-linejoin:miter;stroke-miterlimit:4;stroke-dasharray:none;stroke-dashoffset:0;stroke-opacity:1" />
        <rect width="4.862" height="4.637" x="299.943" y="-106.257" rx="0" ry="0"
            style="opacity:1;fill:#35c0ed;fill-opacity:.82178219;stroke:#030303;stroke-width:0;stroke-linecap:butt;stroke-linejoin:miter;stroke-miterlimit:4;stroke-dasharray:none;stroke-dashoffset:0;stroke-opacity:1" />
        <rect width="4.862" height="4.637" x="294.413" y="-100.982" rx="0" ry="0"
            style="opacity:1;fill:#35c0ed;fill-opacity:.82178219;stroke:#030303;stroke-width:0;stroke-linecap:butt;stroke-linejoin:miter;stroke-miterlimit:4;stroke-dasharray:none;stroke-dashoffset:0;stroke-opacity:1" />
        <rect width="4.862" height="4.637" x="299.943" y="-100.982" rx="0" ry="0"
            style="opacity:1;fill:#35c0ed;fill-opacity:.82178219;stroke:#030303;stroke-width:0;stroke-linecap:butt;stroke-linejoin:miter;stroke-miterlimit:4;stroke-dasharray:none;stroke-dashoffset:0;stroke-opacity:1" />
        <rect width="4.862" height="4.637" x="294.413" y="-95.707" rx="0" ry="0"
            style="opacity:1;fill:#35c0ed;fill-opacity:.82178219;stroke:#030303;stroke-width:0;stroke-linecap:butt;stroke-linejoin:miter;stroke-miterlimit:4;stroke-dasharray:none;stroke-dashoffset:0;stroke-opacity:1" />
        <rect width="4.862" height="4.637" x="299.943" y="-95.707" rx="0" ry="0"
            style="opacity:1;fill:#35c0ed;fill-opacity:.82178219;stroke:#030303;stroke-width:0;stroke-linecap:butt;stroke-linejoin:miter;stroke-miterlimit:4;stroke-dasharray:none;stroke-dashoffset:0;stroke-opacity:1" />
        <rect width="4.862" height="4.637" x="311.005" y="-111.531" rx="0" ry="0"
            style="opacity:1;fill:#35c0ed;fill-opacity:.82178219;stroke:#030303;stroke-width:0;stroke-linecap:butt;stroke-linejoin:miter;stroke-miterlimit:4;stroke-dasharray:none;stroke-dashoffset:0;stroke-opacity:1" />
        <rect width="4.862" height="4.637" x="311.005" y="-116.806" rx="0" ry="0"
            style="opacity:1;fill:#35c0ed;fill-opacity:.82178219;stroke:#030303;stroke-width:0;stroke-linecap:butt;stroke-linejoin:miter;stroke-miterlimit:4;stroke-dasharray:none;stroke-dashoffset:0;stroke-opacity:1" />
        <rect width="4.862" height="4.637" x="283.351" y="-106.257" rx="0" ry="0"
            style="opacity:1;fill:#35c0ed;fill-opacity:.82178219;stroke:#030303;stroke-width:0;stroke-linecap:butt;stroke-linejoin:miter;stroke-miterlimit:4;stroke-dasharray:none;stroke-dashoffset:0;stroke-opacity:1" />
        <rect width="4.7" height="4.483" x="311.086" y="-185.297" rx="0" ry="0"
            style="opacity:1;fill:#35c0ed;fill-opacity:.82178219;stroke:#030303;stroke-width:0;stroke-linecap:butt;stroke-linejoin:miter;stroke-miterlimit:4;stroke-dasharray:none;stroke-dashoffset:0;stroke-opacity:1" />
        <rect width="4.7" height="4.483" x="283.432" y="-100.905" rx="0" ry="0"
            style="opacity:1;fill:#35c0ed;fill-opacity:.82178219;stroke:#030303;stroke-width:0;stroke-linecap:butt;stroke-linejoin:miter;stroke-miterlimit:4;stroke-dasharray:none;stroke-dashoffset:0;stroke-opacity:1" />
        <rect width="4.7" height="4.483" x="316.617" y="-174.748" rx="0" ry="0"
            style="opacity:1;fill:#35c0ed;fill-opacity:.82178219;stroke:#030303;stroke-width:0;stroke-linecap:butt;stroke-linejoin:miter;stroke-miterlimit:4;stroke-dasharray:none;stroke-dashoffset:0;stroke-opacity:1" />
        <rect width="4.7" height="4.483" x="283.432" y="-95.63" rx="0" ry="0"
            style="opacity:1;fill:#35c0ed;fill-opacity:.82178219;stroke:#030303;stroke-width:0;stroke-linecap:butt;stroke-linejoin:miter;stroke-miterlimit:4;stroke-dasharray:none;stroke-dashoffset:0;stroke-opacity:1" />
        <rect width="4.7" height="4.483" x="316.617" y="-169.474" rx="0" ry="0"
            style="opacity:1;fill:#35c0ed;fill-opacity:.82178219;stroke:#030303;stroke-width:0;stroke-linecap:butt;stroke-linejoin:miter;stroke-miterlimit:4;stroke-dasharray:none;stroke-dashoffset:0;stroke-opacity:1" />
        <rect width="4.7" height="4.483" x="311.086" y="-158.924" rx="0" ry="0"
            style="opacity:1;fill:#35c0ed;fill-opacity:.82178219;stroke:#030303;stroke-width:0;stroke-linecap:butt;stroke-linejoin:miter;stroke-miterlimit:4;stroke-dasharray:none;stroke-dashoffset:0;stroke-opacity:1" />
        <rect width="4.7" height="4.483" x="322.147" y="-169.474" rx="0" ry="0"
            style="opacity:1;fill:#35c0ed;fill-opacity:.82178219;stroke:#030303;stroke-width:0;stroke-linecap:butt;stroke-linejoin:miter;stroke-miterlimit:4;stroke-dasharray:none;stroke-dashoffset:0;stroke-opacity:1" />
        <rect width="4.7" height="4.483" x="305.555" y="-111.454" rx="0" ry="0"
            style="opacity:1;fill:#35c0ed;fill-opacity:.82178219;stroke:#030303;stroke-width:0;stroke-linecap:butt;stroke-linejoin:miter;stroke-miterlimit:4;stroke-dasharray:none;stroke-dashoffset:0;stroke-opacity:1" />
        <rect width="4.7" height="4.483" x="311.086" y="-132.552" rx="0" ry="0"
            style="opacity:1;fill:#35c0ed;fill-opacity:.82178219;stroke:#030303;stroke-width:0;stroke-linecap:butt;stroke-linejoin:miter;stroke-miterlimit:4;stroke-dasharray:none;stroke-dashoffset:0;stroke-opacity:1" />
        <rect width="4.7" height="4.483" x="305.555" y="-106.179" rx="0" ry="0"
            style="opacity:1;fill:#35c0ed;fill-opacity:.82178219;stroke:#030303;stroke-width:0;stroke-linecap:butt;stroke-linejoin:miter;stroke-miterlimit:4;stroke-dasharray:none;stroke-dashoffset:0;stroke-opacity:1" />
        <rect width="4.7" height="4.483" x="305.555" y="-100.905" rx="0" ry="0"
            style="opacity:1;fill:#35c0ed;fill-opacity:.82178219;stroke:#030303;stroke-width:0;stroke-linecap:butt;stroke-linejoin:miter;stroke-miterlimit:4;stroke-dasharray:none;stroke-dashoffset:0;stroke-opacity:1" />
        <rect width="4.7" height="4.483" x="300.024" y="-111.454" rx="0" ry="0"
            style="opacity:1;fill:#35c0ed;fill-opacity:.82178219;stroke:#030303;stroke-width:0;stroke-linecap:butt;stroke-linejoin:miter;stroke-miterlimit:4;stroke-dasharray:none;stroke-dashoffset:0;stroke-opacity:1" />
        <rect width="4.7" height="4.483" x="288.963" y="-111.454" rx="0" ry="0"
            style="opacity:1;fill:#35c0ed;fill-opacity:.82178219;stroke:#030303;stroke-width:0;stroke-linecap:butt;stroke-linejoin:miter;stroke-miterlimit:4;stroke-dasharray:none;stroke-dashoffset:0;stroke-opacity:1" />
        <rect width="4.7" height="4.483" x="294.494" y="-111.454" rx="0" ry="0"
            style="opacity:1;fill:#35c0ed;fill-opacity:.82178219;stroke:#030303;stroke-width:0;stroke-linecap:butt;stroke-linejoin:miter;stroke-miterlimit:4;stroke-dasharray:none;stroke-dashoffset:0;stroke-opacity:1" />
        <rect width="4.7" height="4.483" x="288.963" y="-106.179" rx="0" ry="0"
            style="opacity:1;fill:#35c0ed;fill-opacity:.82178219;stroke:#030303;stroke-width:0;stroke-linecap:butt;stroke-linejoin:miter;stroke-miterlimit:4;stroke-dasharray:none;stroke-dashoffset:0;stroke-opacity:1" />
        <rect width="4.7" height="4.483" x="311.086" y="-153.65" rx="0" ry="0"
            style="opacity:1;fill:#35c0ed;fill-opacity:.82178219;stroke:#030303;stroke-width:0;stroke-linecap:butt;stroke-linejoin:miter;stroke-miterlimit:4;stroke-dasharray:none;stroke-dashoffset:0;stroke-opacity:1" />
        <rect width="4.7" height="4.483" x="288.963" y="-100.905" rx="0" ry="0"
            style="opacity:1;fill:#35c0ed;fill-opacity:.82178219;stroke:#030303;stroke-width:0;stroke-linecap:butt;stroke-linejoin:miter;stroke-miterlimit:4;stroke-dasharray:none;stroke-dashoffset:0;stroke-opacity:1" />
        <rect width="4.7" height="4.483" x="311.086" y="-148.375" rx="0" ry="0"
            style="opacity:1;fill:#35c0ed;fill-opacity:.82178219;stroke:#030303;stroke-width:0;stroke-linecap:butt;stroke-linejoin:miter;stroke-miterlimit:4;stroke-dasharray:none;stroke-dashoffset:0;stroke-opacity:1" />
        <rect width="4.7" height="4.483" x="288.963" y="-95.63" rx="0" ry="0"
            style="opacity:1;fill:#35c0ed;fill-opacity:.82178219;stroke:#030303;stroke-width:0;stroke-linecap:butt;stroke-linejoin:miter;stroke-miterlimit:4;stroke-dasharray:none;stroke-dashoffset:0;stroke-opacity:1" />
        <rect width="4.7" height="4.483" x="311.086" y="-143.101" rx="0" ry="0"
            style="opacity:1;fill:#35c0ed;fill-opacity:.82178219;stroke:#030303;stroke-width:0;stroke-linecap:butt;stroke-linejoin:miter;stroke-miterlimit:4;stroke-dasharray:none;stroke-dashoffset:0;stroke-opacity:1" />
        <rect width="4.7" height="4.483" x="277.901" y="-95.63" rx="0" ry="0"
            style="opacity:1;fill:#35c0ed;fill-opacity:.82178219;stroke:#030303;stroke-width:0;stroke-linecap:butt;stroke-linejoin:miter;stroke-miterlimit:4;stroke-dasharray:none;stroke-dashoffset:0;stroke-opacity:1" />
        <rect width="4.7" height="4.483" x="277.901" y="-100.905" rx="0" ry="0"
            style="opacity:1;fill:#35c0ed;fill-opacity:.82178219;stroke:#030303;stroke-width:0;stroke-linecap:butt;stroke-linejoin:miter;stroke-miterlimit:4;stroke-dasharray:none;stroke-dashoffset:0;stroke-opacity:1" />
        <rect width="4.7" height="4.483" x="283.432" y="-90.356" rx="0" ry="0"
            style="opacity:1;fill:#35c0ed;fill-opacity:.82178219;stroke:#030303;stroke-width:0;stroke-linecap:butt;stroke-linejoin:miter;stroke-miterlimit:4;stroke-dasharray:none;stroke-dashoffset:0;stroke-opacity:1" />
        <rect width="4.7" height="4.483" x="294.494" y="-90.356" rx="0" ry="0"
            style="opacity:1;fill:#35c0ed;fill-opacity:.82178219;stroke:#030303;stroke-width:0;stroke-linecap:butt;stroke-linejoin:miter;stroke-miterlimit:4;stroke-dasharray:none;stroke-dashoffset:0;stroke-opacity:1" />
        <rect width="4.7" height="4.483" x="288.963" y="-90.356" rx="0" ry="0"
            style="opacity:1;fill:#35c0ed;fill-opacity:.82178219;stroke:#030303;stroke-width:0;stroke-linecap:butt;stroke-linejoin:miter;stroke-miterlimit:4;stroke-dasharray:none;stroke-dashoffset:0;stroke-opacity:1" />
        <path
            d="M311.086-100.905h4.7l-4.7 4.483zM305.555-95.63h4.7l-4.7 4.482zM300.024-90.356h4.7l-4.7 4.483zM282.62-90.336v4.7l-4.482-4.7zM282.602-101.697h-4.7l4.7-4.482zM288.132-106.971h-4.7l4.7-4.483z"
            style="fill:#35c0ed;fill-opacity:.82178219;stroke:none;stroke-width:1.33082902px;stroke-linecap:butt;stroke-linejoin:miter;stroke-opacity:1" />
        <rect width="4.7" height="4.483" x="311.086" y="-106.179" rx="0" ry="0"
            style="opacity:1;fill:#35c0ed;fill-opacity:.82178219;stroke:#030303;stroke-width:0;stroke-linecap:butt;stroke-linejoin:miter;stroke-miterlimit:4;stroke-dasharray:none;stroke-dashoffset:0;stroke-opacity:1" />
        <path
            d="M316.597-175.56v-4.7l4.483 4.7zM322.128-170.285v-4.7l4.483 4.7zM327.659-165.01v-4.7l4.483 4.7zM332.934-159.48v-4.7l4.482 4.7zM332.142-164.18v4.7l-4.483-4.7zM338.238-133.795h4.7l-4.7 4.483zM332.789-128.598h4.7l-4.7 4.483zM337.489-129.312h-4.7l4.7-4.483z"
            style="fill:#35c0ed;fill-opacity:.82178219;stroke:none;stroke-width:1.33082902px;stroke-linecap:butt;stroke-linejoin:miter;stroke-opacity:1" />
        <rect width="4.309" height="4.109" x="338.364" y="-143.569" rx="0" ry="0"
            style="opacity:1;fill:#35c0ed;fill-opacity:.82178219;stroke:#030303;stroke-width:0;stroke-linecap:butt;stroke-linejoin:miter;stroke-miterlimit:4;stroke-dasharray:none;stroke-dashoffset:0;stroke-opacity:1" />
        <rect width="4.309" height="4.109" x="338.364" y="-148.393" rx="0" ry="0"
            style="opacity:1;fill:#35c0ed;fill-opacity:.82178219;stroke:#030303;stroke-width:0;stroke-linecap:butt;stroke-linejoin:miter;stroke-miterlimit:4;stroke-dasharray:none;stroke-dashoffset:0;stroke-opacity:1" />
        <path d="M337.416-158.649v4.7l-4.482-4.7zM338.208-153.949v-4.7l4.483 4.7z"
            style="fill:#35c0ed;fill-opacity:.82178219;stroke:none;stroke-width:1.33082902px;stroke-linecap:butt;stroke-linejoin:miter;stroke-opacity:1" />
        <rect width="4.309" height="4.109" x="338.364" y="-138.745" rx="0" ry="0"
            style="opacity:1;fill:#35c0ed;fill-opacity:.82178219;stroke:#030303;stroke-width:0;stroke-linecap:butt;stroke-linejoin:miter;stroke-miterlimit:4;stroke-dasharray:none;stroke-dashoffset:0;stroke-opacity:1" />
        <rect width="4.309" height="4.109" x="338.364" y="-153.217" rx="0" ry="0"
            style="opacity:1;fill:#35c0ed;fill-opacity:.82178219;stroke:#030303;stroke-width:0;stroke-linecap:butt;stroke-linejoin:miter;stroke-miterlimit:4;stroke-dasharray:none;stroke-dashoffset:0;stroke-opacity:1" />
    </g>
</svg>