<svg xmlns="http://www.w3.org/2000/svg" width="98" height="22" fill="none"><path fill="#fff" d="M43.314 1.067h-4.031L30.5 10.422V1.098h-3.23v20.273h3.23v-9.82l8.814 9.82h4.177l-9.397-10.484z"/><path fill="#fff" d="M54.303 7.186c-1.153-.66-2.45-.994-3.901-.994q-2.218-.001-3.973.994a7.04 7.04 0 0 0-2.735 2.758q-.976 1.768-.976 4.01c0 1.494.325 2.835.972 4.01a6.97 6.97 0 0 0 2.716 2.758c1.166.659 2.486.993 3.964.993q2.189 0 3.923-.993a6.94 6.94 0 0 0 2.694-2.759q.963-1.767.963-4.01 0-2.24-.963-4.009a6.95 6.95 0 0 0-2.684-2.758m-.204 9.328a4.15 4.15 0 0 1-1.505 1.73q-.97.622-2.233.622-1.276 0-2.26-.623a4.2 4.2 0 0 1-1.528-1.73q-.542-1.108-.542-2.555.001-1.447.551-2.555a4.2 4.2 0 0 1 1.537-1.73q.984-.623 2.278-.623 1.249 0 2.22.623a4.13 4.13 0 0 1 1.5 1.73q.53 1.109.529 2.555-.013 1.444-.547 2.556M64.555 2.836h-3.132v2.52q.001.597-.29.889-.29.298-.899.298h-1.537v2.664h2.667v7.978q-.001 1.245.506 2.194a3.6 3.6 0 0 0 1.442 1.472q.936.521 2.21.52h2.391v-2.782h-1.798q-.698-.001-1.13-.483-.434-.486-.434-1.282V9.207h3.448V6.543h-3.448V2.836zM73.68.286h-3.186V21.37h3.187zm6.818.026H77.28v3.273h3.218zm-.032 6.232H77.28V21.37h3.186zM96.67 8.99a4.97 4.97 0 0 0-1.899-2.054q-1.226-.739-2.866-.74-1.742.001-3.05.848c-.697.447-1.257 1.052-1.7 1.797l-.018-2.298H84.09V21.37h3.191v-8.298q.001-1.2.457-2.136a3.4 3.4 0 0 1 1.293-1.45c.556-.342 1.202-.514 1.948-.514.669 0 1.238.14 1.717.42q.72.421 1.085 1.201.372.779.37 1.87v8.907h3.192v-9.355c0-1.138-.226-2.149-.674-3.025Z"/><path fill="url(#a)" d="M20 21H0V1h20L9.793 10.855z"/><defs><radialGradient id="a" cx="0" cy="0" r="1" gradientTransform="translate(19.335 1.822)scale(22.9097)" gradientUnits="userSpaceOnUse"><stop offset=".003" stop-color="#EF4857"/><stop offset=".469" stop-color="#D211EC"/><stop offset="1" stop-color="#7F52FF"/></radialGradient></defs></svg>