<svg xmlns="http://www.w3.org/2000/svg" xml:space="preserve" style="fill-rule:evenodd;clip-rule:evenodd;stroke-linejoin:round;stroke-miterlimit:2" viewBox="0 0 1643 1034"><path d="M0 637.5h651.281L1288.687 0H-.003v637.5" style="fill:url(#a);fill-rule:nonzero"/><path d="M764.781 119.875H637.906V421.5L527.094 119.781H417.219l-94.594 252.25C312.5 308.437 246.875 286.469 195 270c-34.188-10.969-70.469-27.125-70-45 .281-14.625 19.469-28.125 57.437-26.188 25.532 1.344 48.032 3.407 92.844 25l44.063-76.718c-41.032-20.781-97.469-33.938-143.813-34h-.281c-54 0-99 17.5-126.875 46.344a107 107 0 0 0-30.344 74c-.719 38.906 13.563 66.562 43.563 88.437 25.312 18.563 57.687 30.594 86.25 39.438 35.218 10.906 63.968 20.406 63.625 40.625a29.92 29.92 0 0 1-8.344 19.937c-8.781 9.063-22.281 12.5-40.906 12.813-35.907.75-62.5-4.875-105.032-29.969l-39.156 77.843a293.05 293.05 0 0 0 143.75 38.188h6.594c44.5-.781 80.437-13.469 109.125-36.594 1.656-1.281 3.125-2.625 4.656-4l-12.875 33.906h115.094l19.344-58.812a210.8 210.8 0 0 0 67.75 10.719 213.6 213.6 0 0 0 66.125-10.156l18.75 58.25h187.937V392.188h40.969c99.094 0 157.687-50.469 157.687-135 0-94.094-56.937-137.313-178.156-137.313m-293.187 258.25A115.4 115.4 0 0 1 430.969 371l40.218-126.844h.688l39.531 127.219a120.3 120.3 0 0 1-39.812 6.75m300.625-72.906h-27.938V202.844h27.938c37.281 0 67 12.5 67 50.437 0 39.375-29.719 51.781-67 51.781" style="fill:#fff;fill-rule:nonzero"/><path d="M292.417 957.483H155.686l-23.022 75.806H16.99l137.292-395.593h141.504l137.012 395.593H315.44zm-26.111-86.474-29.199-96.582q-9.827-31.165-13.196-47.168-3.088 14.318-12.634 47.168l-29.199 96.582zM472.947 637.696h188.952q74.964 0 111.744 24.847t36.779 75.104q0 37.06-17.547 58.258t-50.397 29.901q38.464 5.896 60.925 28.919 22.461 23.022 22.461 64.575 0 57.274-43.097 85.632-43.097 28.357-117.218 28.357H472.947zm169.58 150.769q26.391 0 37.622-7.581 11.23-7.58 11.23-26.391 0-18.25-10.809-25.269-10.81-7.019-34.112-7.019h-58.68v66.26zm13.196 159.753q25.83 0 39.587-8.563t13.757-31.024q0-17.969-11.37-28.357-11.371-10.389-35.236-10.388h-74.683v78.332zM1106.07 957.483H969.339l-23.023 75.806H830.642l137.293-395.593h141.504l137.011 395.593h-117.358zm-26.111-86.474-29.2-96.582q-9.826-31.165-13.195-47.168-3.089 14.318-12.635 47.168l-29.199 96.582zM1284.07 637.696h201.868q53.064 0 88.019 16.986 34.954 16.986 51.66 47.589t16.705 72.156q0 37.622-16.143 69.769t-50.116 51.941-84.79 19.794h-92.09v117.358H1284.07zm192.041 185.583q24.707 0 37.763-13.336t13.055-34.393q0-21.339-13.476-32.99-13.477-11.65-39.588-11.651h-74.682v92.37z" style="fill-rule:nonzero"/><defs><linearGradient id="a" x1="0" x2="1" y1="0" y2="0" gradientTransform="matrix(0 637.5 -637.5 0 644.344 0)" gradientUnits="userSpaceOnUse"><stop offset="0" style="stop-color:#00b8f1;stop-opacity:1"/><stop offset=".02" style="stop-color:#01b6f0;stop-opacity:1"/><stop offset=".31" style="stop-color:#0d90d9;stop-opacity:1"/><stop offset=".58" style="stop-color:#1775c8;stop-opacity:1"/><stop offset=".82" style="stop-color:#1c65bf;stop-opacity:1"/><stop offset="1" style="stop-color:#1e5fbb;stop-opacity:1"/></linearGradient></defs></svg>