<?xml version="1.0" encoding="UTF-8" standalone="no"?><!DOCTYPE svg PUBLIC "-//W3C//DTD SVG 1.1//EN" "http://www.w3.org/Graphics/SVG/1.1/DTD/svg11.dtd"><svg width="100%" height="100%" viewBox="0 0 1643 1034" version="1.1" xmlns="http://www.w3.org/2000/svg" xmlns:xlink="http://www.w3.org/1999/xlink" xml:space="preserve" xmlns:serif="http://www.serif.com/" style="fill-rule:evenodd;clip-rule:evenodd;stroke-linejoin:round;stroke-miterlimit:2;"><g><path d="M0,637.5l651.281,0l637.406,-637.5l-1288.69,0l0,637.5" style="fill:url(#_Linear1);fill-rule:nonzero;"/><path d="M764.781,119.875l-126.875,0l0,301.625l-110.812,-301.719l-109.875,0l-94.594,252.25c-10.125,-63.594 -75.75,-85.562 -127.625,-102.031c-34.188,-10.969 -70.469,-27.125 -70,-45c0.281,-14.625 19.469,-28.125 57.437,-26.188c25.532,1.344 48.032,3.407 92.844,25l44.063,-76.718c-41.032,-20.781 -97.469,-33.938 -143.813,-34l-0.281,-0c-54,-0 -99,17.5 -126.875,46.344c-19.296,19.808 -30.178,46.347 -30.344,74c-0.719,38.906 13.563,66.562 43.563,88.437c25.312,18.563 57.687,30.594 86.25,39.438c35.218,10.906 63.968,20.406 63.625,40.625c-0.199,7.451 -3.176,14.565 -8.344,19.937c-8.781,9.063 -22.281,12.5 -40.906,12.813c-35.907,0.75 -62.5,-4.875 -105.032,-29.969l-39.156,77.843c43.832,24.879 93.35,38.034 143.75,38.188l6.594,0c44.5,-0.781 80.437,-13.469 109.125,-36.594c1.656,-1.281 3.125,-2.625 4.656,-4l-12.875,33.906l115.094,0l19.344,-58.812c21.846,7.248 44.733,10.868 67.75,10.719c22.438,0.11 44.754,-3.318 66.125,-10.156l18.75,58.25l187.937,-0l0,-121.875l40.969,-0c99.094,-0 157.687,-50.469 157.687,-135c0,-94.094 -56.937,-137.313 -178.156,-137.313Zm-293.187,258.25c-13.86,0.084 -27.622,-2.33 -40.625,-7.125l40.218,-126.844l0.688,0l39.531,127.219c-12.795,4.477 -26.256,6.759 -39.812,6.75Zm300.625,-72.906l-27.938,-0l0,-102.375l27.938,-0c37.281,-0 67,12.5 67,50.437c-0,39.375 -29.719,51.781 -67,51.781" style="fill:#fff;fill-rule:nonzero;"/></g><path d="M292.417,957.483l-136.731,0l-23.022,75.806l-115.674,0l137.292,-395.593l141.504,-0l137.012,395.593l-117.358,0l-23.023,-75.806Zm-26.111,-86.474l-29.199,-96.582c-6.551,-20.777 -10.95,-36.499 -13.196,-47.168c-2.059,9.546 -6.27,25.268 -12.634,47.168l-29.199,96.582l84.228,-0Z" style="fill-rule:nonzero;"/><path d="M472.947,637.696l188.952,-0c49.976,-0 87.224,8.282 111.744,24.847c24.52,16.565 36.779,41.6 36.779,75.104c0,24.707 -5.849,44.126 -17.547,58.258c-11.699,14.132 -28.497,24.099 -50.397,29.901c25.643,3.931 45.951,13.57 60.925,28.919c14.974,15.348 22.461,36.873 22.461,64.575c0,38.183 -14.365,66.727 -43.097,85.632c-28.731,18.905 -67.804,28.357 -117.218,28.357l-192.602,0l-0,-395.593Zm169.58,150.769c17.594,-0 30.135,-2.527 37.622,-7.581c7.487,-5.053 11.23,-13.851 11.23,-26.391c0,-12.167 -3.603,-20.59 -10.809,-25.269c-7.206,-4.679 -18.577,-7.019 -34.112,-7.019l-58.68,0l0,66.26l54.749,-0Zm13.196,159.753c17.22,0 30.416,-2.854 39.587,-8.563c9.172,-5.709 13.757,-16.05 13.757,-31.024c0,-11.979 -3.79,-21.432 -11.37,-28.357c-7.581,-6.926 -19.326,-10.388 -35.236,-10.388l-74.683,-0l0,78.332l67.945,0Z" style="fill-rule:nonzero;"/><path d="M1106.07,957.483l-136.731,0l-23.023,75.806l-115.674,0l137.293,-395.593l141.504,-0l137.011,395.593l-117.358,0l-23.022,-75.806Zm-26.111,-86.474l-29.2,-96.582c-6.551,-20.777 -10.949,-36.499 -13.195,-47.168c-2.059,9.546 -6.271,25.268 -12.635,47.168l-29.199,96.582l84.229,-0Z" style="fill-rule:nonzero;"/><path d="M1284.07,637.696l201.868,-0c35.376,-0 64.716,5.662 88.019,16.986c23.303,11.324 40.523,27.187 51.66,47.589c11.137,20.402 16.705,44.454 16.705,72.156c0,25.081 -5.381,48.338 -16.143,69.769c-10.763,21.431 -27.468,38.745 -50.116,51.941c-22.648,13.196 -50.912,19.794 -84.79,19.794l-92.09,-0l-0,117.358l-115.113,0l0,-395.593Zm192.041,185.583c16.472,0 29.059,-4.445 37.763,-13.336c8.704,-8.891 13.055,-20.355 13.055,-34.393c0,-14.226 -4.492,-25.222 -13.476,-32.99c-8.985,-7.767 -22.18,-11.651 -39.588,-11.651l-74.682,-0l-0,92.37l76.928,0Z" style="fill-rule:nonzero;"/><defs><linearGradient id="_Linear1" x1="0" y1="0" x2="1" y2="0" gradientUnits="userSpaceOnUse" gradientTransform="matrix(3.90356e-14,637.5,-637.5,3.90356e-14,644.344,0)"><stop offset="0" style="stop-color:#00b8f1;stop-opacity:1"/><stop offset="0.02" style="stop-color:#01b6f0;stop-opacity:1"/><stop offset="0.31" style="stop-color:#0d90d9;stop-opacity:1"/><stop offset="0.58" style="stop-color:#1775c8;stop-opacity:1"/><stop offset="0.82" style="stop-color:#1c65bf;stop-opacity:1"/><stop offset="1" style="stop-color:#1e5fbb;stop-opacity:1"/></linearGradient></defs></svg>