<svg xmlns="http://www.w3.org/2000/svg" width="780" height="200"><defs><linearGradient id="a" x1="58.888%" x2="40.569%" y1="42.016%" y2="7.787%"><stop offset="0%" stop-color="#D1D2D4"/><stop offset="100%" stop-color="#D1D2D4" stop-opacity="0"/></linearGradient><linearGradient id="b" x1="50%" x2="50%" y1="0%" y2="100%"><stop offset="0%" stop-color="#4299E1"/><stop offset="100%" stop-color="#2B6CB0"/></linearGradient></defs><g fill="none" fill-rule="evenodd"><path fill="#FFF" fill-rule="nonzero" stroke="#000" stroke-width="2.787" d="M99.456 2.787a81.5 81.5 0 0 0-23.552 5.274 60.8 60.8 0 0 0-25.31 21.095 65 65 0 0 0-4.57 7.734l-.702 1.407h-1.055a27.4 27.4 0 0 1-13.358-3.164l-2.11-.704-4.569-2.812-1.055-.352a27.8 27.8 0 0 0-6.679-2.46q-.693-.214-1.406-.352c-1.67-.068-3.337.17-4.921.703l-1.055.703-.351.351q-.915.468-1.758 1.055l-.351.352-1.758 2.11a11.96 11.96 0 0 0-2.109 4.57v3.867l.352 1.055.351 1.406 2.11 2.461c.434.225.916.345 1.405.352h.352c1.757-.352 2.812-1.055 3.515-1.758l.703-1.055.703-1.758q.288-.569.703-1.054c.21-.16.449-.28.703-.352h.703l2.11.352a11.95 11.95 0 0 1 4.92 3.164l1.407 1.406.351.703q.775 1.19 1.407 2.461l3.163 5.977a83 83 0 0 0 3.867 6.68l3.515 3.516.703.703q1.011.769 2.11 1.407l.703.351c2.109 1.055 4.57 2.11 7.733 2.461h2.812a16.9 16.9 0 0 0 4.922-1.406 13.7 13.7 0 0 0 4.921-3.867l1.406-1.758.352-.703c.244 1.43.597 2.84 1.054 4.219l1.758 4.219.703 1.406.703 1.406a71.7 71.7 0 0 1-17.576 1.407q-3.872-.054-7.734-.352h-2.109q-3.174-.66-6.327-1.406l-.352-.352h-1.055a4.2 4.2 0 0 0-1.406 0c-.4.151-.76.392-1.054.703l-.703.703-.352.704a7.4 7.4 0 0 0-.351 2.11 14.8 14.8 0 0 0 0 3.163v.703c.8 1.94 1.74 3.82 2.812 5.626a28.12 28.12 0 0 0 11.6 10.899l7.03 2.46 1.055.352 2.461.704 2.46.351 4.57 1.055 2.461.703a9.8 9.8 0 0 1-1.757 2.461c-.543.52-1.132.99-1.758 1.407a8.8 8.8 0 0 1-3.867 1.406 6.7 6.7 0 0 1-1.758 0l-1.054-.352-1.406-.351h-.352v-.352a42.9 42.9 0 0 0-24.958.703l-3.164 1.055a41 41 0 0 0-5.976 2.813l-.703.351a37 37 0 0 0-4.57 3.516l-.703.703-.351.352-.703.703-.352.703-.703.352-1.054 1.406-2.11 3.164a39.4 39.4 0 0 1 7.031-3.867 29.5 29.5 0 0 1 12.655-1.758l-3.867 3.516c-3.164 3.164-3.867 6.328-4.218 9.141v8.086l-.352 2.813v.703l-.351.352v.351l-1.055 2.11v.703l-.351.352-.352.351a17.2 17.2 0 0 1-2.812 3.164c1.157.235 2.335.353 3.515.352a10.5 10.5 0 0 0 3.164-.703 8 8 0 0 0 2.11-1.055l2.46-2.813.351-.703 2.461-4.57.703-1.055 1.406-2.813.352-.703 1.406-1.758.351-.351a12.7 12.7 0 0 1 3.516-2.461c.773-.452 1.6-.806 2.46-1.055.252.916.37 1.863.352 2.813l-.352 1.757-.351.352a9.1 9.1 0 0 1-1.055 2.11l-.351.703-1.055 1.054-.351.352-.704.352 1.407.351q.527.015 1.054 0h1.406l.352-.351h1.406l.703-.352h.351c-9.842 8.086 3.867 15.118 1.055 25.314 9.843.352 5.624-19.337 20.037-10.196-1.758 10.196 12.655 14.063 2.11 22.501 9.842 2.813 16.52-.351 20.036-9.844-3.867 13.36 15.467 33.049 22.146 29.533-4.218-7.735-4.921-13.712-3.164-19.337 5.625 5.625 13.358 9.493 10.195 17.227 8.788-4.219 1.054-9.492 8.085-16.172.351 8.79 8.085 15.118 15.818 17.579-9.49-18.283-5.273-35.862 6.328-48.87l1.054-.703 1.055-.704 1.055-.703 1.054-.703.703-.703 1.055-.703 1.054-.703 1.758-1.758 1.055-.703.703-.704 1.054-1.054.703-.704.703-1.054 1.055-.703.703-1.055.703-.703v-.352l1.055-.703.703-1.055 2.109-3.164.703-1.055a64 64 0 0 0 1.406-2.11l.351-1.054a65 65 0 0 0 3.867-8.086h.352l.351-1.407q.375-1.224.703-2.46l.703-1.407.352-1.407.703-2.46.351-1.407.352-2.813a80 80 0 0 0 1.406-5.273l.352-1.758v-.352c.48-2.677.832-5.375 1.054-8.086a94 94 0 0 0-.351-21.095v-.352c-.703-8.438-3.164-17.227-7.734-25.665a72 72 0 0 0-1.758-3.868h-.351l-1.758-3.515h-.351v-.352l-1.055-1.406-.351-.352-.352-.703-.351-.352-.352-.351-.351-.352v-.351l-.703-1.055-1.407-1.758-.703-.703-.351-.352-.352-.351-.703-1.055-.703-.352-.351-.351a61 61 0 0 0-2.11-2.11l-.703-.703h-.351l-1.406-1.406-.352-.352-.351-.352-.352-.351-.703-.352h-.351l-.703-.703-.703-.703h-.352a62 62 0 0 0-1.758-1.055l-.351-.351-.703-.352v-.352l-.703-.351h-.352l-.703-.703h-.351l-.703-.352-.352-.351-.703-.352h-.351q-.87-.54-1.758-1.055h-.352l-1.054-.703h-.352l-.703-.352h-.351l-.703-.351-.352-.352-1.054-.351-1.055-.352-1.406-.351v-.352l-1.406-.352a74 74 0 0 0-2.46-.703 77 77 0 0 0-2.462-.703l-2.812-.352v-.351h-1.406l-.351-.352-2.461-.351h-1.406l-2.812-.352h-.352l-1.406-.351h-1.406a103 103 0 0 0-4.921-.352h-1.407Z"/><path fill="url(#a)" fill-rule="nonzero" d="M96.67 0a81.5 81.5 0 0 0-23.553 5.274 60.8 60.8 0 0 0-25.31 21.095 65 65 0 0 0-4.57 7.734l-.702 1.407H41.48a27.4 27.4 0 0 1-13.358-3.164l-2.11-.704-4.569-2.812-1.055-.352a27.8 27.8 0 0 0-6.679-2.46q-.693-.214-1.406-.352c-1.67-.068-3.337.17-4.921.703l-1.055.703-.351.351q-.915.468-1.758 1.055l-.351.352-1.758 2.11A11.96 11.96 0 0 0 0 35.51v3.867l.352 1.055.351 1.406 2.11 2.461c.434.225.916.345 1.405.352h.352c1.757-.352 2.812-1.055 3.515-1.758l.703-1.055.703-1.758q.288-.569.703-1.054c.21-.16.449-.28.703-.352h.703l2.11.352a11.95 11.95 0 0 1 4.92 3.164l1.407 1.406.351.703q.775 1.19 1.407 2.461l3.163 5.977a82 82 0 0 0 3.867 6.68l3.515 3.516.703.703q1.012.769 2.11 1.407l.703.351c2.109 1.055 4.57 2.11 7.733 2.461h2.812a16.9 16.9 0 0 0 4.922-1.406 13.7 13.7 0 0 0 4.921-3.867l1.406-1.758.352-.703c.244 1.43.597 2.84 1.054 4.219l1.758 4.219.703 1.406.703 1.406a71.7 71.7 0 0 1-17.576 1.407q-3.872-.054-7.734-.352h-2.109q-3.174-.66-6.327-1.406l-.352-.352h-1.055a4.2 4.2 0 0 0-1.406 0c-.4.151-.76.392-1.054.703l-.703.703-.352.704a7.4 7.4 0 0 0-.351 2.11 14.8 14.8 0 0 0 0 3.163v.703c.8 1.94 1.74 3.82 2.812 5.626a28.12 28.12 0 0 0 11.6 10.899l7.03 2.46 1.055.352 2.461.704 2.46.351 4.57 1.055 2.461.703a9.8 9.8 0 0 1-1.757 2.461c-.543.52-1.132.99-1.758 1.407a8.8 8.8 0 0 1-3.867 1.406 6.7 6.7 0 0 1-1.758 0l-1.054-.352-1.406-.351h-.352v-.352a42.9 42.9 0 0 0-24.958.703l-3.164 1.055a41 41 0 0 0-5.976 2.813l-.703.351a37 37 0 0 0-4.57 3.516l-.703.703-.351.352-.703.703-.352.703-.703.352-1.054 1.406-2.11 3.164a39.4 39.4 0 0 1 7.031-3.867 29.5 29.5 0 0 1 12.655-1.758l-3.867 3.516c-3.164 3.164-3.867 6.328-4.218 9.141v8.086l-.352 2.813v.703l-.351.352v.351l-1.055 2.11v.703l-.351.352-.352.351a17.2 17.2 0 0 1-2.812 3.164c1.157.235 2.335.353 3.515.352a10.5 10.5 0 0 0 3.164-.703 8 8 0 0 0 2.11-1.055l2.46-2.813.351-.703 2.461-4.57.703-1.055 1.406-2.813.352-.703 1.406-1.758.351-.351a12.7 12.7 0 0 1 3.516-2.461c.773-.452 1.6-.806 2.46-1.055.252.916.37 1.863.352 2.813l-.352 1.757-.351.352a9.1 9.1 0 0 1-1.055 2.11l-.351.703-1.055 1.054-.351.352-.704.352 1.407.351q.527.015 1.054 0h1.406l.352-.351h1.406l.703-.352h.351c-9.842 8.086 3.867 15.118 1.055 25.314 9.843.352 5.624-19.337 20.037-10.196-1.758 10.196 12.655 14.063 2.11 22.501 9.842 2.813 16.52-.351 20.036-9.844-3.867 13.36 15.467 33.049 22.146 29.533-4.218-7.735-4.921-13.712-3.164-19.337 5.625 5.625 13.358 9.493 10.195 17.227 8.788-4.219 1.054-9.492 8.085-16.172.351 8.79 8.085 15.118 15.818 17.579-10.194-18.283-6.679-35.862 6.328-48.87l1.054-.703 1.055-.704 1.055-.703 1.054-.703.703-.703 1.055-.703 1.054-.703 1.758-1.758 1.055-.703.703-.704 1.054-1.054.703-.704.703-1.054 1.055-.703.703-1.055.703-.703v-.352l1.055-.703.703-1.055 2.109-3.164.703-1.055a64 64 0 0 0 1.406-2.11l.351-1.054a65 65 0 0 0 3.867-8.086h.352l.351-1.407q.375-1.224.703-2.46l.703-1.407.352-1.407.703-2.46.351-1.407v-1.055c13.358-6.68 22.147-16.876 21.443-35.158.352-3.164-2.46-8.438-6.327-8.438-1.406 0-2.812.352-3.867 2.11l-8.085 6.328v1.406l-.351-4.57v-.352c-.703-8.438-3.164-17.227-7.734-25.665a72 72 0 0 0-1.758-3.868h-.351l-1.758-3.515h-.351v-.352l-1.055-1.406-.351-.352-.352-.703-.351-.352-.352-.351-.351-.352v-.351l-.703-1.055-1.407-1.758-.703-.703-.351-.352-.352-.351-.703-1.055-.703-.352-.351-.351a61 61 0 0 0-2.11-2.11l-.703-.703h-.351l-1.406-1.406-.352-.352-.351-.352-.352-.351-.703-.352h-.351l-.703-.703-.703-.703h-.352a62 62 0 0 0-1.758-1.055l-.351-.351-.703-.352v-.352l-.703-.351h-.352l-.703-.703h-.351l-.703-.352-.352-.351-.703-.352h-.351q-.87-.54-1.758-1.055h-.352l-1.054-.703h-.352l-.703-.352h-.351l-.703-.351-.352-.352-1.054-.351-1.055-.352-1.406-.351v-.352l-1.406-.352a74 74 0 0 0-2.46-.703 77 77 0 0 0-2.462-.703l-2.812-.352v-.351h-1.406l-.351-.352-2.461-.351h-1.406L106.16.703h-.352l-1.406-.351h-1.406A103 103 0 0 0 98.076 0zm69.953 96.685-.352 1.758-.351 1.406q.384-1.575.703-3.164" transform="translate(2.787 2.787)"/><path fill="url(#b)" fill-rule="nonzero" stroke="#025" stroke-linecap="round" stroke-linejoin="round" stroke-width="2.787" d="M132.174 82.622C113.19 81.567 118.816 59.066 99.13 51.33c-17.928 11.602-17.225 62.933 33.395 35.861 40.074 20.744 39.02-24.259 27.419-35.158-14.061 5.626-12.655 28.478-27.77 30.588" transform="translate(2.787 2.787)"/><path stroke="#000" stroke-linecap="round" stroke-linejoin="round" stroke-width="2.787" d="M99.456 2.787a81.5 81.5 0 0 0-23.552 5.274 60.8 60.8 0 0 0-25.31 21.095 65 65 0 0 0-4.57 7.734l-.702 1.407h-1.055a27.4 27.4 0 0 1-13.358-3.164l-2.11-.704-4.569-2.812-1.055-.352a27.8 27.8 0 0 0-6.679-2.46q-.693-.214-1.406-.352c-1.67-.068-3.337.17-4.921.703l-1.055.703-.351.351q-.915.468-1.758 1.055l-.351.352-1.758 2.11a11.96 11.96 0 0 0-2.109 4.57v3.867l.352 1.055.351 1.406 2.11 2.461c.434.225.916.345 1.405.352h.352c1.757-.352 2.812-1.055 3.515-1.758l.703-1.055.703-1.758q.288-.569.703-1.054c.21-.16.449-.28.703-.352h.703l2.11.352a11.95 11.95 0 0 1 4.92 3.164l1.407 1.406.351.703q.775 1.19 1.407 2.461l3.163 5.977a83 83 0 0 0 3.867 6.68l3.515 3.516.703.703q1.011.769 2.11 1.407l.703.351c2.109 1.055 4.57 2.11 7.733 2.461h2.812a16.9 16.9 0 0 0 4.922-1.406 13.7 13.7 0 0 0 4.921-3.867l1.406-1.758.352-.703c.244 1.43.597 2.84 1.054 4.219l1.758 4.219.703 1.406.703 1.406a71.7 71.7 0 0 1-17.576 1.407q-3.872-.054-7.734-.352h-2.109q-3.174-.66-6.327-1.406l-.352-.352h-1.055a4.2 4.2 0 0 0-1.406 0c-.4.151-.76.392-1.054.703l-.703.703-.352.704a7.4 7.4 0 0 0-.351 2.11 14.8 14.8 0 0 0 0 3.163v.703c.8 1.94 1.74 3.82 2.812 5.626a28.12 28.12 0 0 0 11.6 10.899l7.03 2.46 1.055.352 2.461.704 2.46.351 4.57 1.055 2.461.703a9.8 9.8 0 0 1-1.757 2.461c-.543.52-1.132.99-1.758 1.407a8.8 8.8 0 0 1-3.867 1.406 6.7 6.7 0 0 1-1.758 0l-1.054-.352-1.406-.351h-.352v-.352a42.9 42.9 0 0 0-24.958.703l-3.164 1.055a41 41 0 0 0-5.976 2.813l-.703.351a37 37 0 0 0-4.57 3.516l-.703.703-.351.352-.703.703-.352.703-.703.352-1.054 1.406-2.11 3.164a39.4 39.4 0 0 1 7.031-3.867 29.5 29.5 0 0 1 12.655-1.758l-3.867 3.516c-3.164 3.164-3.867 6.328-4.218 9.141v8.086l-.352 2.813v.703l-.351.352v.351l-1.055 2.11v.703l-.351.352-.352.351a17.2 17.2 0 0 1-2.812 3.164c1.157.235 2.335.353 3.515.352a10.5 10.5 0 0 0 3.164-.703 8 8 0 0 0 2.11-1.055l2.46-2.813.351-.703 2.461-4.57.703-1.055 1.406-2.813.352-.703 1.406-1.758.351-.351a12.7 12.7 0 0 1 3.516-2.461c.773-.452 1.6-.806 2.46-1.055.252.916.37 1.863.352 2.813l-.352 1.757-.351.352a9.1 9.1 0 0 1-1.055 2.11l-.351.703-1.055 1.054-.351.352-.704.352 1.407.351q.527.015 1.054 0h1.406l.352-.351h1.406l.703-.352h.351c-9.842 8.086 3.867 15.118 1.055 25.314 9.843.352 5.624-19.337 20.037-10.196-1.758 10.196 12.655 14.063 2.11 22.501 9.842 2.813 16.52-.351 20.036-9.844-3.867 13.36 15.467 33.049 22.146 29.533-4.218-7.735-4.921-13.712-3.164-19.337 5.625 5.625 13.358 9.493 10.195 17.227 8.788-4.219 1.054-9.492 8.085-16.172.351 8.79 8.085 15.118 15.818 17.579-11.6-20.392-7.03-40.08 10.546-51.683l.703-.703 1.055-.703 1.054-.703 1.758-1.758 1.055-.703.703-.704 1.054-1.054.703-.704.703-1.054 1.055-.703.703-1.055.703-.703v-.352l1.055-.703.703-1.055 2.109-3.164.703-1.055a64 64 0 0 0 1.406-2.11l.351-1.054a65 65 0 0 0 3.867-8.086h.352l.351-1.407q.375-1.224.703-2.46l.703-1.407.352-1.407.703-2.46.351-1.407.352-2.813a80 80 0 0 0 1.406-5.273l.352-1.758v-.352c.48-2.677.832-5.375 1.054-8.086a94 94 0 0 0-.351-21.095v-.352c-.703-8.438-3.164-17.227-7.734-25.665a72 72 0 0 0-1.758-3.868h-.351l-1.758-3.515h-.351v-.352l-1.055-1.406-.351-.352-.352-.703-.351-.352-.352-.351-.351-.352v-.351l-.703-1.055-1.407-1.758-.703-.703-.351-.352-.352-.351-.703-1.055-.703-.352-.351-.351a61 61 0 0 0-2.11-2.11l-.703-.703h-.351l-1.406-1.406-.352-.352-.351-.352-.352-.351-.703-.352h-.351l-.703-.703-.703-.703h-.352a62 62 0 0 0-1.758-1.055l-.351-.351-.703-.352v-.352l-.703-.351h-.352l-.703-.703h-.351l-.703-.352-.352-.351-.703-.352h-.351q-.87-.54-1.758-1.055h-.352l-1.054-.703h-.352l-.703-.352h-.351l-.703-.351-.352-.352-1.054-.351-1.055-.352-1.406-.351v-.352l-1.406-.352a74 74 0 0 0-2.46-.703 77 77 0 0 0-2.462-.703l-2.812-.352v-.351h-1.406l-.351-.352-2.461-.351h-1.406l-2.812-.352h-.352l-1.406-.351h-1.406a103 103 0 0 0-4.921-.352z"/><path stroke="#000" stroke-linecap="round" stroke-linejoin="round" stroke-width="2.787" d="M183.471 60.798c-1.406 0-2.812.352-3.867 2.11l-8.085 6.328a91.4 91.4 0 0 1-3.164 35.158c13.358-6.68 22.147-16.876 21.443-35.158.352-3.164-2.46-8.438-6.327-8.438M55.867 56.931c.703 2.11 2.11 3.867 4.922 5.625-1.406-5.977-.703-13.712 3.515-18.634m3.867 25.314c.351 2.11-.703 3.867-2.11 4.922 2.11 1.055 4.219 1.055 5.976-.703M37.588 43.22c2.46-2.461 4.921-3.516 7.382-4.57-1.758 3.515-2.11 6.328-1.055 10.547m1.407 65.746c2.109-3.516 5.272-5.274 9.14-5.977-2.813 3.516-3.165 7.383-1.758 11.602m-30.583-2.11c4.921-1.406 9.491-.703 13.358.704m-3.164 11.25c2.46-.703 4.921-1.054 7.734 0"/><path fill="#FFF" fill-rule="nonzero" d="M255.802 149.26q3.24 0 6.21-.54t4.59-.9v-42.66h36.9q3.78 0 6.03-2.43t2.25-7.29q0-2.88-.81-5.22t-1.71-3.78h-43.02V57.82h43.38q3.78 0 6.03-2.52t2.25-7.38q0-2.88-.81-5.31t-1.71-3.87h-59.76q-5.76 0-9.09 3.33t-3.33 9.09v87.12q0 5.94 2.88 8.46t9.72 2.52m98.95 1.44q9.9 0 17.64-1.8t12.78-4.86q3.24-1.98 5.4-4.5t2.16-6.84V91.12q0-15.84-10.53-23.4t-28.17-7.56q-6.84 0-13.5 1.08t-11.88 3.24q-3.78 1.8-5.49 4.05t-1.71 5.85q0 2.88 1.35 5.31t3.33 3.87q5.22-2.52 11.88-4.23t13.68-1.71q9 0 13.95 3.24t4.95 10.08v3.24l-24.66 2.52q-14.58 1.44-22.23 7.83t-7.65 18.45q0 13.86 10.35 20.79t28.35 6.93m0-17.28q-8.64 0-12.51-2.88t-3.87-8.1 3.78-7.65 10.98-3.15l17.46-1.62V130q-1.98 1.44-6.3 2.43t-9.54.99m120.009 15.84q3.24 0 6.03-.54t4.23-.9V92.38q0-15.84-10.17-24.03t-28.71-8.19q-10.44 0-19.08 2.43t-13.86 6.03q-3.78 2.52-5.58 5.22t-1.8 7.02v57.78q0 5.94 3.06 8.28t9.36 2.34q3.42 0 6.12-.54t4.32-.9V82.66q3.24-1.98 7.65-3.24t9.63-1.26q7.56 0 11.97 3.6t4.41 11.34v45.54q0 5.94 2.97 8.28t9.45 2.34m54.849 1.26q10.8 0 15.66-3.51t4.86-8.91q0-2.7-.99-4.77t-2.43-3.51q-2.52 1.08-5.67 1.8t-6.21.72q-6.3 0-9.81-2.52t-3.51-8.28V82.3h20.88q3.6 0 5.76-2.16t2.16-6.84q0-2.7-.72-5.04t-1.62-3.78h-26.46V49.54q0-5.94-2.97-8.28t-9.27-2.34q-3.24 0-6.03.54t-4.23.9v82.62q0 14.76 8.19 21.15t22.41 6.39m67.45.18q10.08 0 18.18-3.15t13.86-9.09 8.91-14.31 3.15-18.81q0-10.26-3.15-18.63t-9-14.31-13.95-9.09-18-3.15-18 3.15-13.95 9-9 14.22-3.15 18.81q0 10.62 3.15 18.99t8.91 14.22 13.86 9 18.18 3.15m0-18.18q-9.9 0-15.39-7.02t-5.49-20.16q0-12.96 5.58-20.07t15.3-7.11 15.3 7.11 5.58 20.07-5.49 20.07-15.39 7.11m170.048 16.74q3.24 0 6.03-.54t4.23-.9V90.94q0-8.1-2.7-13.95t-7.29-9.63-10.89-5.49-13.32-1.71q-9.18 0-15.93 2.52t-11.97 6.3q-10.26-8.82-26.64-8.82-8.82 0-17.1 2.43t-13.68 6.03q-3.78 2.52-5.58 5.31t-1.8 6.93v57.78q0 5.94 3.06 8.28t9.36 2.34q3.42 0 6.12-.54t4.32-.9V82.48q2.52-1.44 6.3-2.88t8.28-1.44q6.48 0 10.62 3.24t4.14 10.44v46.8q0 5.94 2.97 8.28t9.45 2.34q3.24 0 6.03-.54t4.23-.9V89.14q0-2.52-.54-5.04 3.06-2.7 7.11-4.32a22.3 22.3 0 0 1 8.37-1.62q6.48 0 10.44 3.24t3.96 10.44v46.8q0 5.94 2.97 8.28t9.45 2.34"/></g></svg>