<svg xmlns="http://www.w3.org/2000/svg" xml:space="preserve" width="179.04" height="280.016"><path d="m2850.12 3117.98 724.92-92.78 41.03 901.91 147.25 814.27-336.79 15.25-150.2 77.53-688.06 29.03-43.91-812.76-123.84-928.33z" style="fill:#1e5cb3;fill-opacity:1;fill-rule:nonzero;stroke:none" transform="matrix(.13333 0 0 -.13333 -322.736 683.376)"/><path d="m2954.46 3376.17 730.48-22.83-45.65 901.69 68.48 824.64-336.7-17.12-156.94 62.77-687.68-37.09 34.24-813.23-34.24-935.92z" style="fill:#f14729;fill-opacity:1;fill-rule:nonzero;stroke:none" transform="matrix(.13333 0 0 -.13333 -322.736 683.376)"/><path d="m3205.32 3906.15-76.3-20.81 41.62 100.58 41.62 280.94-52.03 10.4 62.43 86.7 77.78 292.29-136.74-28.69s72.1 132 148.61 217.98l-100.05 76.82s-322.35-141.98-235.64-603.27l-66.63 11.66 63.9-483.56-54.02-13.87s55.34-112.94 132.84-166.48c7.04-4.86-97.11 378.04 13.88 759.55l10.4-24.27s-88.44-406.66 0-735.28c0 0 4.07-7.81 48.3-2.61 0 0 80.03 150.88 80.03 241.92" style="fill:#1e5cb3;fill-opacity:1;fill-rule:nonzero;stroke:none" transform="matrix(.13333 0 0 -.13333 -322.736 683.376)"/><path d="M2636.95 3559.86h15.66v32.65c6.91 0 13.54 0 20.18 1.06v-33.71h23.37v-6.11h-23.37v-81.25c0-4.77 0-11.94 10.09-11.94 6.9 0 10.62 4.78 14.87 9.82l4.25-2.92c-5.05-10.09-18.06-16.19-28.68-16.19-19.11 0-21.24 10.35-21.24 23.09v79.39h-15.13zm220.85-72.22c-6.11-18.85-16.73-35.31-44.34-36.37-41.16 0-53.64 34.25-53.64 52.57 0 47.25 37.97 58.67 53.11 58.67 17.25 0 41.68-7.96 41.68-28.41 0-7.17-4.51-14.07-11.95-14.07-7.16 0-12.48 4.78-12.48 12.48 0 10.35 8.5 11.68 8.5 14.6 0 7.17-16.73 10.09-22.57 10.09-25.48 0-32.13-18.58-32.13-53.36 0-15.93 3.99-28.15 5.58-31.87 3.98-8.76 12.21-14.33 26.02-15.13 15.4-.8 30.27 11.68 36.64 30.8zm61.54-32.92v6.1h20.45v170.72h-20.45v6.11h11.42c9.83 0 20.18.53 29.74 2.39v-179.22h20.44v-6.1zm181.29 1006.03s-46.8-208.69-33.33-547.04c4.04-101.49 15.14-194.78 28.69-275.68l.08-.01c8.81-71.03 14.71-96.75 37.7-182.34l-1.34-55.21s-184.06 587.69-31.8 1060.28m112.99 180.95s41.4 20.62 100.74 28.12c0 0 64.86-118.89-94.77-321.89 0 0 95.23 212.59 72.77 279.19 0 0-25.12 15.61-78.74 14.58M3194 4284.82s37.18-8.61 55.02 5.85c0 0-35.16-137.22-25.94-212.71 9.22-75.48-57.29-123.8-57.29-123.8s56.65 71.68 38.85 130.07c-12.35 40.47 1.46 144.04 17.04 176.93 0 0-14.55 2.04-27.68 23.66m-36.75-361.54s61.43 7.35 67.88 38.38c0 0 7.52-185.6-77.83-262.09 0 0 65.13 101.58 54.91 206.66z" style="fill:#fff;fill-opacity:1;fill-rule:nonzero;stroke:none" transform="matrix(.13333 0 0 -.13333 -322.736 683.376)"/><path d="M2984.45 3846.02s-19.81-22.18-79.26 26.76c0 0 18.94-124.75 136.59-181.85 0 0-80.97 61-102.78 126.89 0 0 28.61 8.43 45.45 28.2m-18.97 47.32s-80.38 204.02-63.16 479.7c0 0 18.78-49.93 79.11-67.43 0 0-28.43-5.82-45.04-3.3 0 0-42.05-116.38 29.09-408.97m337.65 948.01s-30.13 221.37-218.58-2.5c-150.06-178.26-132.17-329.6-122.97-414.04 2.35-21.6-27.92 225.51 136.49 388.12 164.4 162.62 201.54 37.86 205.06 28.42" style="fill:#fff;fill-opacity:1;fill-rule:nonzero;stroke:none" transform="matrix(.13333 0 0 -.13333 -322.736 683.376)"/><path d="M3025.53 5030.16s-147.87 42.23-194.94-447.89c0 0-36.31 151.28 57.61 365.24s137.33 82.65 137.33 82.65M2842.08 5066s-75.42-113.44-58.31-234.27c0 0-57.2 227.45 58.31 234.27m555.06-318.1s89.18 32.9-38.52-299.06c0 0 66.1 97.01 107.7 249.41 26.71 97.81-69.18 49.65-69.18 49.65m144.24 25.87s63.05-57.08 18.37-132.58c0 0 112.16 117.85-18.37 132.58" style="fill:#fff200;fill-opacity:1;fill-rule:nonzero;stroke:none" transform="matrix(.13333 0 0 -.13333 -322.736 683.376)"/><path d="M2582.03 3174.59h-15.21v78.01h20.69c16.35 0 27.01-6.52 27.01-24.21 0-16.55-9.01-24.62-24.94-24.62h-7.55zm0 41.8h3.1c9 0 13.87 1.97 13.87 12.1 0 10.04-5.8 11.49-14.28 11.49h-2.69zm108.67-2.69c0 21.83 15.82 40.97 38.59 40.97 22.75 0 38.58-19.14 38.58-40.97 0-22.35-15.83-41.18-38.58-41.18-22.77 0-38.59 18.83-38.59 41.18m15.72.62c0-11.79 9.93-26.8 22.87-26.8 12.92 0 22.85 15.01 22.85 26.8 0 12.62-9.51 25.35-22.85 25.35-13.35 0-22.87-12.73-22.87-25.35m166.52-14.9h.21l15.52 54.21h9l16.14-54.21h.21l15.3 53.18h15.94l-26.38-79.56h-11.18l-15.52 51h-.2l-14.69-51h-11.17l-24.83 79.56h15.93zm164.65 39.94v-17.18h24.21v-13.24h-24.21v-21.1h25.14v-13.25h-40.34v78.01h40.34v-13.24zm161.01-64.77h-18.41l-18.94 31.45h-.2v-31.45h-15.21v78.01h20.59c15.41 0 26.07-6.83 26.07-23.49 0-9.93-5.48-19.86-15.93-21.62zm-37.55 42.11h1.97c8.37 0 14.27 2.48 14.27 12 0 9.62-6.1 11.48-14.17 11.48h-2.07zm130.7 22.66v-17.18h24.21v-13.24h-24.21v-21.1h25.14v-13.25h-40.34v78.01h40.34v-13.24zM3400 3252.6h21.73c22.55 0 37.65-16.87 37.65-39.11 0-21.93-15.52-38.9-37.76-38.9H3400zm15.21-64.76h2.48c18.73 0 25.97 10.34 25.97 25.76 0 16.96-8.69 25.76-25.97 25.76h-2.48z" style="fill:#fff;fill-opacity:1;fill-rule:nonzero;stroke:none" transform="matrix(.13333 0 0 -.13333 -322.736 683.376)"/></svg>