<?xml version="1.0" encoding="UTF-8" standalone="no"?><!DOCTYPE svg PUBLIC "-//W3C//DTD SVG 1.1//EN" "http://www.w3.org/Graphics/SVG/1.1/DTD/svg11.dtd"><svg width="100%" height="100%" viewBox="0 0 800 800" version="1.1" xmlns="http://www.w3.org/2000/svg" xmlns:xlink="http://www.w3.org/1999/xlink" xml:space="preserve" xmlns:serif="http://www.serif.com/" style="fill-rule:evenodd;clip-rule:evenodd;stroke-linecap:round;stroke-linejoin:round;stroke-miterlimit:1.5;"><path id="logo" d="M413.599,558.981l-334.38,-208.23m115.904,55.138l-12.058,-7.506m147.725,91.993l-12.221,-7.612m-109.723,-84.367l-12.094,-7.527m147.732,92l-12.242,-7.626m-148.257,-37.202l-17.036,-10.607m152.604,95.031l-15.032,-9.361m-120.536,-44.991l-17.036,-10.614m152.604,95.03l-15.032,-9.36m-157.993,-143.243l-69.313,-43.164m200.781,125.038l-66.955,-41.698m195.01,121.441l-59.421,-36.997m-200.102,-114.601l-62.296,-38.795m193.764,120.669l-59.938,-37.322m187.993,117.065l-52.404,-32.628m-207.119,-80.876l-69.313,-43.164m200.781,125.039l-66.955,-41.699m195.01,121.442l-59.421,-37.004m122.475,-79.396l-298.021,-185.586m309.633,190.033l-298.013,-185.593m-11.62,-4.44l11.62,4.44m-103.485,28.62l-11.322,4.128m345.702,204.102l55.506,-55.704m-52.242,68.924c21.285,-21.363 42.57,-43.087 63.854,-64.477m-67.118,51.257l3.264,13.22m-337.644,-221.45l91.865,-33.06m-93.869,39.072l0,58.132m7.017,-53.764l0,49.912m62.296,-11.116l0,58.132m20.421,-30.624l0,30.065m17.036,-19.458l0,30.072m120.536,44.991l-0,30.065m15.032,-20.704l-0,30.064m-108.512,-112.427l-0,58.132m7.017,-53.764l-0,49.905m59.938,-12.575l0,58.133m68.634,-15.387l-0,58.126m7.017,-53.757l-0,49.905m52.404,-17.277l0,58.133m-259.523,-178.817c-2.088,1.169 -4.991,1.891 -8.206,1.891c-6.337,-0 -11.485,-2.825 -11.485,-6.309c-0,-3.484 5.148,-6.316 11.485,-6.316c3.215,-0 6.118,0.729 8.206,1.898m322.577,71.253l11.612,4.447m-342.395,-141.742c6.344,-0 11.492,2.832 11.492,6.316c-0,3.483 -5.148,6.309 -11.492,6.309c-6.337,-0 -11.485,-2.826 -11.485,-6.309c-0,-3.484 5.148,-6.316 11.485,-6.316m240.574,144.581c6.338,-0 11.485,2.825 11.485,6.309c0,3.484 -5.147,6.309 -11.485,6.309c-6.337,-0 -11.492,-2.825 -11.492,-6.309c0,-3.484 5.148,-6.309 11.492,-6.309m0,67.146c6.338,0 11.485,2.833 11.485,6.316c0,3.477 -5.147,6.309 -11.485,6.309c-6.337,0 -11.492,-2.832 -11.492,-6.309c0,-3.483 5.148,-6.316 11.492,-6.316m-301.681,-162.814l27.452,-15.067m241.963,182.845c8.369,-4.588 19.068,-10.487 27.437,-15.075m-163.026,-69.363l27.431,-15.082m-236.808,-172.882l-0,50.004m796.666,67.132l0,50.216m-57.276,-57.658l0,21.795m-445.823,-269.125l48.68,0m58.89,452.947l14.82,-2.797m-90.973,-482.268l467.051,280.694m-0.17,12.611l-294.381,175.531m241.906,-167.593l-182.265,108.682m-48.453,78.291l-11.188,6.677m294.381,-175.531l-203.16,121.137m-80.033,47.717l2.358,-1.402m9.892,1.501c21.468,-12.802 42.937,-25.547 64.399,-38.342m-70.892,27.402c21.341,-12.731 43.05,-25.618 64.399,-38.342m-67.812,47.767c-1.792,-3.016 -0.262,-7.244 3.413,-9.425m6.493,10.94c-3.675,2.181 -8.108,1.501 -9.906,-1.515m77.718,-46.251c1.791,3.016 0.262,7.236 -3.413,9.424m-6.493,-10.94c3.675,-2.18 8.114,-1.501 9.906,1.516m-522.501,-226.187l-61.425,-38.25m470.507,293.007l-60.116,-37.435m141.926,-21.759l-445.972,-277.735m375.71,170.667c-82.547,-51.406 -133.762,-82.965 -211.678,-131.51m279.589,93.423c-77.555,-48.213 -127.247,-78.879 -210.693,-130.845m394.877,145.247l-396.711,-247.054m157.347,207.161l-104.228,-64.909m66.594,85.549l-104.228,-64.909m-282.181,51.215l-70.743,-44.056m470.507,293.007l-70.928,-44.169m0,-4.008l-52.404,-32.635m-0,0l-7.017,-0.361l-68.634,-42.739m0,-4.008l-59.938,-37.329m-0,-0l-7.017,-0.362l-64.513,-40.176m0,-4.007l-62.296,-38.796m0,0l-7.017,-0.361m-70.913,-82.823l298.289,-163.635m-121.526,258.099l13.687,-7.513m-1.558,15.019l13.687,-7.506m109.688,84.381c4.56,-2.502 9.117,-5.008 13.673,-7.52m-1.452,15.132l13.694,-7.506m-231.207,-210.432l181.954,-99.803m64.165,162.892l37.634,-20.64m66.594,85.549l37.634,-20.64m-65.893,-41.04c-8.298,9.361 -18.955,17.66 -31.417,24.521m33.931,21.129c8.858,-9.163 20.704,-16.888 34.603,-22.531m4.497,247.761c4.652,2.818 14.862,4.121 22.169,-0.283m-22.169,26.34c4.652,2.826 14.862,4.121 22.169,-0.283m294.551,-214.199c6.274,3.718 6.146,8.816 -0.17,12.611m4.801,19.642c0,2.245 -1.607,4.496 -4.801,6.415m-787.227,-155.96c-6.274,3.718 -6.139,8.915 0.17,12.71m-4.808,19.592c-0,2.266 1.614,4.546 4.808,6.465m298.119,-202.402c4.652,-2.826 14.75,-4.178 22.057,0.233m466.881,343.415l-294.381,175.531m-429.785,-253.56l-62.891,-39.164m470.507,293.008l-59.358,-36.962m-14.82,2.797l-330.769,-205.992m0,-0l-2.669,-13.687m407.616,253.844c4.652,2.825 14.862,4.121 22.169,-0.284m299.182,-181.939c0,2.238 -1.607,4.489 -4.801,6.408m-791.865,-123.657c-0,2.265 1.614,4.545 4.808,6.464m305.894,-100.709c25.724,0 46.605,12.469 46.605,27.827c0,15.359 -20.881,27.835 -46.605,27.835c-25.724,-0 -46.605,-12.476 -46.605,-27.835c-0,-15.358 20.881,-27.827 46.605,-27.827m-34.483,46.542c-1.891,-2.67 -2.939,-5.608 -2.939,-8.695c0,-12.335 16.768,-22.347 37.422,-22.347c20.654,-0 37.422,10.012 37.422,22.347c-0,3.087 -1.041,6.025 -2.939,8.695m-70.283,-2.181c4.68,-9.163 18.948,-15.833 35.8,-15.833c16.852,0 31.127,6.67 35.8,15.833m139.752,132.558c-1.404,-2.266 -2.161,-4.875 -2.188,-7.541c0,-12.334 16.775,-22.347 37.429,-22.347c20.655,0 37.422,10.013 37.422,22.347c-0,2.783 -0.85,5.438 -2.408,7.895m-70.821,-1.388c4.68,-9.155 18.948,-15.825 35.807,-15.825c16.852,-0 31.12,6.663 35.8,15.825m-35.651,-44.891c25.717,-0 46.605,12.469 46.605,27.827c0,15.358 -20.888,27.834 -46.605,27.834c-25.724,0 -46.606,-12.469 -46.606,-27.834c0,-15.365 20.882,-27.827 46.606,-27.827m-343.005,-82.293l51.187,0m-43.143,5.014l95.406,-0m-87.355,5.013l101.155,-0m-93.111,5.013l101.162,-0m145.31,10.019l41.89,0m-272.268,0l101.191,0m-109.242,-5.013l101.177,-0m145.332,10.026l86.073,0m-316.487,0l101.219,0m137.274,5.006l130.257,0m-309.881,0l50.415,0m145.367,10.027l161.277,-0m-169.356,-5.014l161.306,0m-145.148,10.027l161.242,-0m-103.782,10.019l119.877,-0m-169.265,-5.013l161.221,-0m-59.577,10.026l75.671,0m-23.401,5.013l31.445,0" style="fill:none;stroke:#0a0b11;stroke-width:3.33px;"/></svg>