<svg xmlns="http://www.w3.org/2000/svg" width="146" height="40" fill="none"><path fill="#fff" d="M23.859 35.24c-.092-.365.09-.82-.092-1.184-.09-.365-.364-.365-.455-.638-.364-.728-.82-1.548-.82-2.459 0-.728-.273-1.456-.364-2.185v-1.093c0-.182 0-.364-.09-.546 0-.091 0-.273-.092-.273l.091-.273c0-.092.82-.092 1.093-.092.455 0 .82 0 1.275.091.91 0 1.64 0 2.55-.09 1.912-.274 2.732-1.093 3.187-1.367 1.73-1.183 2.55-3.278 2.55-3.278.273-.637.273-1.821.91-2.276.729-.638 1.913-.547 2.732-.911.455-.182.82-.364 1.366-.273.364.09 1.002.546 1.184-.091l-.273-.273c.728-.091 0-1.64-.273-2.004-.456-.455-1.093-.728-1.822-.91-.91-.274-1.73-.547-2.55-.365-1.456.274-1.365-.546-2.185-.546-1.002 0-2.823.091-3.187 1.093-.182.455-.273.455-.547.82-.182.272 0 .546-.09.91-.092.364-.274 1.639-.456 2.094-.273.729-.637 1.64-1.275 1.64-.91.09-1.639.182-2.367-.092-.456-.182-1.184-.455-1.549-.546-1.73-.729-2.003-1.457-2.003-1.457-.182-.273-.637-.82-.82-1.457-.182-.729-.546-1.275-.637-1.64-.182-.363-.455-1-.728-1.638-.365-.82-.82-1.457-1.184-1.73-.547-.456-1.002-1.184-2.095-1.002-.182 0-.91.09-1.457.546-.364.273-.455.91-.82 1.457-.181.273-.546 1.184-.819 1.912-.182.547-.273.911-.546 1.093-.182.182-.365.364-.638.273l-.546-.273c-.273-.182-.82-1.184-1.184-1.821-.273-.637-.91-1.548-1.275-2.003-.546-.729-.82-.911-1.639-.911-1.639 0-1.821.91-2.55 2.277-.364.637-.455 1.548-1.092 2.276C2.003 16.39.82 18.12 0 18.393v12.566-.09c.091-.183.091-.365.182-.456.364-.637 1.093-1.275 1.457-2.003.182-.364.455-.729.638-1.184.09-.273.182-.82.364-1.093.182-.364.546-.455.91-.546.638-.091 1.093.82 1.822 1.184.273.182 1.73.637 2.185.728.729.182 1.457.273 2.186.455.364.091.728.091 1.184.183.364 0 1.73.09 1.73.182-.638.364-1.093 1.275-1.366 2.003s-.456 1.548-.729 2.186c-.364.728-1.092 1.092-1.001 2.003 0 .364.09.728 0 1.093-.091.455-.274.728-.365 1.184-.182.546-.364 2.276-.546 2.732l1.457-.183c.182-.364.273-2.003.364-2.185a5.95 5.95 0 0 1 1.184-2.095c.547-.637.547-1.366.82-2.094.364-.82.82-1.366 1.274-2.094.82-1.275 1.367-3.006 3.006-3.37.182 0 1.183.729 1.639 1.184.546.546 1.093 1.093 1.457 1.821.637 1.366 1.275 3.37 1.457 4.371.09.638.182.638.637 1.184.182.182.547.91.729 1.184.09.273.364.91.455 1.275.091.182.364.82.546 1.366h1.366c-.546-1.548-1.001-3.096-1.183-4.645"/><path fill="url(#a)" d="M23.13 38.428c-.182-.364-.364-1.002-.455-1.275s-.547-1.002-.729-1.184c-.455-.455-.546-.546-.637-1.184-.182-1.092-.82-3.096-1.457-4.37-.364-.73-.91-1.276-1.457-1.822-.456-.455-1.457-1.184-1.64-1.184-1.73.364-2.185 2.004-3.004 3.37-.456.728-.911 1.366-1.275 2.094-.365.729-.274 1.548-.82 2.094a6 6 0 0 0-1.184 2.095c-.09.182-.182 1.821-.364 2.185l2.55-.182c2.367.182 1.639 1.093 5.373.91l5.828-.181c-.365-.547-.638-1.184-.729-1.366"/><path fill="url(#b)" d="M40.068 0H5.737C2.55 0 0 2.641 0 5.828v12.658c.82-.364 2.003-2.094 2.368-2.55.637-.728.728-1.73 1.092-2.276.729-1.366.911-2.277 2.55-2.277.82 0 1.093.182 1.64.91.364.456 1.001 1.367 1.274 1.913.364.729.91 1.64 1.184 1.821q.273.273.546.274c.274.09.456-.091.638-.274.273-.182.364-.546.546-1.092.273-.729.638-1.64.82-1.913.364-.546.455-1.184.82-1.457.546-.455 1.183-.455 1.456-.546 1.093-.182 1.548.546 2.095 1.002.364.273.82.91 1.184 1.73.273.637.637 1.275.728 1.639s.456.91.638 1.64c.182.636.637 1.092.82 1.456 0 0 .272.82 2.003 1.457.364.182 1.092.364 1.548.546.728.274 1.457.274 2.367.091.638 0 1.002-.91 1.275-1.639.182-.455.364-1.73.456-2.094.09-.364-.183-.638.09-.91.274-.365.365-.365.547-.82.273-1.002 2.185-1.093 3.187-1.093.82 0 .729.82 2.186.546.82-.182 1.639.091 2.55.365.728.182 1.456.455 1.82.91.274.273.911 1.913.274 2.004.09.09.09.182.273.273-.182.637-.82.182-1.184.09-.455-.09-.82 0-1.366.274-.82.364-2.094.364-2.732.91-.637.547-.637 1.64-.91 2.277 0 0-.82 2.095-2.55 3.279-.455.364-1.275 1.092-3.187 1.365-.82.092-1.64.183-2.55.092-.455 0-.82 0-1.275-.091-.273 0-1.093 0-1.093.09l-.09.274c0 .09 0 .273.09.273 0 .182 0 .364.091.546v1.093c0 .729.274 1.457.365 2.186 0 .82.455 1.73.82 2.458.181.273.363.273.455.638.09.364 0 .728.09 1.184a13.8 13.8 0 0 0 1.367 4.553c.82-.182 1.73-.456 2.823-.638 2.003-.273 4.826-.182 6.647-.273 4.553-.455 7.103 1.912 11.2.91V5.829C45.897 2.641 43.347 0 40.069 0"/><path fill="url(#c)" d="M10.563 32.509c.365-.729.547-1.457.729-2.186.273-.728.637-1.639 1.366-2.003-.091-.091-1.457-.182-1.73-.182-.365 0-.729-.091-1.184-.183-.729-.182-1.548-.273-2.186-.455-.455-.09-1.821-.637-2.185-.728-.729-.364-1.184-1.275-1.822-1.184-.364.091-.728.182-.91.546-.182.273-.273.82-.364 1.184-.183.364-.365.82-.638 1.184-.455.728-1.184 1.366-1.457 2.003-.09.182-.09.274-.182.456v7.831c.364.091.729.182 1.184.273 3.187.82 4.007.91 7.194.547h.273c.273-.547.455-2.186.546-2.732.091-.364.274-.729.365-1.184.09-.364 0-.729 0-1.093-.091-1.001.637-1.366 1.001-2.094"/><path fill="#111827" d="M60.557 34.876c-1.548 0-2.914-.273-4.189-.82s-2.367-1.366-3.278-2.367c-.91-1.002-1.64-2.277-2.095-3.734s-.728-3.096-.728-5.008c0-1.822.273-3.46.728-4.918a9.6 9.6 0 0 1 2.095-3.642c.91-1.002 2.003-1.73 3.278-2.277 1.275-.546 2.641-.82 4.19-.82 1.547 0 2.913.274 4.188.82 1.275.547 2.368 1.275 3.278 2.277a9.6 9.6 0 0 1 2.095 3.642 16.4 16.4 0 0 1 .728 4.918c0 1.82-.273 3.46-.728 5.008-.456 1.457-1.184 2.732-2.095 3.734-.91 1.001-2.003 1.82-3.278 2.367s-2.64.82-4.189.82m0-4.371c1.548 0 2.732-.638 3.643-2.003s1.366-3.097 1.366-5.464c0-2.277-.456-4.007-1.366-5.282s-2.095-1.912-3.643-1.912-2.732.637-3.642 1.912c-.911 1.275-1.366 3.005-1.366 5.282q0 3.415 1.366 5.464c.82 1.365 2.094 2.003 3.642 2.003m12.02-7.194c0-1.913.274-3.552.911-5.009.546-1.457 1.366-2.732 2.368-3.733a11.2 11.2 0 0 1 3.46-2.368c1.275-.546 2.732-.82 4.189-.82 1.366 0 2.732.274 3.825.911a8.5 8.5 0 0 1 2.823 2.095l-2.823 3.187c-.547-.547-1.184-.91-1.73-1.275-.547-.273-1.275-.455-2.095-.455q-1.23 0-2.185.546c-.638.364-1.275.82-1.822 1.457-.546.637-.91 1.366-1.184 2.277-.273.91-.455 1.912-.455 3.096 0 2.367.455 4.189 1.457 5.464 1.002 1.274 2.368 1.912 4.007 1.912q1.365 0 2.459-.547c.728-.364 1.275-.819 1.912-1.456l2.823 3.096a8.66 8.66 0 0 1-3.278 2.458c-1.184.547-2.55.82-3.916.82a12.1 12.1 0 0 1-4.098-.729c-1.275-.455-2.459-1.274-3.37-2.185-.91-.91-1.73-2.186-2.276-3.643-.728-1.548-1.001-3.187-1.001-5.1m19.58 6.374c0-1.821.728-3.187 2.276-4.189 1.548-1.001 4.006-1.73 7.376-2.003-.091-.728-.273-1.366-.729-1.821-.455-.456-1.093-.638-2.003-.638-.729 0-1.457.182-2.186.456-.728.273-1.548.637-2.367 1.183l-1.822-3.369a24 24 0 0 1 3.46-1.64c1.185-.454 2.55-.637 3.825-.637 2.186 0 3.916.638 5.1 1.913s1.73 3.187 1.73 5.919v9.835h-4.007l-.364-1.73h-.091c-.728.637-1.548 1.183-2.368 1.548-.82.364-1.73.637-2.731.637-.82 0-1.457-.091-2.095-.364a5.2 5.2 0 0 1-1.639-1.093c-.455-.455-.82-1.002-1.002-1.64-.273-.91-.364-1.638-.364-2.367m4.825-.364c0 .546.183 1.002.547 1.275s.82.364 1.457.364 1.093-.09 1.548-.364c.455-.273.819-.637 1.275-1.093v-3.005q-2.732.41-3.825 1.093c-.637.455-1.002 1.093-1.002 1.73m12.931-12.02h4.189l.365 2.185h.182c.728-.728 1.457-1.366 2.276-1.821.82-.546 1.822-.82 2.914-.82 1.184 0 2.186.274 3.005.729.729.455 1.366 1.184 1.822 2.094.728-.82 1.548-1.457 2.367-2.003q1.23-.82 3.005-.82c1.822 0 3.188.638 4.098 1.822.911 1.274 1.275 2.914 1.275 5.1V34.42h-5.099V24.404c0-1.275-.183-2.095-.547-2.55-.364-.456-.91-.729-1.639-.729-.82 0-1.821.547-2.914 1.64V34.42h-5.1V24.404c0-1.275-.182-2.095-.546-2.55-.364-.456-.911-.729-1.639-.729-.911 0-1.821.547-2.914 1.64V34.42h-5.1zm28.412-7.103h5.1v19.214q0 .82.273 1.093a.83.83 0 0 0 .637.273h.273c.092 0 .183 0 .365-.091l.637 3.825a9 9 0 0 1-1.093.273c-.455.09-.91.09-1.548.09-.91 0-1.639-.181-2.185-.454-.638-.274-1.093-.638-1.457-1.184-.364-.456-.638-1.093-.82-1.822-.182-.637-.182-1.366-.182-2.276z"/><defs><linearGradient id="a" x1="16.835" x2="16.835" y1="27.436" y2="39.999" gradientUnits="userSpaceOnUse"><stop stop-color="#F29100"/><stop offset="1" stop-color="#EC670F"/></linearGradient><linearGradient id="b" x1="22.941" x2="22.941" y1=".019" y2="40.024" gradientUnits="userSpaceOnUse"><stop stop-color="#F29100"/><stop offset="1" stop-color="#EC670F"/></linearGradient><linearGradient id="c" x1="6.325" x2="6.325" y1="25.565" y2="39.747" gradientUnits="userSpaceOnUse"><stop stop-color="#F29100"/><stop offset="1" stop-color="#EC670F"/></linearGradient></defs></svg>