<?xml version="1.0" encoding="UTF-8"?>
<svg xmlns="http://www.w3.org/2000/svg" viewBox="0 0 2047.8 1944.86">
  <defs>
    <style>
      .cls-1 {
        fill: none;
      }

      .cls-1, .cls-2, .cls-3, .cls-4, .cls-5, .cls-6, .cls-7, .cls-8 {
        stroke-width: 0px;
      }

      .cls-2 {
        fill: #768c9c;
      }

      .cls-3 {
        fill: #54687d;
      }

      .cls-4 {
        fill: #c7d540;
      }

      .cls-5 {
        fill: #8ca4b4;
      }

      .cls-6 {
        fill: #97b0c5;
      }

      .cls-7 {
        fill: #91c579;
      }

      .cls-8 {
        fill: #71cbf4;
      }
    </style>
  </defs>
  <g id="naam">
    <path class="cls-3" d="m2047.8,1902.57h-134.62v-238.16h-40.88v274.81h175.51v-36.65Zm-358.18-155.82c0-55.09-47.02-87.98-103.04-87.98-32.48,0-68.74,10.32-91.78,38.53l28.68,26.84c15.53-17.89,38.14-24.96,62.16-24.96,30.6,0,63.1,16.95,63.1,53.7v24.02h-80.04c-61.67,0-96.93,33.83-96.93,81.87,0,58.85,44.67,86.1,96.93,86.1,27.31,0,62.16-10.32,80.04-33.36v27.72h40.88v-192.47Zm-40.88,94.6c0,40.49-39.08,64.51-75.81,64.51-29.66,0-57.44-13.65-57.44-46.62s25.9-45.68,53.21-45.68h80.04v27.8Zm-341.77,36.26c-17.42,16.95-39.06,26.84-63.06,26.84-54.13,0-84.26-36.24-84.26-102.16s30.13-103.1,84.26-103.1c24,0,45.64,9.89,63.06,26.84l31.07-25.9c-26.82-27.74-57.42-41.35-93.66-41.35-80.03,0-128.43,53.6-128.43,143.52s44.65,142.58,128.43,142.58c36.24,0,66.84-13.14,93.66-41.35l-31.07-25.9Zm-350.17-18.36c0-48.02-36.65-71.09-80.91-75.79l-48.98-5.66c-20.71-2.35-44.25-12.24-44.25-38.59,0-31.09,35.79-39.55,59.32-39.55,26.86,0,50.39,8.46,72.99,22.59l22.57-32.46c-27.27-20.22-58.83-31.01-95.56-31.01-48.49,0-103.04,26.31-103.04,81.38,0,44.72,34.79,72.03,76.68,77.2l52.27,6.6c23.55,2.82,45.21,9.4,45.21,35.3,0,36.24-38.61,44.72-68.27,44.72-34.85,0-61.22-12.24-87.55-35.3l-24.45,32.48c32.91,29.15,67.72,43.71,112,43.71,52.27,0,111.98-24.9,111.98-85.61m-391.58-112.51c0-55.09-47.02-87.98-103.04-87.98-32.48,0-68.74,10.32-91.78,38.53l28.68,26.84c15.53-17.89,38.14-24.96,62.16-24.96,30.6,0,63.1,16.95,63.1,53.7v24.02h-80.04c-61.67,0-96.93,33.83-96.93,81.87,0,58.85,44.67,86.1,96.93,86.1,27.31,0,62.16-10.32,80.04-33.36v27.72h40.88v-192.47Zm-40.88,94.6c0,40.49-39.08,64.51-75.81,64.51-29.66,0-57.44-13.65-57.44-46.62s25.9-45.68,53.21-45.68h80.04v27.8Zm-330.44,13.62c-3.76-16.48-10.34-30.11-23.51-40.9,23.04-16.93,34.77-37.16,34.77-65.9,0-54.62-40.88-83.75-93.15-83.75H0v274.81h40.88v-108.25h72.52c22.14,0,35.79,10.83,40.49,32.01l16.48,76.24h42.31l-18.81-84.26Zm-32.44-107.75c0,27.31-22.14,47.09-48.5,47.09H40.88v-93.25h70.17c28.25,0,50.39,17.44,50.39,46.15"/>
  </g>
  <g id="kleurvlakken">
    <polygon class="cls-6" points="831.21 541.7 637.12 541.7 947.74 4 1141.83 4 831.21 541.7"/>
    <polygon class="cls-6" points="598.32 945.55 777.02 635.57 582.93 635.57 259.06 1197.52 905.28 1197.1 1002.33 1029.01 647.14 1030.11 598.32 945.55"/>
    <polygon class="cls-5" points="598.32 945.55 647.14 1030.11 743.89 1029.11 874.05 803.67 777.01 635.59 598.32 945.55"/>
    <polygon class="cls-2" points="905.28 1197.1 1002.33 1365.18 356.12 1365.66 259.08 1197.57 905.28 1197.1"/>
    <path class="cls-6" d="m1013.83,1196.64l305.57-.18c68.85.36,111.38-70.12,78.82-126.52l-23.99-41.48-263.39.12-97.04,168.08h.05s-.02-.03-.02-.03Z"/>
    <path class="cls-2" d="m1228.2,439.73c-30.48-52.79-111.71-54.31-140.98-5.26l-28,48.49,109.1,188.65,193.9.14-134.02-232.03Z"/>
    <path class="cls-5" d="m1087.21,434.47c29.27-49.06,110.5-47.54,140.98,5.26l134.05,232.07,97.03-168.05-106.1-183.74c-53.75-93.09-137.12-108.66-137.12-108.66l22.58-39.15L1141.59,4.12l-310.39,537.61,97.04,168.08,158.97-275.35Z"/>
    <path class="cls-5" d="m1437.47,802.09h0s131.26,226.75,131.26,226.75c41.31,72.24,35.56,154.73-.65,219.86l92.49-159.42s72.58-111.12,7.06-224.61l-154.51-267.59-97.02,168.04,21.35,36.98Z"/>
    <path class="cls-2" d="m1319.4,1196.46c68.85.36,111.38-70.12,78.82-126.52l-176.17-304.78h194.1s152.59,263.67,152.59,263.67c84.43,147.65-27.68,338.13-194.8,335.67l-263.07.22-97.04-168.08,305.57-.18Z"/>
    <polygon class="cls-7" points="777.02 635.57 777.01 635.59 819.88 709.84 928.23 709.84 831.18 541.75 637.1 541.75 691.26 635.57 777.02 635.57"/>
    <polygon class="cls-8" points="1405.39 597.06 1362.24 671.79 1362.22 671.75 1276 671.69 1222.04 765.14 1416.13 765.14 1513.17 597.06 1405.39 597.06"/>
    <polyline class="cls-4" points="1013.8 1196.67 1056.53 1122.65 1002.47 1029.01 905.42 1197.1 1002.47 1365.18 1056.8 1271.07 1013.83 1196.64 1013.83 1196.64"/>
  </g>
  <g id="lijn">
    <path class="cls-1" d="m780.48,633.57c.05.08.08.17.13.25l41.58,72.02h99.11l-92.42-160.08h-184.85l49.55,85.82h83.45c1.43,0,2.75.76,3.46,2Z"/>
    <polygon class="cls-1" points="1134.73 8 950.05 8 644.05 537.7 828.9 537.7 838.58 520.94 1134.73 8"/>
    <polygon class="cls-1" points="838.58 520.94 1134.73 8 950.05 8 644.05 537.7 828.9 537.7 838.58 520.94"/>
    <polyline class="cls-1" points="826.81 713.84 822.19 705.84 921.3 705.84 828.88 545.75 644.03 545.75 693.57 631.57"/>
    <polyline class="cls-1" points="736.52 713.84 602.94 945.55 649.44 1026.08 741.57 1025.13 869.43 803.67 817.57 713.84"/>
    <path class="cls-1" d="m1164.86,673.62l-105.64-182.66-127.51,220.86s0,0,0,0c0,0,0,0,0,.01-.71,1.24-2.04,2-3.46,2h-101.42l50.71,87.83c.71,1.24.71,2.76,0,4l-127.09,220.12,251.89-.78h.01s.05,0,.07,0c.02,0,.05,0,.07,0,1.43,0,2.75.76,3.46,2l50.6,87.64,50.85-88.07c.71-1.24,2.03-2,3.46-2l256.47-.12-148.72-257.3c-.18-.31-.32-.65-.41-.99-.27-1.01-.14-2.11.4-3.04l50.49-87.45-100.75-.07c-1.43,0-2.75-.76-3.46-2Z"/>
    <path class="cls-1" d="m1362.24,675.79c-.19,0-.38-.02-.57-.04l-83.37-.06-49.33,85.45h184.82l92.43-160.08h-98.51s-42,72.74-42,72.74c-.71,1.24-2.03,2-3.46,2Z"/>
    <path class="cls-1" d="m1664.18,866.66l-151.03-261.56-92.4,160.03,151.44,261.7c.82,1.44,1.63,2.9,2.42,4.35.22.4.44.81.65,1.21.65,1.21,1.29,2.43,1.91,3.65.14.28.29.56.43.84.72,1.41,1.41,2.84,2.1,4.26.23.48.45.95.68,1.43.5,1.05.98,2.11,1.46,3.17.22.48.44.96.65,1.44.61,1.38,1.21,2.77,1.8,4.17.22.52.43,1.04.64,1.56.41,1,.81,2,1.21,3,.22.57.45,1.13.67,1.7.54,1.4,1.06,2.8,1.57,4.21.15.43.3.85.45,1.28.4,1.12.78,2.24,1.16,3.36.18.53.36,1.07.53,1.6.43,1.32.85,2.63,1.26,3.96.06.21.13.41.19.61.47,1.56.92,3.12,1.36,4.68.1.36.2.72.3,1.09.4,1.46.79,2.93,1.16,4.4.03.12.06.25.09.37.43,1.73.84,3.46,1.24,5.2,0,.02,0,.03.01.05,3.95,17.57,5.76,35.62,5.32,53.77,0,.27-.01.54-.02.81-.02.55-.02,1.09-.04,1.64-.03.79-.07,1.58-.1,2.36-.04.9-.09,1.8-.14,2.69-.05.8-.09,1.59-.14,2.39-1,15.02-3.5,30.03-7.51,44.83l63.63-109.67c.04-.06.07-.12.11-.18.18-.27,17.98-27.88,27.62-68.76,5.64-23.91,7.44-47.63,5.33-70.5-2.63-28.53-11.38-55.84-26-81.17Z"/>
    <path class="cls-1" d="m1010.36,1198.67c-.71-1.24-.74-2.76-.02-4l41.58-72.02-49.44-85.64-92.42,160.08,92.42,160.08,49.71-86.11-41.66-72.15c-.06-.08-.12-.16-.17-.25Z"/>
    <polygon class="cls-1" points="266 1201.57 358.43 1361.65 995.4 1361.19 902.97 1201.1 266 1201.57"/>
    <path class="cls-3" d="m1671.11,862.66l-154.22-267.09c-.07-.18-.15-.35-.25-.51-.71-1.24-2.04-2-3.46-2h-100.85s50.41-87.31,50.41-87.31c.71-1.24.71-2.76,0-4l-106.1-183.74c-28.22-48.87-64.63-76.31-90.21-90.72-19.83-11.17-36.16-16.43-44.22-18.58l19.9-34.5c.71-1.24.71-2.76,0-4L1145.77,3.36c-.08-.47-.23-.93-.48-1.36-.71-1.24-2.04-2-3.46-2h-194.09c-1.43,0-2.75.76-3.46,2l-310.62,537.7c-.09.16-.17.32-.24.49-.49,1.15-.42,2.47.21,3.57l50.7,87.82h-101.4c-1.43,0-2.75.76-3.47,2l-323.88,561.96c-.63,1.09-.7,2.41-.22,3.55.07.17.15.33.24.49l97.04,168.08c.71,1.24,2.04,2,3.46,2h0l646.21-.48s.05,0,.07,0c.02,0,.05,0,.07,0,1.43,0,2.75-.76,3.46-2l50.87-88.11,50.61,87.65c.71,1.24,2.04,2,3.46,2h0l263-.22c40.29.58,79.88-10.09,114.43-30.91,32.56-19.62,60.29-47.82,80.21-81.57,1.05-1.77,2.06-3.56,3.06-5.36l92.42-159.29c1.37-2.11,18.77-29.55,28.58-70.92,9.25-39,13.04-98.02-21.47-157.79Zm-164.89-261.61l-92.43,160.08h-184.82l49.33-85.45,83.37.06c.19.03.37.04.57.04,1.43,0,2.75-.76,3.46-2l42-72.74h98.51Zm-395.38,423.53c-1.43,0-2.75.76-3.46,2l-50.85,88.07-50.6-87.64c-.71-1.24-2.04-2-3.46-2-.02,0-.05,0-.07,0-.02,0-.05,0-.07,0h-.01l-251.89.78,127.09-220.12c.71-1.24.71-2.76,0-4l-50.71-87.83h101.42c1.43,0,2.75-.76,3.46-2,0,0,0,0,0-.01,0,0,0,0,0,0l127.51-220.86,105.64,182.66c.71,1.24,2.03,2,3.46,2l100.75.07-50.49,87.45c-.54.93-.67,2.03-.4,3.04.09.34.22.67.41.99l148.72,257.3-256.47.12Zm261.08,7.88l22.83,39.48c7.09,12.28,10.62,25.77,10.58,39.27s-3.64,27.01-10.8,39.34c-.95,1.64-1.96,3.24-3.01,4.8-15.75,23.36-42.08,37.1-71.63,37.1-.16,0-.33,0-.5,0l-217.87.13h-9.23s-71.55.05-71.55.05l35.79-61.98,4.62-8,52-90.07,258.77-.12Zm-630.35-7.33l-92.13.95-46.5-80.54,133.58-231.71,4.61-8,35.88-62.25,35.94,62.25,4.62,8,51.86,89.83-127.86,221.46Zm322.26-542.17l5.18-8.98,21.64-37.49c.04-.06.08-.13.12-.19.36-.6.72-1.19,1.1-1.77.11-.17.22-.33.33-.49.31-.47.63-.95.95-1.41.15-.21.3-.42.46-.63.29-.41.59-.82.89-1.23.18-.23.36-.46.54-.69.29-.37.57-.75.87-1.11.21-.25.42-.5.63-.75.28-.33.55-.67.84-1,.24-.27.48-.53.72-.8.27-.3.53-.6.81-.89.27-.29.55-.57.82-.85.25-.26.5-.53.76-.79.31-.31.63-.61.94-.91.23-.22.46-.45.69-.67.36-.33.72-.65,1.08-.98.2-.18.4-.36.6-.54.41-.35.82-.7,1.24-1.04.17-.14.33-.28.5-.42.46-.38.93-.74,1.4-1.11.13-.1.25-.2.38-.3.52-.4,1.05-.78,1.59-1.16.08-.06.16-.12.25-.18.59-.41,1.18-.82,1.78-1.22.03-.02.07-.05.1-.07,10.83-7.15,23.94-11.43,38.19-12.28.05,0,.11,0,.16-.01.68-.04,1.37-.07,2.06-.09.2,0,.39-.02.59-.02.54-.01,1.08-.02,1.63-.02.47,0,.94-.01,1.41,0,5.56.04,11,.58,16.25,1.6,22.76,4.4,42.06,17.67,53.38,37.26l89.73,155.34,4.62,8,14.04,24.31,22.17,38.38-72.37-.05h-9.23s-103.06-.08-103.06-.08l-106.79-184.65Zm170.18-310.76l-21.43,37.15c-.65,1.12-.71,2.49-.17,3.67.54,1.18,1.62,2.02,2.9,2.26.82.15,82.17,16.27,134.39,106.73l104.94,181.74-51.56,89.31-4.62,8-36.22,62.74-36.24-62.74-4.62-8-89.72-155.33c-.46-.8-.94-1.59-1.42-2.36-14.44-23.22-39.24-37.84-67.75-40.16-2.42-.2-4.86-.32-7.33-.33-.24,0-.47,0-.71,0-1.89,0-3.76.05-5.62.16-27.87,1.62-51.88,15.31-65.05,37.39l-.03.05-155.51,269.35-92.42-160.08,9.56-16.56L1141.67,12.26l92.34,159.94ZM950.05,8h184.68l-296.15,512.94-9.68,16.76h-184.85L950.05,8Zm-306.02,537.75h184.85l92.42,160.08h-99.11l-41.58-72.02c-.04-.08-.08-.17-.13-.25-.71-1.24-2.03-2-3.46-2h-83.45s-49.55-85.82-49.55-85.82Zm-58.78,93.81h103.71s9.24,0,9.24,0h71.91s-35.93,62.32-35.93,62.32l-4.62,8.01-134.7,233.66c-.71,1.24-.71,2.76,0,4l48.82,84.56c.71,1.24,2.04,2,3.46,2h.05s348.19-1.07,348.19-1.07l-92.41,160.07h-3.5s-633.49.42-633.49.42l319.26-553.95Zm-226.81,722.09l-92.43-160.09,636.97-.47,92.43,160.09-636.97.47Zm644.04-4.47l-92.42-160.08,92.42-160.08,49.44,85.64-41.58,72.02c-.71,1.24-.69,2.76.02,4,.05.09.11.17.17.25l41.66,72.15-49.71,86.11Zm569.96-125.88c-.3.64-.58,1.29-.89,1.94-.48,1.02-1,2.03-1.49,3.05-.6,1.22-1.19,2.44-1.81,3.65-.34.67-.71,1.33-1.06,2-.79,1.51-1.59,3.01-2.41,4.51-1.02,1.85-2.07,3.69-3.14,5.52-19.24,32.61-46.02,59.86-77.44,78.79-33.27,20.04-71.38,30.33-110.24,29.76l-260.75.22-51.76-89.65-4.62-8-36.05-62.44,72.12-.04h9.24s198.87-.12,198.87-.12h18.4c.18,0,.36,0,.54,0,6.44,0,12.75-.6,18.86-1.77,2.03-.39,4.05-.84,6.03-1.36.99-.26,1.98-.53,2.96-.82,22.56-6.61,41.67-21.27,53.67-41.94,7.89-13.59,11.86-28.47,11.9-43.35.04-13.02-2.94-26.03-8.92-38.15-.85-1.73-1.77-3.44-2.75-5.14l-172.7-298.78h184.86s20.17,34.93,20.17,34.93c0,0,0,0,0,0l131.25,226.73c1.13,1.98,2.22,3.97,3.29,5.97.07.13.14.27.21.4,1,1.9,1.97,3.81,2.91,5.73.12.25.25.49.37.74.89,1.84,1.76,3.69,2.59,5.55.15.33.3.66.45.99.81,1.81,1.58,3.64,2.34,5.47.15.37.31.74.46,1.11.74,1.83,1.45,3.66,2.14,5.5.14.36.27.73.41,1.09.69,1.88,1.35,3.76,1.99,5.66.1.3.2.6.3.9.66,1.98,1.29,3.97,1.88,5.97.05.17.1.34.15.51,7.2,24.36,9.97,49.72,8.29,75.05-1.85,27.37-8.89,54.5-20.6,79.83Zm112.42-212.97c-9.65,40.88-27.45,68.49-27.62,68.76-.04.06-.08.12-.11.18l-63.63,109.67c4.01-14.79,6.51-29.8,7.51-44.83.05-.8.1-1.59.14-2.39.05-.9.1-1.8.14-2.69.04-.79.07-1.58.1-2.36.02-.55.03-1.09.04-1.64,0-.27.02-.54.02-.81.44-18.15-1.37-36.19-5.32-53.77,0-.02,0-.03-.01-.05-.39-1.74-.8-3.47-1.24-5.2-.03-.12-.06-.25-.09-.37-.37-1.47-.76-2.94-1.16-4.4-.1-.36-.2-.73-.3-1.09-.44-1.57-.89-3.13-1.36-4.68-.06-.21-.13-.41-.19-.61-.41-1.32-.83-2.64-1.26-3.96-.17-.53-.35-1.07-.53-1.6-.38-1.12-.77-2.24-1.16-3.36-.15-.43-.3-.85-.45-1.28-.51-1.41-1.04-2.81-1.57-4.21-.22-.57-.44-1.14-.67-1.7-.39-1-.8-2-1.21-3-.21-.52-.42-1.04-.64-1.56-.58-1.39-1.18-2.78-1.8-4.17-.21-.48-.43-.96-.65-1.44-.48-1.06-.97-2.12-1.46-3.17-.22-.48-.45-.96-.68-1.43-.68-1.43-1.38-2.85-2.1-4.26-.14-.28-.29-.56-.43-.84-.63-1.22-1.26-2.44-1.91-3.65-.22-.41-.43-.81-.65-1.21-.79-1.46-1.59-2.91-2.42-4.35l-151.44-261.7,92.4-160.03,151.03,261.56c14.62,25.33,23.37,52.64,26,81.17,2.11,22.87.32,46.59-5.33,70.5Z"/>
  </g>
</svg>