<svg class="svg-icon"
    style="vertical-align: middle;fill: currentColor;overflow: hidden;"
    viewBox="0 0 1024 1024" version="1.1" xmlns="http://www.w3.org/2000/svg">
    <path
        d="M202.410667 86.656c-49.365333 0-85.077333 13.226667-107.093334 39.68-21.973333 26.112-32.896 71.594667-32.896 136.405333v105.258667c0 60.074667-17.152 90.069333-51.242666 90.069333v86.826667c34.133333 0 51.2 28.970667 51.2 86.869333v113.237334c0 64.512 11.093333 109.312 33.28 134.485333s57.813333 37.76 106.752 37.76V829.013333c-19.072 0-32.853333-6.442667-41.386667-19.328-8.32-12.928-12.458667-34.773333-12.458667-65.621333v-96.725333c0-77.098667-17.237333-125.354667-51.797333-144.853334v-1.92c34.56-19.797333 51.797333-67.456 51.797333-142.976V257.066667c0-54.741333 17.92-82.133333 53.845334-82.133334V86.613333z m625.493333 0V174.933333c35.925333 0 53.845333 27.392 53.845333 82.133334v96.768c0 78.634667 17.152 127.829333 51.498667 147.626666v1.962667c-34.346667 18.858667-51.498667 65.877333-51.498667 141.056v100.522667c0 30.506667-4.266667 52.053333-12.757333 64.682666-8.533333 12.885333-22.229333 19.328-41.088 19.328v88.234667c49.152 0 84.650667-12.586667 106.410667-37.76 22.016-25.173333 32.938667-70.954667 32.938666-137.344V633.173333c0-58.88 17.237333-88.277333 51.584-88.277333v-86.826667c-34.346667 0-51.626667-29.696-51.626666-89.173333V260.821333c0-63.573333-10.88-108.373333-32.853334-134.485333-22.016-26.453333-57.514667-39.68-106.453333-39.68z m-130.346667 190.293333c-19.413333 0-37.802667 2.432-55.168 7.381334a130.346667 130.346667 0 0 0-45.994666 22.485333c-13.098667 10.282667-23.466667 23.424-31.146667 39.424-7.68 15.786667-11.52 34.858667-11.52 57.002667 0 28.288 7.04 52.352 20.992 72.32 14.165333 19.968 35.498667 36.864 64.085333 50.688 11.264 5.333333 21.76 10.624 31.445334 15.744s18.005333 10.453333 25.002666 16c7.125333 5.546667 12.757333 11.562667 16.810667 18.090666s6.186667 13.952 6.186667 22.229334c0 6.144-1.28 11.946667-3.84 17.28a38.4 38.4 0 0 1-11.733334 13.568c-5.12 3.754667-11.605333 6.741333-19.413333 8.917333a99.84 99.84 0 0 1-27.093333 3.242667c-17.706667 0-35.242667-3.541333-52.608-10.666667a155.52 155.52 0 0 1-48.213334-32.597333v94.848a157.013333 157.013333 0 0 0 46.976 17.834666c18.218667 3.968 37.333333 5.930667 57.429334 5.930667 19.584 0 38.101333-2.133333 55.637333-6.528a128.042667 128.042667 0 0 0 46.506667-21.333333c13.269333-10.069333 23.765333-23.125333 31.445333-39.125334 7.808-16.213333 11.733333-36.224 11.733333-59.946666 0-17.194667-2.261333-32.213333-6.656-45.056-4.437333-13.056-10.837333-24.618667-19.2-34.688s-18.346667-19.072-30.08-27.008a288.128 288.128 0 0 0-39.296-22.826667c-10.752-5.12-20.352-10.069333-28.842666-14.848-8.533333-4.906667-15.786667-9.856-21.76-14.805333a64.128 64.128 0 0 1-13.738667-16 38.826667 38.826667 0 0 1-4.949333-19.328c0-6.528 1.450667-12.288 4.352-17.408a40.448 40.448 0 0 1 12.373333-13.653334c5.248-3.797333 11.733333-6.656 19.370667-8.618666a93.013333 93.013333 0 0 1 25.514666-3.328c6.826667 0 13.909333 0.64 21.418667 1.834666 7.68 1.194667 15.36 2.986667 22.997333 5.546667 7.68 2.389333 15.104 5.546667 22.229334 9.301333 7.338667 3.754667 14.08 8.021333 20.181333 12.970667V293.162667a172.330667 172.330667 0 0 0-40.832-12.16 275.114667 275.114667 0 0 0-50.602667-4.096z m-374.314666 7.04l-133.248 425.258667h89.344l25.813333-94.592h130.261333l26.026667 94.592h89.898667L421.077333 283.989333H323.242667z m45.738666 75.946667h2.005334c1.194667 14.805333 3.285333 27.562667 6.186666 38.229333l39.338667 142.933334H322.730667l39.850666-144.085334c3.413333-12.288 5.546667-24.661333 6.4-37.12z"
        fill="#F44336" />
</svg>