<svg aria-hidden="true" class="h-10 w-auto" viewBox="0 0 1280 1280"><defs><clipPath id="a" clipPathUnits="userSpaceOnUse"><path d="M0 1024h1024V0H0z"/></clipPath></defs><g clip-path="url(#a)" transform="matrix(1.25 0 0 -1.25 0 1280)"><path d="M0 0c-42.484 0-76.924-34.438-76.924-76.929v-759.445c0-42.49 34.44-76.919 76.924-76.919h759.445c42.49 0 76.929 34.429 76.929 76.919v759.445C836.374-34.438 801.935 0 759.445 0z" style="fill:#fff;fill-opacity:1;fill-rule:nonzero;stroke:none" transform="translate(132.523 968.642)"/><path d="M0 0h-341.772v-101.043h183.631l-195.053-426.129h369.02v101.041h-214.387z" style="fill:#4a4a49;fill-opacity:1;fill-rule:nonzero;stroke:none" transform="translate(490.007 764.996)"/><path d="M0 0v-230.19h100.161V7.914s34.265 75.558 87.865 75.558c43.933 0 49.196-35.135 49.196-67.646V-230.19h100.165V63.269c0 74.684-63.259 125.644-135.299 125.644-70.283 0-133.558-65.023-133.558-65.023s-31.624 45.688-50.954 59.74l-84.344-50.077C-21.084 98.406 0 57.995 0 0" style="fill:#4a4a49;fill-opacity:1;fill-rule:nonzero;stroke:none" transform="translate(543.462 468.015)"/><path d="m0 0-357.376-.375c-44.462.319-74.898 39.821-74.918 73.428l-.081 137.209H0z" style="fill:#000;fill-opacity:1;fill-rule:nonzero;stroke:none" transform="translate(975.43 758.436)"/><path d="M0 0h21.593l22.979 81.96L55.565-2.038l23.584 3.465L56.36 122.325H34.777L10.791 34.252l-23.975 88.073h-21.587L-57.557 1.427l23.584-3.465 10.994 83.998z" style="fill:#fff;fill-opacity:1;fill-rule:nonzero;stroke:none" transform="translate(649.854 800.17)"/><path d="M766.74 893.957h-23.189V800.17h23.189zm2.194 29.355c0 7.743-6.196 14.067-13.789 14.067-7.592 0-13.788-6.324-13.788-14.067 0-7.749 6.196-14.069 13.788-14.069s13.789 6.32 13.789 14.069" style="fill:#fff;fill-opacity:1;fill-rule:evenodd;stroke:none"/><path d="M0 0v-53.414h22.779V1.837s7.803 17.536 19.992 17.536c9.999 0 11.194-8.157 11.194-15.7v-57.087h22.78v68.093c0 17.333-14.391 29.159-30.775 29.159-15.991 0-30.381-15.087-30.381-15.087S8.388 39.35 3.993 42.613l-19.181-11.619C-4.797 22.834 0 13.459 0 0" style="fill:#fff;fill-opacity:1;fill-rule:nonzero;stroke:none" transform="translate(800.248 853.583)"/><path d="M925.33 893.957h-23.183V800.17h23.183zm2.201 29.355c0 7.743-6.194 14.067-13.788 14.067-7.602 0-13.797-6.324-13.797-14.067 0-7.749 6.195-14.069 13.797-14.069 7.594 0 13.788 6.32 13.788 14.069" style="fill:#fff;fill-opacity:1;fill-rule:evenodd;stroke:none"/><path d="M0 0c-42.484 0-76.924-34.438-76.924-76.929v-759.445c0-42.49 34.44-76.919 76.924-76.919h759.445c42.49 0 76.929 34.429 76.929 76.919v759.445C836.374-34.438 801.935 0 759.445 0zm0 55.355h759.445c73.063 0 132.284-59.225 132.284-132.284v-759.445c0-73.063-59.221-132.275-132.284-132.275H0c-73.059 0-132.279 59.212-132.279 132.275v759.445C-132.279-3.87-73.059 55.355 0 55.355" style="fill:#1491eb;fill-opacity:1;fill-rule:nonzero;stroke:none" transform="translate(132.523 968.642)"/></g></svg>