<?xml version="1.0" encoding="UTF-8" standalone="no"?><!DOCTYPE svg PUBLIC "-//W3C//DTD SVG 1.1//EN" "http://www.w3.org/Graphics/SVG/1.1/DTD/svg11.dtd"><svg width="100%" height="100%" viewBox="0 0 1067 1067" version="1.1" xmlns="http://www.w3.org/2000/svg" xmlns:xlink="http://www.w3.org/1999/xlink" xml:space="preserve" xmlns:serif="http://www.serif.com/" style="fill-rule:evenodd;clip-rule:evenodd;stroke-linecap:round;"><circle cx="533.333" cy="533.333" r="431.925" style="fill:#fff;fill-opacity:0.96;stroke:#fffffe;stroke-width:1.57px;"/><path d="M818.579,610.523l-208.334,207.916c-0.833,0.834 -2.083,1.25 -2.916,0.834l-284.584,-76.25c-1.25,-0.417 -2.083,-1.25 -2.083,-2.084l-76.667,-284.166c-0.416,-1.25 0,-2.084 0.834,-2.917l208.333,-207.917c0.833,-0.833 2.083,-1.25 2.917,-0.833l284.583,76.25c1.25,0.417 2.083,1.25 2.083,2.083l76.25,284.167c0.834,1.25 0.417,2.083 -0.416,2.917Zm-279.167,-226.25l-279.583,74.583c-0.417,-0 -0.834,0.833 -0.417,1.25l204.583,204.167c0.417,0.416 1.25,0.416 1.25,-0.417l75,-279.167c0.417,0 -0.416,-0.833 -0.833,-0.416Z" style="fill-rule:nonzero;"/></svg>