<svg xmlns="http://www.w3.org/2000/svg" class="svg-icon" style="vertical-align:middle;fill:currentColor;overflow:hidden" viewBox="0 0 1024 1024"><path fill="#F44336" d="M202.41 86.656c-49.365 0-85.077 13.227-107.093 39.68-21.973 26.112-32.896 71.595-32.896 136.405V368c0 60.075-17.152 90.07-51.242 90.07v86.826c34.133 0 51.2 28.97 51.2 86.87v113.237c0 64.512 11.093 109.312 33.28 134.485s57.813 37.76 106.752 37.76v-88.235c-19.072 0-32.854-6.442-41.387-19.328-8.32-12.928-12.459-34.773-12.459-65.621v-96.725c0-77.099-17.237-125.355-51.797-144.854v-1.92c34.56-19.797 51.797-67.456 51.797-142.976V257.067c0-54.742 17.92-82.134 53.846-82.134v-88.32zm625.494 0v88.277c35.925 0 53.845 27.392 53.845 82.134v96.768c0 78.634 17.152 127.829 51.499 147.626v1.963c-34.347 18.859-51.499 65.877-51.499 141.056v100.523c0 30.506-4.266 52.053-12.757 64.682q-12.8 19.329-41.088 19.328v88.235c49.152 0 84.65-12.587 106.41-37.76 22.017-25.173 32.94-70.955 32.94-137.344v-108.97c0-58.88 17.237-88.278 51.583-88.278v-86.827c-34.346 0-51.626-29.696-51.626-89.173V260.821c0-63.573-10.88-108.373-32.854-134.485-22.016-26.453-57.514-39.68-106.453-39.68M697.557 276.949c-19.413 0-37.802 2.432-55.168 7.382a130.4 130.4 0 0 0-45.994 22.485c-13.099 10.283-23.467 23.424-31.147 39.424-7.68 15.787-11.52 34.859-11.52 57.003 0 28.288 7.04 52.352 20.992 72.32 14.165 19.968 35.499 36.864 64.085 50.688 11.264 5.333 21.76 10.624 31.446 15.744s18.005 10.453 25.002 16c7.126 5.546 12.758 11.562 16.811 18.09s6.187 13.952 6.187 22.23c0 6.144-1.28 11.946-3.84 17.28a38.4 38.4 0 0 1-11.734 13.568c-5.12 3.754-11.605 6.741-19.413 8.917a99.8 99.8 0 0 1-27.093 3.243c-17.707 0-35.243-3.542-52.608-10.667a155.5 155.5 0 0 1-48.214-32.597v94.848a157 157 0 0 0 46.976 17.834c18.219 3.968 37.334 5.931 57.43 5.931 19.584 0 38.101-2.133 55.637-6.528a128 128 0 0 0 46.507-21.333c13.269-10.07 23.765-23.126 31.445-39.126 7.808-16.213 11.733-36.224 11.733-59.946 0-17.195-2.261-32.214-6.656-45.056q-6.655-19.584-19.2-34.688c-12.545-15.104-18.346-19.072-30.08-27.008a288 288 0 0 0-39.296-22.827c-10.752-5.12-20.352-10.07-28.842-14.848-8.534-4.907-15.787-9.856-21.76-14.805a64.1 64.1 0 0 1-13.739-16 38.8 38.8 0 0 1-4.95-19.328c0-6.528 1.451-12.288 4.353-17.408a40.45 40.45 0 0 1 12.373-13.654c5.248-3.797 11.733-6.656 19.37-8.618a93 93 0 0 1 25.515-3.328c6.827 0 13.91.64 21.419 1.834 7.68 1.195 15.36 2.987 22.997 5.547 7.68 2.39 15.104 5.547 22.23 9.301 7.338 3.755 14.08 8.022 20.181 12.971v-88.661a172.3 172.3 0 0 0-40.832-12.16 275 275 0 0 0-50.603-4.096zm-374.314 7.04L189.995 709.248h89.344l25.813-94.592h130.261l26.027 94.592h89.899L421.077 283.989zm45.738 75.947h2.006c1.194 14.805 3.285 27.563 6.186 38.23l39.339 142.933h-93.781l39.85-144.086q5.12-18.432 6.4-37.12z"/></svg>