<svg xmlns="http://www.w3.org/2000/svg" viewBox="0 0 100.58 98.63"><path d="M75.57 19.78 78 6.53C74.31 4.07 70.3 2.11 66.09.7l-8.97 10.05c-4.37-.8-8.85-.83-13.23-.08L35.03.5a50 50 0 0 0-11.99 5.68l2.26 13.28a38 38 0 0 0-8.32 10.3l-13.46.58C1.94 34.49.92 38.83.49 43.25l11.8 6.51c.19 4.44 1.16 8.81 2.86 12.92L7.21 73.57c2.26 3.82 5.02 7.33 8.2 10.42l12.45-5.16a38 38 0 0 0 11.89 5.82l3.56 13c4.4.62 8.86.64 13.26.08l3.72-12.95a37.7 37.7 0 0 0 11.96-5.67l12.38 5.32c3.22-3.05 6.03-6.52 8.33-10.32l-7.8-10.99c1.75-4.08 2.78-8.45 3.03-12.88l11.88-6.36c-.38-4.42-1.34-8.78-2.87-12.95l-13.45-.75c-2.1-3.92-4.87-7.44-8.19-10.4Z" style="fill:#6b9543;stroke-width:0"/><circle cx="51.05" cy="47.72" r="31.49" style="fill:#e9f4ca;stroke-width:0"/><path d="M28.79 62.54c8.22 14.22 24.82 18.97 20.85-10.47a8.3 8.3 0 0 0-3.45-5.68c-24.66-17.36-26.37.64-17.4 16.15m15.42-8.25c.7-.17 1.24.13 1.49.83 3.27 9.16-2.6 12.49-6.71 10.44-3.77-1.88-3.77-9.01 5.22-11.27m-2.14-5.45c.48.57.47 1.19-.03 1.7-6.44 6.67-12.62 3.1-12.37-1.09.27-4.58 6.09-8.01 12.4-.61" style="fill:#c8d987;stroke-width:0"/><ellipse cx="38.62" cy="55.01" rx="7.64" ry="14.03" style="fill:#c8d987;stroke-width:0" transform="rotate(-30 38.62 55.008)"/><path d="M49.34 21.03c-16.42.01-28.84 12.01-1.36 23.29 2.14.88 4.54.82 6.64-.15 27.37-12.67 12.63-23.16-5.29-23.15Zm-.56 17.48c-.2.69-.73 1.01-1.46.88-9.57-1.75-9.52-8.5-5.69-11.03 3.51-2.32 9.69 1.24 7.15 10.16Zm5.79.87c-.73.13-1.27-.18-1.46-.88-2.56-8.91 3.62-12.48 7.13-10.17 3.83 2.53 3.9 9.28-5.67 11.04Z" style="fill:#c8d987;stroke-width:0"/><ellipse cx="50.94" cy="33.31" rx="14.03" ry="7.64" style="fill:#c8d987;stroke-width:0"/><path d="M75.02 59.59c8.2-14.23 4.02-30.98-19.5-12.82a8.26 8.26 0 0 0-3.19 5.83c-2.71 30.04 13.74 22.52 22.69 7Zm-14.86-9.23c-.5-.52-.51-1.14-.03-1.7 6.3-7.41 12.12-3.99 12.4.59.26 4.2-5.92 7.77-12.37 1.11m-3.65 4.58c.25-.7.79-1 1.49-.83 8.99 2.24 9 9.38 5.24 11.26-4.1 2.05-9.98-1.26-6.73-10.43" style="fill:#c8d987;stroke-width:0"/><ellipse cx="63.58" cy="54.83" rx="14.03" ry="7.64" style="fill:#c8d987;stroke-width:0" transform="rotate(-60 63.58 54.837)"/></svg>