<svg xmlns="http://www.w3.org/2000/svg" width="325" height="100"><text xml:space="preserve" x="-10.75" y="-90.875" style="font-style:normal;font-weight:400;font-size:40px;line-height:1.25;font-family:sans-serif;letter-spacing:0;word-spacing:0;fill:#000;fill-opacity:1;stroke:none"/><text xml:space="preserve" x="-.75" y="-110.125" style="font-style:normal;font-weight:400;font-size:40px;line-height:1.25;font-family:sans-serif;letter-spacing:0;word-spacing:0;fill:#000;fill-opacity:1;stroke:none"/><text xml:space="preserve" x="159.806" y="-177.893" style="font-style:normal;font-weight:400;font-size:40px;line-height:1.25;font-family:sans-serif;letter-spacing:0;word-spacing:0;fill:#000;fill-opacity:1;stroke:none"/><text xml:space="preserve" x="-135.057" y="112.728" style="font-style:normal;font-weight:400;font-size:40px;line-height:1.25;font-family:sans-serif;letter-spacing:0;word-spacing:0;fill:#000;fill-opacity:1;stroke:none"><tspan x="-135.057" y="112.728"> </tspan></text><text xml:space="preserve" x="107.25" y="75.75" style="font-style:normal;font-weight:400;font-size:40px;line-height:1.25;font-family:sans-serif;letter-spacing:0;word-spacing:0;fill:#000;fill-opacity:1;stroke:none"/><text xml:space="preserve" x="110" y="77.375" style="font-style:normal;font-weight:400;font-size:40px;line-height:1.25;font-family:sans-serif;letter-spacing:0;word-spacing:0;fill:#000;fill-opacity:1;stroke:none"/><g transform="translate(-134.341 130.72)scale(.59633)"><text xml:space="preserve" x="287.085" y="-176.479" style="font-style:normal;font-weight:400;font-size:40px;line-height:1.25;font-family:sans-serif;letter-spacing:0;word-spacing:0;fill:#000;fill-opacity:1;stroke:none"><tspan x="287.085" y="-176.479"> </tspan></text><rect width="108.018" height="108.018" x="256.411" y="-189.476" ry="8.451" style="fill:#fff;fill-opacity:1;stroke:#909090;stroke-width:.98198199;stroke-opacity:1"/><rect width="4.7" height="4.483" x="311.086" y="-137.826" rx="0" ry="0" style="opacity:1;fill:#35c0ed;fill-opacity:.82178219;stroke:#030303;stroke-width:0;stroke-linecap:butt;stroke-linejoin:miter;stroke-miterlimit:4;stroke-dasharray:none;stroke-dashoffset:0;stroke-opacity:1"/><rect width="4.7" height="4.483" x="311.086" y="-122.003" rx="0" ry="0" style="opacity:1;fill:#35c0ed;fill-opacity:.82178219;stroke:#030303;stroke-width:0;stroke-linecap:butt;stroke-linejoin:miter;stroke-miterlimit:4;stroke-dasharray:none;stroke-dashoffset:0;stroke-opacity:1"/><rect width="4.7" height="4.483" x="311.086" y="-127.277" rx="0" ry="0" style="opacity:1;fill:#35c0ed;fill-opacity:.82178219;stroke:#030303;stroke-width:0;stroke-linecap:butt;stroke-linejoin:miter;stroke-miterlimit:4;stroke-dasharray:none;stroke-dashoffset:0;stroke-opacity:1"/><path d="M262.409-110.306h96.207v1.937h-96.207z" style="opacity:1;vector-effect:none;fill:#909090;fill-opacity:1;stroke:none;stroke-width:.16765696;stroke-linecap:butt;stroke-linejoin:miter;stroke-miterlimit:4;stroke-dasharray:none;stroke-dashoffset:0;stroke-opacity:1"/><path d="M261.693-123.326h96.49v1.943h-96.49z" style="opacity:1;vector-effect:none;fill:#909090;fill-opacity:1;stroke:none;stroke-width:.5113343;stroke-linecap:round;stroke-linejoin:miter;stroke-miterlimit:4;stroke-dasharray:none;stroke-dashoffset:0;stroke-opacity:1"/><g style="fill:#909090;fill-opacity:1" transform="matrix(.17044 0 0 .17044 249.642 -169.97)"><path d="M101.95 130.716a17.767 17.767 0 1 1-35.534 0 17.767 17.767 0 1 1 35.534 0" style="opacity:1;fill:#909090;fill-opacity:1;stroke:none;stroke-width:3;stroke-linecap:round;stroke-linejoin:miter;stroke-miterlimit:4;stroke-dasharray:none;stroke-dashoffset:0;stroke-opacity:1" transform="translate(429.923 31.968)"/><path d="M101.95 130.716a17.767 17.767 0 1 1-35.534 0 17.767 17.767 0 1 1 35.534 0" style="opacity:1;fill:#909090;fill-opacity:1;stroke:none;stroke-width:3;stroke-linecap:round;stroke-linejoin:miter;stroke-miterlimit:4;stroke-dasharray:none;stroke-dashoffset:0;stroke-opacity:1" transform="translate(429.923 111.468)"/><path d="M555.5 45.048h16v313.041h-16z" style="opacity:1;fill:#909090;fill-opacity:1;stroke:none;stroke-width:3;stroke-linecap:round;stroke-linejoin:miter;stroke-miterlimit:4;stroke-dasharray:none;stroke-dashoffset:0;stroke-opacity:1"/><rect width="49" height="319" x="594.5" y="42.934" ry="2.538" style="opacity:1;fill:#909090;fill-opacity:1;stroke:none;stroke-width:3;stroke-linecap:round;stroke-linejoin:miter;stroke-miterlimit:4;stroke-dasharray:none;stroke-dashoffset:0;stroke-opacity:1"/></g><g style="opacity:1;vector-effect:none;fill:#909090;fill-opacity:1;stroke:none;stroke-width:3;stroke-linecap:round;stroke-linejoin:miter;stroke-miterlimit:4;stroke-dasharray:none;stroke-dashoffset:0;stroke-opacity:1" transform="matrix(-.17044 0 0 -.17044 371.198 -100.963)"><path d="M101.95 130.716a17.767 17.767 0 1 1-35.534 0 17.767 17.767 0 1 1 35.534 0" style="opacity:1;vector-effect:none;fill:#909090;fill-opacity:1;stroke:none;stroke-width:3;stroke-linecap:round;stroke-linejoin:miter;stroke-miterlimit:4;stroke-dasharray:none;stroke-dashoffset:0;stroke-opacity:1" transform="translate(429.923 31.968)"/><path d="M101.95 130.716a17.767 17.767 0 1 1-35.534 0 17.767 17.767 0 1 1 35.534 0" style="opacity:1;vector-effect:none;fill:#909090;fill-opacity:1;stroke:none;stroke-width:3;stroke-linecap:round;stroke-linejoin:miter;stroke-miterlimit:4;stroke-dasharray:none;stroke-dashoffset:0;stroke-opacity:1" transform="translate(429.923 111.468)"/><path d="M555.5 45.048h16v313.041h-16z" style="opacity:1;vector-effect:none;fill:#909090;fill-opacity:1;stroke:none;stroke-width:3;stroke-linecap:round;stroke-linejoin:miter;stroke-miterlimit:4;stroke-dasharray:none;stroke-dashoffset:0;stroke-opacity:1"/><rect width="49" height="319" x="594.5" y="42.934" ry="2.538" style="opacity:1;vector-effect:none;fill:#909090;fill-opacity:1;stroke:none;stroke-width:3;stroke-linecap:round;stroke-linejoin:miter;stroke-miterlimit:4;stroke-dasharray:none;stroke-dashoffset:0;stroke-opacity:1"/></g><path d="M262.024-162.574h95.999v1.933h-95.999z" style="opacity:1;vector-effect:none;fill:#909090;fill-opacity:1;stroke:none;stroke-width:.16729446;stroke-linecap:butt;stroke-linejoin:miter;stroke-miterlimit:4;stroke-dasharray:none;stroke-dashoffset:0;stroke-opacity:1"/><path d="M261.87-136.36h97.183v1.956H261.87zM262.047-149.48h97.183v1.956h-97.183z" style="opacity:1;vector-effect:none;fill:#909090;fill-opacity:1;stroke:none;stroke-width:.16935654;stroke-linecap:butt;stroke-linejoin:miter;stroke-miterlimit:4;stroke-dasharray:none;stroke-dashoffset:0;stroke-opacity:1"/><rect width="4.862" height="4.637" x="311.005" y="-164.276" rx="0" ry="0" style="opacity:1;fill:#35c0ed;fill-opacity:.82178219;stroke:#030303;stroke-width:0;stroke-linecap:butt;stroke-linejoin:miter;stroke-miterlimit:4;stroke-dasharray:none;stroke-dashoffset:0;stroke-opacity:1"/><rect width="4.862" height="4.637" x="311.005" y="-169.551" rx="0" ry="0" style="opacity:1;fill:#35c0ed;fill-opacity:.82178219;stroke:#030303;stroke-width:0;stroke-linecap:butt;stroke-linejoin:miter;stroke-miterlimit:4;stroke-dasharray:none;stroke-dashoffset:0;stroke-opacity:1"/><rect width="4.862" height="4.637" x="311.005" y="-174.825" rx="0" ry="0" style="opacity:1;fill:#35c0ed;fill-opacity:.82178219;stroke:#030303;stroke-width:0;stroke-linecap:butt;stroke-linejoin:miter;stroke-miterlimit:4;stroke-dasharray:none;stroke-dashoffset:0;stroke-opacity:1"/><rect width="4.862" height="4.637" x="311.005" y="-180.1" rx="0" ry="0" style="opacity:1;fill:#35c0ed;fill-opacity:.82178219;stroke:#030303;stroke-width:0;stroke-linecap:butt;stroke-linejoin:miter;stroke-miterlimit:4;stroke-dasharray:none;stroke-dashoffset:0;stroke-opacity:1"/><rect width="4.862" height="4.637" x="294.413" y="-106.257" rx="0" ry="0" style="opacity:1;fill:#35c0ed;fill-opacity:.82178219;stroke:#030303;stroke-width:0;stroke-linecap:butt;stroke-linejoin:miter;stroke-miterlimit:4;stroke-dasharray:none;stroke-dashoffset:0;stroke-opacity:1"/><rect width="4.862" height="4.637" x="299.943" y="-106.257" rx="0" ry="0" style="opacity:1;fill:#35c0ed;fill-opacity:.82178219;stroke:#030303;stroke-width:0;stroke-linecap:butt;stroke-linejoin:miter;stroke-miterlimit:4;stroke-dasharray:none;stroke-dashoffset:0;stroke-opacity:1"/><rect width="4.862" height="4.637" x="294.413" y="-100.982" rx="0" ry="0" style="opacity:1;fill:#35c0ed;fill-opacity:.82178219;stroke:#030303;stroke-width:0;stroke-linecap:butt;stroke-linejoin:miter;stroke-miterlimit:4;stroke-dasharray:none;stroke-dashoffset:0;stroke-opacity:1"/><rect width="4.862" height="4.637" x="299.943" y="-100.982" rx="0" ry="0" style="opacity:1;fill:#35c0ed;fill-opacity:.82178219;stroke:#030303;stroke-width:0;stroke-linecap:butt;stroke-linejoin:miter;stroke-miterlimit:4;stroke-dasharray:none;stroke-dashoffset:0;stroke-opacity:1"/><rect width="4.862" height="4.637" x="294.413" y="-95.707" rx="0" ry="0" style="opacity:1;fill:#35c0ed;fill-opacity:.82178219;stroke:#030303;stroke-width:0;stroke-linecap:butt;stroke-linejoin:miter;stroke-miterlimit:4;stroke-dasharray:none;stroke-dashoffset:0;stroke-opacity:1"/><rect width="4.862" height="4.637" x="299.943" y="-95.707" rx="0" ry="0" style="opacity:1;fill:#35c0ed;fill-opacity:.82178219;stroke:#030303;stroke-width:0;stroke-linecap:butt;stroke-linejoin:miter;stroke-miterlimit:4;stroke-dasharray:none;stroke-dashoffset:0;stroke-opacity:1"/><rect width="4.862" height="4.637" x="311.005" y="-111.531" rx="0" ry="0" style="opacity:1;fill:#35c0ed;fill-opacity:.82178219;stroke:#030303;stroke-width:0;stroke-linecap:butt;stroke-linejoin:miter;stroke-miterlimit:4;stroke-dasharray:none;stroke-dashoffset:0;stroke-opacity:1"/><rect width="4.862" height="4.637" x="311.005" y="-116.806" rx="0" ry="0" style="opacity:1;fill:#35c0ed;fill-opacity:.82178219;stroke:#030303;stroke-width:0;stroke-linecap:butt;stroke-linejoin:miter;stroke-miterlimit:4;stroke-dasharray:none;stroke-dashoffset:0;stroke-opacity:1"/><rect width="4.862" height="4.637" x="283.351" y="-106.257" rx="0" ry="0" style="opacity:1;fill:#35c0ed;fill-opacity:.82178219;stroke:#030303;stroke-width:0;stroke-linecap:butt;stroke-linejoin:miter;stroke-miterlimit:4;stroke-dasharray:none;stroke-dashoffset:0;stroke-opacity:1"/><rect width="4.7" height="4.483" x="311.086" y="-185.297" rx="0" ry="0" style="opacity:1;fill:#35c0ed;fill-opacity:.82178219;stroke:#030303;stroke-width:0;stroke-linecap:butt;stroke-linejoin:miter;stroke-miterlimit:4;stroke-dasharray:none;stroke-dashoffset:0;stroke-opacity:1"/><rect width="4.7" height="4.483" x="283.432" y="-100.905" rx="0" ry="0" style="opacity:1;fill:#35c0ed;fill-opacity:.82178219;stroke:#030303;stroke-width:0;stroke-linecap:butt;stroke-linejoin:miter;stroke-miterlimit:4;stroke-dasharray:none;stroke-dashoffset:0;stroke-opacity:1"/><rect width="4.7" height="4.483" x="316.617" y="-174.748" rx="0" ry="0" style="opacity:1;fill:#35c0ed;fill-opacity:.82178219;stroke:#030303;stroke-width:0;stroke-linecap:butt;stroke-linejoin:miter;stroke-miterlimit:4;stroke-dasharray:none;stroke-dashoffset:0;stroke-opacity:1"/><rect width="4.7" height="4.483" x="283.432" y="-95.63" rx="0" ry="0" style="opacity:1;fill:#35c0ed;fill-opacity:.82178219;stroke:#030303;stroke-width:0;stroke-linecap:butt;stroke-linejoin:miter;stroke-miterlimit:4;stroke-dasharray:none;stroke-dashoffset:0;stroke-opacity:1"/><rect width="4.7" height="4.483" x="316.617" y="-169.474" rx="0" ry="0" style="opacity:1;fill:#35c0ed;fill-opacity:.82178219;stroke:#030303;stroke-width:0;stroke-linecap:butt;stroke-linejoin:miter;stroke-miterlimit:4;stroke-dasharray:none;stroke-dashoffset:0;stroke-opacity:1"/><rect width="4.7" height="4.483" x="311.086" y="-158.924" rx="0" ry="0" style="opacity:1;fill:#35c0ed;fill-opacity:.82178219;stroke:#030303;stroke-width:0;stroke-linecap:butt;stroke-linejoin:miter;stroke-miterlimit:4;stroke-dasharray:none;stroke-dashoffset:0;stroke-opacity:1"/><rect width="4.7" height="4.483" x="322.147" y="-169.474" rx="0" ry="0" style="opacity:1;fill:#35c0ed;fill-opacity:.82178219;stroke:#030303;stroke-width:0;stroke-linecap:butt;stroke-linejoin:miter;stroke-miterlimit:4;stroke-dasharray:none;stroke-dashoffset:0;stroke-opacity:1"/><rect width="4.7" height="4.483" x="305.555" y="-111.454" rx="0" ry="0" style="opacity:1;fill:#35c0ed;fill-opacity:.82178219;stroke:#030303;stroke-width:0;stroke-linecap:butt;stroke-linejoin:miter;stroke-miterlimit:4;stroke-dasharray:none;stroke-dashoffset:0;stroke-opacity:1"/><rect width="4.7" height="4.483" x="311.086" y="-132.552" rx="0" ry="0" style="opacity:1;fill:#35c0ed;fill-opacity:.82178219;stroke:#030303;stroke-width:0;stroke-linecap:butt;stroke-linejoin:miter;stroke-miterlimit:4;stroke-dasharray:none;stroke-dashoffset:0;stroke-opacity:1"/><rect width="4.7" height="4.483" x="305.555" y="-106.179" rx="0" ry="0" style="opacity:1;fill:#35c0ed;fill-opacity:.82178219;stroke:#030303;stroke-width:0;stroke-linecap:butt;stroke-linejoin:miter;stroke-miterlimit:4;stroke-dasharray:none;stroke-dashoffset:0;stroke-opacity:1"/><rect width="4.7" height="4.483" x="305.555" y="-100.905" rx="0" ry="0" style="opacity:1;fill:#35c0ed;fill-opacity:.82178219;stroke:#030303;stroke-width:0;stroke-linecap:butt;stroke-linejoin:miter;stroke-miterlimit:4;stroke-dasharray:none;stroke-dashoffset:0;stroke-opacity:1"/><rect width="4.7" height="4.483" x="300.024" y="-111.454" rx="0" ry="0" style="opacity:1;fill:#35c0ed;fill-opacity:.82178219;stroke:#030303;stroke-width:0;stroke-linecap:butt;stroke-linejoin:miter;stroke-miterlimit:4;stroke-dasharray:none;stroke-dashoffset:0;stroke-opacity:1"/><rect width="4.7" height="4.483" x="288.963" y="-111.454" rx="0" ry="0" style="opacity:1;fill:#35c0ed;fill-opacity:.82178219;stroke:#030303;stroke-width:0;stroke-linecap:butt;stroke-linejoin:miter;stroke-miterlimit:4;stroke-dasharray:none;stroke-dashoffset:0;stroke-opacity:1"/><rect width="4.7" height="4.483" x="294.494" y="-111.454" rx="0" ry="0" style="opacity:1;fill:#35c0ed;fill-opacity:.82178219;stroke:#030303;stroke-width:0;stroke-linecap:butt;stroke-linejoin:miter;stroke-miterlimit:4;stroke-dasharray:none;stroke-dashoffset:0;stroke-opacity:1"/><rect width="4.7" height="4.483" x="288.963" y="-106.179" rx="0" ry="0" style="opacity:1;fill:#35c0ed;fill-opacity:.82178219;stroke:#030303;stroke-width:0;stroke-linecap:butt;stroke-linejoin:miter;stroke-miterlimit:4;stroke-dasharray:none;stroke-dashoffset:0;stroke-opacity:1"/><rect width="4.7" height="4.483" x="311.086" y="-153.65" rx="0" ry="0" style="opacity:1;fill:#35c0ed;fill-opacity:.82178219;stroke:#030303;stroke-width:0;stroke-linecap:butt;stroke-linejoin:miter;stroke-miterlimit:4;stroke-dasharray:none;stroke-dashoffset:0;stroke-opacity:1"/><rect width="4.7" height="4.483" x="288.963" y="-100.905" rx="0" ry="0" style="opacity:1;fill:#35c0ed;fill-opacity:.82178219;stroke:#030303;stroke-width:0;stroke-linecap:butt;stroke-linejoin:miter;stroke-miterlimit:4;stroke-dasharray:none;stroke-dashoffset:0;stroke-opacity:1"/><rect width="4.7" height="4.483" x="311.086" y="-148.375" rx="0" ry="0" style="opacity:1;fill:#35c0ed;fill-opacity:.82178219;stroke:#030303;stroke-width:0;stroke-linecap:butt;stroke-linejoin:miter;stroke-miterlimit:4;stroke-dasharray:none;stroke-dashoffset:0;stroke-opacity:1"/><rect width="4.7" height="4.483" x="288.963" y="-95.63" rx="0" ry="0" style="opacity:1;fill:#35c0ed;fill-opacity:.82178219;stroke:#030303;stroke-width:0;stroke-linecap:butt;stroke-linejoin:miter;stroke-miterlimit:4;stroke-dasharray:none;stroke-dashoffset:0;stroke-opacity:1"/><rect width="4.7" height="4.483" x="311.086" y="-143.101" rx="0" ry="0" style="opacity:1;fill:#35c0ed;fill-opacity:.82178219;stroke:#030303;stroke-width:0;stroke-linecap:butt;stroke-linejoin:miter;stroke-miterlimit:4;stroke-dasharray:none;stroke-dashoffset:0;stroke-opacity:1"/><rect width="4.7" height="4.483" x="277.901" y="-95.63" rx="0" ry="0" style="opacity:1;fill:#35c0ed;fill-opacity:.82178219;stroke:#030303;stroke-width:0;stroke-linecap:butt;stroke-linejoin:miter;stroke-miterlimit:4;stroke-dasharray:none;stroke-dashoffset:0;stroke-opacity:1"/><rect width="4.7" height="4.483" x="277.901" y="-100.905" rx="0" ry="0" style="opacity:1;fill:#35c0ed;fill-opacity:.82178219;stroke:#030303;stroke-width:0;stroke-linecap:butt;stroke-linejoin:miter;stroke-miterlimit:4;stroke-dasharray:none;stroke-dashoffset:0;stroke-opacity:1"/><rect width="4.7" height="4.483" x="283.432" y="-90.356" rx="0" ry="0" style="opacity:1;fill:#35c0ed;fill-opacity:.82178219;stroke:#030303;stroke-width:0;stroke-linecap:butt;stroke-linejoin:miter;stroke-miterlimit:4;stroke-dasharray:none;stroke-dashoffset:0;stroke-opacity:1"/><rect width="4.7" height="4.483" x="294.494" y="-90.356" rx="0" ry="0" style="opacity:1;fill:#35c0ed;fill-opacity:.82178219;stroke:#030303;stroke-width:0;stroke-linecap:butt;stroke-linejoin:miter;stroke-miterlimit:4;stroke-dasharray:none;stroke-dashoffset:0;stroke-opacity:1"/><rect width="4.7" height="4.483" x="288.963" y="-90.356" rx="0" ry="0" style="opacity:1;fill:#35c0ed;fill-opacity:.82178219;stroke:#030303;stroke-width:0;stroke-linecap:butt;stroke-linejoin:miter;stroke-miterlimit:4;stroke-dasharray:none;stroke-dashoffset:0;stroke-opacity:1"/><path d="M311.086-100.905h4.7l-4.7 4.483zM305.555-95.63h4.7l-4.7 4.482zM300.024-90.356h4.7l-4.7 4.483zM282.62-90.336v4.7l-4.482-4.7zM282.602-101.697h-4.7l4.7-4.482zM288.132-106.971h-4.7l4.7-4.483z" style="fill:#35c0ed;fill-opacity:.82178219;stroke:none;stroke-width:1.33082902px;stroke-linecap:butt;stroke-linejoin:miter;stroke-opacity:1"/><rect width="4.7" height="4.483" x="311.086" y="-106.179" rx="0" ry="0" style="opacity:1;fill:#35c0ed;fill-opacity:.82178219;stroke:#030303;stroke-width:0;stroke-linecap:butt;stroke-linejoin:miter;stroke-miterlimit:4;stroke-dasharray:none;stroke-dashoffset:0;stroke-opacity:1"/><path d="M316.597-175.56v-4.7l4.483 4.7zM322.128-170.285v-4.7l4.483 4.7zM327.659-165.01v-4.7l4.483 4.7zM332.934-159.48v-4.7l4.482 4.7zM332.142-164.18v4.7l-4.483-4.7zM338.238-133.795h4.7l-4.7 4.483zM332.789-128.598h4.7l-4.7 4.483zM337.489-129.312h-4.7l4.7-4.483z" style="fill:#35c0ed;fill-opacity:.82178219;stroke:none;stroke-width:1.33082902px;stroke-linecap:butt;stroke-linejoin:miter;stroke-opacity:1"/><rect width="4.309" height="4.109" x="338.364" y="-143.569" rx="0" ry="0" style="opacity:1;fill:#35c0ed;fill-opacity:.82178219;stroke:#030303;stroke-width:0;stroke-linecap:butt;stroke-linejoin:miter;stroke-miterlimit:4;stroke-dasharray:none;stroke-dashoffset:0;stroke-opacity:1"/><rect width="4.309" height="4.109" x="338.364" y="-148.393" rx="0" ry="0" style="opacity:1;fill:#35c0ed;fill-opacity:.82178219;stroke:#030303;stroke-width:0;stroke-linecap:butt;stroke-linejoin:miter;stroke-miterlimit:4;stroke-dasharray:none;stroke-dashoffset:0;stroke-opacity:1"/><path d="M337.416-158.649v4.7l-4.482-4.7zM338.208-153.949v-4.7l4.483 4.7z" style="fill:#35c0ed;fill-opacity:.82178219;stroke:none;stroke-width:1.33082902px;stroke-linecap:butt;stroke-linejoin:miter;stroke-opacity:1"/><rect width="4.309" height="4.109" x="338.364" y="-138.745" rx="0" ry="0" style="opacity:1;fill:#35c0ed;fill-opacity:.82178219;stroke:#030303;stroke-width:0;stroke-linecap:butt;stroke-linejoin:miter;stroke-miterlimit:4;stroke-dasharray:none;stroke-dashoffset:0;stroke-opacity:1"/><rect width="4.309" height="4.109" x="338.364" y="-153.217" rx="0" ry="0" style="opacity:1;fill:#35c0ed;fill-opacity:.82178219;stroke:#030303;stroke-width:0;stroke-linecap:butt;stroke-linejoin:miter;stroke-miterlimit:4;stroke-dasharray:none;stroke-dashoffset:0;stroke-opacity:1"/></g><g aria-label="alda" style="font-style:normal;font-weight:400;font-size:85.33333588px;line-height:1.25;font-family:sans-serif;letter-spacing:0;word-spacing:0;opacity:1;vector-effect:none;fill:#000;fill-opacity:1;stroke:none;stroke-width:.16935654;stroke-linecap:butt;stroke-linejoin:miter;stroke-miterlimit:4;stroke-dasharray:none;stroke-dashoffset:0;stroke-opacity:1"><path d="M172.379 81.583q-.459-.875-.75-2.166-.25-1.334-.375-2.75-1.167 1.166-2.625 2.208-1.417 1.042-3.167 1.833-1.708.792-3.667 1.25-1.958.459-4.166.459-3.584 0-6.5-1.042-2.875-1.042-4.917-2.792-2-1.791-3.125-4.208-1.083-2.458-1.083-5.292 0-3.708 1.458-6.5 1.5-2.791 4.208-4.625 2.709-1.875 6.5-2.791 3.834-.917 8.542-.917h8.417v-3.542q0-2.041-.75-3.666t-2.125-2.75q-1.375-1.167-3.375-1.792-1.959-.625-4.417-.625-2.292 0-4.125.583-1.792.584-3.042 1.542t-1.958 2.292q-.667 1.291-.667 2.708h-7.75q.042-2.458 1.25-4.833 1.25-2.375 3.542-4.25 2.333-1.917 5.625-3.084 3.333-1.166 7.542-1.166 3.833 0 7.125.958 3.291.917 5.666 2.833 2.417 1.875 3.792 4.709t1.375 6.625V71.75q0 2.25.417 4.792.416 2.5 1.166 4.375v.666zm-13.625-5.875q2.25 0 4.208-.583t3.542-1.542q1.625-.958 2.791-2.166 1.167-1.25 1.834-2.584v-9.125h-7.167q-6.75 0-10.5 2T149.712 68q0 1.667.542 3.083.583 1.417 1.708 2.459 1.125 1 2.833 1.583t3.959.583M195.129 17.583h23.041v57.334h14.709v6.666h-37.75v-6.666h15.333V24.292H195.13zM243.629 58.667q0-5.042 1.25-9.25 1.291-4.25 3.625-7.292 2.375-3.042 5.708-4.75t7.458-1.708q4.042 0 7.042 1.375 3.042 1.333 5.25 3.916V17.583h7.708v64h-7.083l-.333-4.75q-2.25 2.75-5.375 4.167t-7.292 1.417q-4.083 0-7.417-1.75-3.291-1.75-5.625-4.834t-3.625-7.25q-1.291-4.208-1.291-9.041zm7.708.875q0 3.291.708 6.25.709 2.958 2.167 5.208 1.5 2.25 3.792 3.583 2.291 1.292 5.5 1.292 1.958 0 3.541-.458 1.584-.459 2.875-1.292 1.292-.875 2.292-2.042 1-1.208 1.75-2.666V48.5q-1.5-2.75-4.042-4.5-2.541-1.792-6.333-1.792-3.25 0-5.583 1.334-2.292 1.333-3.792 3.625-1.458 2.25-2.167 5.25-.708 2.958-.708 6.25zM325.879 81.583q-.459-.875-.75-2.166-.25-1.334-.375-2.75-1.167 1.166-2.625 2.208-1.417 1.042-3.167 1.833-1.708.792-3.667 1.25-1.958.459-4.166.459-3.584 0-6.5-1.042-2.875-1.042-4.917-2.792-2-1.791-3.125-4.208-1.083-2.458-1.083-5.292 0-3.708 1.458-6.5 1.5-2.791 4.208-4.625 2.709-1.875 6.5-2.791 3.834-.917 8.542-.917h8.417v-3.542q0-2.041-.75-3.666t-2.125-2.75q-1.375-1.167-3.375-1.792-1.959-.625-4.417-.625-2.292 0-4.125.583-1.792.584-3.042 1.542t-1.958 2.292q-.667 1.291-.667 2.708h-7.75q.042-2.458 1.25-4.833 1.25-2.375 3.542-4.25 2.333-1.917 5.625-3.084 3.333-1.166 7.542-1.166 3.833 0 7.125.958 3.291.917 5.666 2.833 2.417 1.875 3.792 4.709t1.375 6.625V71.75q0 2.25.417 4.792.416 2.5 1.166 4.375v.666zm-13.625-5.875q2.25 0 4.208-.583t3.542-1.542q1.625-.958 2.791-2.166 1.167-1.25 1.834-2.584v-9.125h-7.167q-6.75 0-10.5 2T303.212 68q0 1.667.542 3.083.583 1.417 1.708 2.459 1.125 1 2.833 1.583t3.959.583" style="font-style:normal;font-variant:normal;font-weight:400;font-stretch:normal;font-size:85.33333588px;font-family:&quot;Roboto Mono for Powerline&quot;;-inkscape-font-specification:&quot;Roboto Mono for Powerline&quot;;font-variant-ligatures:normal;font-variant-caps:normal;font-variant-numeric:normal;font-feature-settings:normal;text-align:start;writing-mode:lr-tb;text-anchor:start;vector-effect:none;fill:#000;fill-opacity:1;stroke:none;stroke-width:.16935654;stroke-linecap:butt;stroke-linejoin:miter;stroke-miterlimit:4;stroke-dasharray:none;stroke-dashoffset:0;stroke-opacity:1" transform="translate(-27.192 .146)"/></g></svg>