<svg xmlns="http://www.w3.org/2000/svg" fill="none" class="mojo-hero_logo" viewBox="0 0 80 80"><path fill="#FF4C1F" d="M66.538 33.902c.671 2.56-2.186 5.29-2.186 5.29s-5.21 3.321-4.194-10.931C61.175 14.008 37.83 0 37.83 0s.133 1.359-.006 10.754c-.175 11.824-7.23 7.77-7.23 7.77-7.06 7.285-6.418 23.737-6.418 23.737-8.741 7.445-9.047-8.035-9.047-8.035s-16.643 16.187 1.155 33.53c0 0 2.61 2.512-1.561 1.712-2.975-.57-3.647-1.716-3.647-1.716s.568 7.178 21.554 11.671c.408.08 6.93 1.317 14.297-.1 16.167-3.496 18.99-9.994 18.99-9.994s-.343.586-3.025.848c-2.883.282-.408-2.395-.408-2.395 18.994-11.487 3.384-36.44 4.055-33.88"/><path fill="#FF9C45" d="M59.625 57.543c3.783-5.707.887-9.96.887-9.96-5.928 2.934-7.7.881-8.224-.782a4.3 4.3 0 0 1-.123-2.036c3.848-21.661-11.03-33.37-10.658-30.478.113.875-.043 2.023-.319 3.201-.65 2.791-1.892 5.42-3.586 7.767-2.331 3.234-6.546 10.172-8.84 20.608-3.284 14.94-12.728 4.122-12.728 4.122S10.501 68.195 33.05 79.5c1.328.222 5.53.806 10.596.3 14.816-6.712 20.136-19.824 20.136-19.824s-7.94 3.275-4.157-2.432"/><path fill="#FFDD56" d="m54.458 53.66.003-.007zM54.458 53.66c-.077.19-1.666 3.903-7.56 4.847-6.047.968-3.39-19.328-3.39-19.328-14.87 6.782-12.109 22.72-12.109 22.72s-2.376 2.207-5.418-.004c-1.034-.75 1.228 12.806 10.947 18.025 1.803.109 4.056.131 6.518-.102 6.691-4.478 10.255-18.514 10.255-18.514l-3.07 1.825z"/><path fill="#FF4C1F" d="M11.761 32.248s-.867-7.347 3.382-10.59c.664-.507 1.111-.918 1.44-1.671.266-.612.68-1.584.479-2.312-.503-1.824 5.665 8.263-5.3 14.573"/><path fill="#FCFBCC" d="M43.492 79.815c2.702-2.734 6.31-13.659 6.31-13.659s-.782 2.238-3.697 1.942c-4.01-.408-6.21-10.694-6.21-10.694s-3.336 8.744-4.037 10.04c-1.476 2.728-4.2-.003-4.2-.003-.724 4.446 5.024 10.819 6.673 12.543 1.53.041 3.284.01 5.161-.17"/></svg>