<?xml version="1.0" encoding="UTF-8" standalone="no"?><!DOCTYPE svg PUBLIC "-//W3C//DTD SVG 1.1//EN" "http://www.w3.org/Graphics/SVG/1.1/DTD/svg11.dtd"><svg width="100%" height="100%" viewBox="0 0 3334 3334" version="1.1" xmlns="http://www.w3.org/2000/svg" xmlns:xlink="http://www.w3.org/1999/xlink" xml:space="preserve" xmlns:serif="http://www.serif.com/" style="fill-rule:evenodd;clip-rule:evenodd;stroke-linejoin:round;stroke-miterlimit:2;"><g><path d="M752.401,939.908l-0,-930.691l778.769,-0l0,1227.69l-778.769,-296.998Zm-0,291.525l533.777,203.928l-533.777,203.933l-0,-407.861Zm778.769,401.016l0,450.291l-377.753,1241.38l-401.016,-0l-0,-1393.3l778.769,-298.37Zm1049.76,-692.541l-0,-930.691l-778.77,-0l0,1227.69l778.77,-296.998Zm-0,291.525l-533.778,203.928l533.778,203.933l-0,-407.861Zm-778.77,401.016l0,450.291l377.754,1241.38l401.016,-0l-0,-1393.3l-778.77,-298.37Z" style="fill:#fff;fill-rule:nonzero;stroke:#000;stroke-width:10.36px;"/></g></svg>