<svg xmlns="http://www.w3.org/2000/svg" xml:space="preserve" style="fill-rule:evenodd;clip-rule:evenodd;stroke-linejoin:round;stroke-miterlimit:2" viewBox="0 0 1067 1067"><path d="M6.44 415.238h25.011v220.337H6.44z" style="fill:url(#a)"/><path d="M301.939 415.737h34.319v211.856h-34.319z" style="fill:url(#b)"/><path d="M35.556 375.221h255.92v17.853H35.556z" style="fill:#f3f3f3"/><path d="m28.66 424.001-22.22-7.396v-17.137c1.094-15.634 14.459-24.241 24.785-24.241l4.716-.005 7.982 31.669z" style="fill:url(#c);fill-rule:nonzero"/><path d="m303.035 437.995 33.223-20.837v-18.55c-.775-8.707-7.794-22.653-25.085-23.392l-22.865.005-7.89 38.312z" style="fill:url(#d);fill-rule:nonzero"/><path d="m298.042 619.059 38.215 7.402v41.595c-.776 8.706-7.794 22.652-25.086 23.391H290.71l-6.801-37.464z" style="fill:url(#e);fill-rule:nonzero"/><path d="M44.372 627.25 6.44 625.603v41.595c1.094 15.634 14.459 24.241 24.785 24.241h20.712l8.265-36.617z" style="fill:url(#f);fill-rule:nonzero"/><path d="M51.046 632.739h240.121v58.701H51.046z" style="fill:#b7b7b7"/><path d="M664.01 414.752h34.319v211.856H664.01z" style="fill:url(#g)"/><path d="M397.421 375.221h253.937v20.252H397.421z" style="fill:#f3f3f3"/><path d="m390.36 424.001-22.221-7.396v-17.137c1.094-15.634 14.46-24.241 24.785-24.241l4.716-.005 7.983 31.669z" style="fill:url(#h);fill-rule:nonzero"/><path d="m665.106 437.995 33.223-20.837v-18.55c-.776-8.707-7.794-22.653-25.086-23.392l-22.865.005-.538 45.664z" style="fill:url(#i);fill-rule:nonzero"/><path d="M1025.88 414.752h34.319v211.856h-34.319z" style="fill:url(#j)"/><path d="M759.287 375.221h253.937v26.052H759.287z" style="fill:#f3f3f3"/><path d="m759.338 434.197-29.337-17.593v-17.136c1.094-15.634 14.46-24.241 24.785-24.241l4.716-.005 7.982 31.669z" style="fill:url(#k);fill-rule:nonzero"/><path d="m1026.97 437.995 33.223-20.837v-18.55c-.775-8.707-7.794-22.653-25.086-23.392l-22.864.005-.539 45.664z" style="fill:url(#l);fill-rule:nonzero"/><path d="m660.147 619.059 38.214 7.402v41.595c-.775 8.706-7.794 22.652-25.085 23.391h-20.461l-7.932-55.277z" style="fill:url(#m);fill-rule:nonzero"/><path d="m768.212 618.204-38.214 7.402v41.595c1.094 15.634 14.459 24.241 24.785 24.241h20.712l7.982-56.127z" style="fill:url(#n);fill-rule:nonzero"/><path d="m1022.01 619.059 38.215 7.402v41.595c-.776 8.706-7.794 22.652-25.086 23.391h-20.461l-7.932-55.277z" style="fill:url(#o);fill-rule:nonzero"/><path d="m405.355 629.609-37.214-3.995v41.595c1.094 15.634 14.46 24.241 24.785 24.241h20.712l17.379-43.132z" style="fill:url(#p);fill-rule:nonzero"/><path d="M413.631 632.739h243.506v58.701H413.631z" style="fill:#b7b7b7"/><path d="M368.131 413.754h29.02V635.22h-29.02z" style="fill:url(#q)"/><path d="M392.805 390.535h280.577V664.05H392.805z" style="fill:url(#r)"/><path d="M772.111 632.739h248.038v58.701H772.111z" style="fill:#b7b7b7"/><path d="M729.996 413.754h29.821v219.209h-29.821z" style="fill:url(#s)"/><path d="M759.338 390.535h280.543V664.05H759.338z" style="fill:url(#t)"/><path d="M23.445 390.535H303.03V664.05H23.445z" style="fill:url(#u)"/><path d="m110.089 610.476 6.852 20.171h10.231l-25.095-69.297H91.461l-26.059 69.297h9.651l7.239-20.171zm-24.901-8.3 11.099-30.498h.193l10.23 30.498zM487.789 590.487h-36.193v-28.665h-9.362v69.297h9.362v-32.332h36.193v32.332h9.362v-69.297h-9.362zM814.003 606.423 824.909 596l24.226 34.745h12.161l-29.629-41.308 28.858-27.989h-12.933l-33.588 33.587v-33.587h-9.361v69.297h9.361z" style="fill-rule:nonzero"/><defs><linearGradient id="a" x1="0" x2="1" y1="0" y2="0" gradientTransform="scale(218.8638)rotate(-83.438 1.636 1.429)" gradientUnits="userSpaceOnUse"><stop offset="0" style="stop-color:#cfd0d1;stop-opacity:1"/><stop offset="1" style="stop-color:#dbdbdb;stop-opacity:1"/></linearGradient><linearGradient id="b" x1="0" x2="1" y1="0" y2="0" gradientTransform="scale(-214.6202 214.6202)rotate(-80.798 .935 2.383)" gradientUnits="userSpaceOnUse"><stop offset="0" style="stop-color:#cfd0d1;stop-opacity:1"/><stop offset="1" style="stop-color:#dbdbdb;stop-opacity:1"/></linearGradient><linearGradient id="c" x1="0" x2="1" y1="0" y2="0" gradientTransform="scale(26.166)rotate(-34.276 26.423 6.492)" gradientUnits="userSpaceOnUse"><stop offset="0" style="stop-color:#dbdbdb;stop-opacity:1"/><stop offset="1" style="stop-color:#f3f3f3;stop-opacity:1"/></linearGradient><linearGradient id="d" x1="0" x2="1" y1="0" y2="0" gradientTransform="rotate(-124.791 263.08 125.195)scale(26.973)" gradientUnits="userSpaceOnUse"><stop offset="0" style="stop-color:#dbdbdb;stop-opacity:1"/><stop offset="1" style="stop-color:#f3f3f3;stop-opacity:1"/></linearGradient><linearGradient id="e" x1="0" x2="1" y1="0" y2="0" gradientTransform="scale(-26.166)rotate(-34.276 -46.276 7.33)" gradientUnits="userSpaceOnUse"><stop offset="0" style="stop-color:#cfd0d1;stop-opacity:1"/><stop offset="1" style="stop-color:#b7b7b7;stop-opacity:1"/></linearGradient><linearGradient id="f" x1="0" x2="1" y1="0" y2="0" gradientTransform="scale(26.166)rotate(34.276 -39.674 13.89)" gradientUnits="userSpaceOnUse"><stop offset="0" style="stop-color:#cfd0d1;stop-opacity:1"/><stop offset="1" style="stop-color:#b7b7b7;stop-opacity:1"/></linearGradient><linearGradient id="g" x1="0" x2="1" y1="0" y2="0" gradientTransform="scale(-214.6202 214.6202)rotate(-80.798 .088 3.371)" gradientUnits="userSpaceOnUse"><stop offset="0" style="stop-color:#cfd0d1;stop-opacity:1"/><stop offset="1" style="stop-color:#dbdbdb;stop-opacity:1"/></linearGradient><linearGradient id="h" x1="0" x2="1" y1="0" y2="0" gradientTransform="scale(26.166)rotate(-34.276 33.335 -15.921)" gradientUnits="userSpaceOnUse"><stop offset="0" style="stop-color:#dbdbdb;stop-opacity:1"/><stop offset="1" style="stop-color:#f3f3f3;stop-opacity:1"/></linearGradient><linearGradient id="i" x1="0" x2="1" y1="0" y2="0" gradientTransform="rotate(-124.791 444.107 30.538)scale(26.973)" gradientUnits="userSpaceOnUse"><stop offset="0" style="stop-color:#dbdbdb;stop-opacity:1"/><stop offset="1" style="stop-color:#f3f3f3;stop-opacity:1"/></linearGradient><linearGradient id="j" x1="0" x2="1" y1="0" y2="0" gradientTransform="scale(-214.6202 214.6202)rotate(-80.798 -.755 4.362)" gradientUnits="userSpaceOnUse"><stop offset="0" style="stop-color:#cfd0d1;stop-opacity:1"/><stop offset="1" style="stop-color:#dbdbdb;stop-opacity:1"/></linearGradient><linearGradient id="k" x1="0" x2="1" y1="0" y2="0" gradientTransform="scale(26.166)rotate(-34.276 40.249 -38.342)" gradientUnits="userSpaceOnUse"><stop offset="0" style="stop-color:#dbdbdb;stop-opacity:1"/><stop offset="1" style="stop-color:#f3f3f3;stop-opacity:1"/></linearGradient><linearGradient id="l" x1="0" x2="1" y1="0" y2="0" gradientTransform="rotate(-124.791 625.044 -64.072)scale(26.973)" gradientUnits="userSpaceOnUse"><stop offset="0" style="stop-color:#dbdbdb;stop-opacity:1"/><stop offset="1" style="stop-color:#f3f3f3;stop-opacity:1"/></linearGradient><linearGradient id="m" x1="0" x2="1" y1="0" y2="0" gradientTransform="scale(-26.166)rotate(-34.276 -53.195 29.77)" gradientUnits="userSpaceOnUse"><stop offset="0" style="stop-color:#cfd0d1;stop-opacity:1"/><stop offset="1" style="stop-color:#b7b7b7;stop-opacity:1"/></linearGradient><linearGradient id="n" x1="0" x2="1" y1="0" y2="0" gradientTransform="scale(26.166)rotate(34.276 -25.849 58.724)" gradientUnits="userSpaceOnUse"><stop offset="0" style="stop-color:#cfd0d1;stop-opacity:1"/><stop offset="1" style="stop-color:#b7b7b7;stop-opacity:1"/></linearGradient><linearGradient id="o" x1="0" x2="1" y1="0" y2="0" gradientTransform="scale(-26.166)rotate(-34.276 -60.11 52.192)" gradientUnits="userSpaceOnUse"><stop offset="0" style="stop-color:#cfd0d1;stop-opacity:1"/><stop offset="1" style="stop-color:#b7b7b7;stop-opacity:1"/></linearGradient><linearGradient id="p" x1="0" x2="1" y1="0" y2="0" gradientTransform="scale(26.166)rotate(34.276 -32.763 36.304)" gradientUnits="userSpaceOnUse"><stop offset="0" style="stop-color:#cfd0d1;stop-opacity:1"/><stop offset="1" style="stop-color:#b7b7b7;stop-opacity:1"/></linearGradient><linearGradient id="q" x1="0" x2="1" y1="0" y2="0" gradientTransform="scale(223.37)rotate(-82.535 2.444 .483)" gradientUnits="userSpaceOnUse"><stop offset="0" style="stop-color:#cfd0d1;stop-opacity:1"/><stop offset="1" style="stop-color:#dbdbdb;stop-opacity:1"/></linearGradient><linearGradient id="r" x1="0" x2="1" y1="0" y2="0" gradientTransform="translate(392.817 527.289)scale(140.278)" gradientUnits="userSpaceOnUse"><stop offset="0" style="stop-color:#f4f5f7;stop-opacity:1"/><stop offset="1" style="stop-color:#e9eaeb;stop-opacity:1"/></linearGradient><linearGradient id="s" x1="0" x2="1" y1="0" y2="0" gradientTransform="rotate(-82.253 727.45 -101.533)scale(221.2282)" gradientUnits="userSpaceOnUse"><stop offset="0" style="stop-color:#cfd0d1;stop-opacity:1"/><stop offset="1" style="stop-color:#dbdbdb;stop-opacity:1"/></linearGradient><linearGradient id="t" x1="0" x2="1" y1="0" y2="0" gradientTransform="translate(759.343 527.289)scale(140.264)" gradientUnits="userSpaceOnUse"><stop offset="0" style="stop-color:#f4f5f7;stop-opacity:1"/><stop offset="1" style="stop-color:#e9eaeb;stop-opacity:1"/></linearGradient><linearGradient id="u" x1="0" x2="1" y1="0" y2="0" gradientTransform="translate(23.445 527.289)scale(139.789)" gradientUnits="userSpaceOnUse"><stop offset="0" style="stop-color:#f4f5f7;stop-opacity:1"/><stop offset="1" style="stop-color:#e9eaeb;stop-opacity:1"/></linearGradient></defs></svg>