<svg width="16" height="16" viewBox="0 0 16 16" fill="none" xmlns="http://www.w3.org/2000/svg">
<circle cx="8" cy="8" r="7" stroke="black" stroke-width="2"/>
<path fill-rule="evenodd" clip-rule="evenodd" d="M11.62 10.8111C11.9646 10.4101 12.1729 9.88852 12.1729 9.31827C12.1729 8.05262 11.1469 7.0266 9.88125 7.0266C9.09091 7.0266 8.39401 7.42669 7.98204 8.03539C7.39794 8.82865 6.45749 9.34335 5.39683 9.34335C4.674 9.34335 4.007 9.10431 3.47057 8.70097L3.47073 8.70195C3.58179 9.41859 3.86131 10.0986 4.28633 10.6862C4.71135 11.2738 5.26973 11.7522 5.91558 12.0819C6.56143 12.4117 7.27633 12.5836 8.00151 12.5833C8.7267 12.5831 9.44148 12.4108 10.0871 12.0806C10.6855 11.7745 11.2086 11.3409 11.62 10.8111Z" fill="black"/>
</svg>
