<svg xmlns="http://www.w3.org/2000/svg" xml:space="preserve" viewBox="0 0 512 512"><path d="M213.809 417.105h-.011a8.47 8.47 0 0 1-4.672-1.395l-27.74-16.289-11.864 11.864a8.514 8.514 0 0 1-12.042 0 8.515 8.515 0 0 1 0-12.043l16.52-16.52a8.514 8.514 0 0 1 10.333-1.322l33.778 19.835a8.5 8.5 0 0 1 3.133 3.209 8.47 8.47 0 0 1 1.076 4.145c-.001 4.703-3.808 8.516-8.511 8.516M213.8 376.534a8.5 8.5 0 0 1-4.567-1.328l-27.849-16.353-11.864 11.864a8.514 8.514 0 0 1-12.042 0 8.515 8.515 0 0 1 0-12.043l16.52-16.52a8.514 8.514 0 0 1 10.333-1.322l33.778 19.835a8.5 8.5 0 0 1 1.636 1.25c3.365 3.285 3.436 8.682.151 12.048a8.5 8.5 0 0 1-6.096 2.569M213.8 335.967a8.5 8.5 0 0 1-4.567-1.328l-27.849-16.353-11.864 11.864a8.514 8.514 0 0 1-12.042 0 8.515 8.515 0 0 1 0-12.043l16.52-16.52a8.514 8.514 0 0 1 10.333-1.322L218.11 320.1a8.5 8.5 0 0 1 1.636 1.25c3.365 3.285 3.436 8.682.151 12.048a8.5 8.5 0 0 1-6.097 2.569M298.221 417.106a8.516 8.516 0 0 1-4.321-15.859l33.789-19.846a8.52 8.52 0 0 1 10.337 1.324l16.508 16.52a8.516 8.516 0 0 1-12.047 12.038l-11.852-11.86-28.11 16.511a8.5 8.5 0 0 1-4.304 1.172M298.221 376.539a8.516 8.516 0 0 1-4.321-15.859l33.789-19.846a8.52 8.52 0 0 1 10.337 1.324l16.508 16.52a8.516 8.516 0 0 1-12.047 12.038l-11.852-11.86-28.11 16.511a8.5 8.5 0 0 1-4.304 1.172M298.221 335.972a8.516 8.516 0 0 1-4.321-15.859l33.789-19.846a8.516 8.516 0 0 1 10.337 1.324l16.508 16.52a8.516 8.516 0 0 1-12.047 12.038l-11.852-11.86-28.11 16.511a8.5 8.5 0 0 1-4.304 1.172" style="fill:#f95428"/><path d="M398.598 351.048a8.515 8.515 0 0 1-8.515-8.515c0-36.5-6.334-72.257-18.826-106.277-24.128-65.753-65.27-108.376-81.308-123.232l-27.069 37.035a8.514 8.514 0 0 1-13.75.001l-27.08-37.037c-16.03 14.849-57.178 57.47-81.309 123.232-12.485 34.034-18.814 69.792-18.814 106.278a8.515 8.515 0 0 1-17.03 0c0-38.494 6.681-76.225 19.857-112.145 32.022-87.267 90.9-134.61 93.39-136.583a8.513 8.513 0 0 1 12.161 1.65l25.699 35.149 25.689-35.148a8.516 8.516 0 0 1 12.162-1.651c2.49 1.973 61.367 49.316 93.39 136.582 13.183 35.905 19.868 73.636 19.868 112.146a8.515 8.515 0 0 1-8.515 8.515" style="fill:#f95428"/><path d="m301.083 261.594-3.218-16.724 8.362-1.609c23.405-4.503 47.099-10.576 70.425-18.049 11.65-3.729 20.498-6.962 25.567-8.892.614-10.924 1.159-39.076-5.629-77.962a8.6 8.6 0 0 1-.127-1.465v-8.515l17.031-.023v7.803c9.085 52.539 5.429 85.721 5.269 87.114a8.52 8.52 0 0 1-5.207 6.894c-.489.202-12.196 5.02-31.71 11.265-23.97 7.68-48.331 13.922-72.402 18.554zM210.917 261.594l-8.362-1.609c-24.07-4.631-48.431-10.875-72.404-18.556-19.51-6.245-31.218-11.062-31.707-11.264a8.51 8.51 0 0 1-5.207-6.896c-.16-1.393-3.805-34.573 5.281-87.111v-7.781l17.031-.023v8.538q0 .737-.127 1.465c-6.787 38.88-6.249 67.031-5.638 77.962 5.069 1.93 13.916 5.164 25.562 8.891 23.33 7.474 47.025 13.547 70.429 18.05l8.362 1.609z" style="fill:#f95428"/><path d="M342.613 447.976c-6.79-6.778-16.168-10.99-26.522-10.99h-9.935V272.457h-.011c1.805-5.847 2.01-12.921 1.067-20.766-5.552-46.165-51.206-118.636-51.206-118.636s-45.654 72.471-51.217 118.636c-.942 7.845-.727 14.93 1.067 20.766h-.011v164.528h-9.935c-10.355 0-19.733 4.212-26.511 10.99-6.79 6.79-10.99 16.168-10.99 26.522 0 20.709 16.792 37.502 37.502 37.502h120.18c20.709 0 37.513-16.792 37.513-37.502-.001-10.353-4.213-19.732-10.991-26.521" style="fill:#f95428"/><path d="M197.011 474.498c0-10.355 4.201-19.733 10.99-26.523 6.778-6.778 16.156-10.99 26.511-10.99h9.935V272.458h.011c-1.794-5.836-2.01-12.921-1.067-20.766 3.109-25.794 18.732-59.797 31.916-84.786-10.41-19.735-19.301-33.85-19.301-33.85s-45.654 72.471-51.217 118.636c-.942 7.845-.727 14.93 1.067 20.766h-.011v164.528h-9.935c-10.355 0-19.733 4.212-26.511 10.99-6.79 6.79-10.99 16.168-10.99 26.522 0 20.709 16.792 37.502 37.502 37.502h38.603c-20.71 0-37.503-16.792-37.503-37.502" style="fill:#e54728"/><path d="M404.979 136.893a47.5 47.5 0 0 1-19.449 4.144s-19.653-75.264-47.561-81.997V0h1.646c51.626 0 93.476 41.85 93.476 93.476 0 13.136-5.325 25.024-13.931 33.63a47.7 47.7 0 0 1-14.181 9.787M107.032 136.893a47.6 47.6 0 0 1-14.192-9.787c-8.606-8.606-13.931-20.494-13.931-33.63C78.909 41.85 120.77 0 172.396 0h1.635v59.04c-27.896 6.733-47.561 81.997-47.561 81.997-6.926 0-13.5-1.476-19.438-4.144" style="fill:#f95428"/><path d="M118.954 127.106c-8.606-8.606-13.931-20.494-13.931-33.63 0-43.154 29.256-79.456 69.008-90.216V0h-1.635C120.77 0 78.909 41.85 78.909 93.476c0 13.136 5.325 25.024 13.931 33.63a47.6 47.6 0 0 0 14.192 9.787c5.938 2.668 12.512 4.144 19.438 4.144v-7.82a47.8 47.8 0 0 1-7.516-6.111" style="fill:#e54728"/><circle cx="240.757" cy="207.638" r="8.515" style="fill:#333"/><circle cx="271.254" cy="207.638" r="8.515" style="fill:#333"/><path d="M385.53 119.442v21.595c-13.125 0-25.024-5.325-33.63-13.931s-13.931-20.494-13.931-33.63V59.04c27.907 6.733 47.561 31.7 47.561 60.402M174.031 59.04v34.436c0 13.136-5.325 25.024-13.931 33.63s-20.494 13.931-33.63 13.931v-21.595c0-28.702 19.665-53.669 47.561-60.402" style="fill:#e54728"/></svg>