<svg xmlns="http://www.w3.org/2000/svg" xml:space="preserve" baseProfile="tiny" overflow="visible" version="1.2" viewBox="0 0 133.96 40.6"><g fill="#FFF"><path d="M11.06 24.07H0V.52h10.47c5.94 0 8.49 2.54 8.49 6.39 0 2.65-1.79 4.52-4.34 4.93 2.84.52 5.05 2.39 5.05 5.76-.01 4.08-3.11 6.47-8.61 6.47m-6.5-13.75h5.61c2.8 0 4-1.23 4-2.99s-1.2-3.03-4-3.03H4.56zm0 3.55v6.43h5.98c2.92 0 4.34-1.23 4.34-3.18 0-1.98-1.42-3.25-4.34-3.25zM36.42 20.07c0 .86.45 1.27 1.16 1.27.45 0 .9-.11 1.38-.34v2.39c-.71.56-1.61 1.05-3.1 1.05-1.87 0-3.29-1.2-3.63-3.18-.93 1.94-3.03 3.22-5.76 3.22-3.14 0-5.23-1.68-5.23-4.52 0-3.14 2.47-4.45 6.28-5.16l4.52-.86v-.49c0-1.83-.97-2.95-2.88-2.95-1.87 0-2.88 1.12-3.25 2.73l-4.08-.37c.56-3.36 3.14-5.72 7.51-5.72 4.26 0 7.06 2.02 7.06 6.36v6.57zm-4.38-3.7-3.1.64c-2.06.41-3.33.93-3.33 2.47 0 1.16.82 2.02 2.28 2.02 2.36 0 4.15-1.76 4.15-4.56zM73.16 18.58c-.82 3.74-3.74 5.94-7.96 5.94-5.08 0-8.75-3.25-8.75-8.45s3.7-8.93 8.63-8.93c5.38 0 8.15 3.74 8.15 8.22v1.42H60.86c.15 2.69 2.06 4.33 4.49 4.33 2.21 0 3.55-.97 4.19-2.91zm-4.3-4.15c-.07-2.13-1.31-4-3.81-4-2.47 0-3.85 1.79-4.11 4zM87.22 12c-.86-.49-1.61-.71-2.69-.71-2.32 0-3.89 1.64-3.89 4.63v8.15h-4.49V7.59h4.49v3.14c.6-1.87 2.32-3.59 4.6-3.59 1.01 0 1.83.26 2.32.67zM89.45.52h4.6V4.9h-4.6zm4.56 7.07v16.48h-4.49V7.59zM102.19 24.07H97.7V7.59h4.49v2.69c.82-1.87 2.92-3.14 5.38-3.14 4.41 0 6.02 2.99 6.02 6.65v10.28h-4.48v-9.38c0-2.54-1.01-4-3.21-4-2.28 0-3.7 1.79-3.7 4.56v8.82zM131.42 20.07c0 .86.45 1.27 1.16 1.27.45 0 .9-.11 1.38-.34v2.39c-.71.56-1.61 1.05-3.1 1.05-1.87 0-3.29-1.2-3.63-3.18-.93 1.94-3.03 3.22-5.76 3.22-3.14 0-5.23-1.68-5.23-4.52 0-3.14 2.47-4.45 6.28-5.16l4.52-.86v-.49c0-1.83-.97-2.95-2.88-2.95-1.87 0-2.88 1.12-3.25 2.73l-4.07-.37c.56-3.36 3.14-5.72 7.51-5.72 4.26 0 7.06 2.02 7.06 6.36v6.57zm-4.38-3.7-3.1.64c-2.06.41-3.33.93-3.33 2.47 0 1.16.82 2.02 2.28 2.02 2.36 0 4.15-1.76 4.15-4.56zM40.91 6.65v-6.8h5.69v8.97zM40.91 8.78l3.9 1.49-3.9 1.49zM46.6 11.71V15l-2.76 9.07h-2.93V13.89zM54.27 6.65v-6.8h-5.69v8.97zM54.27 8.78l-3.9 1.49 3.9 1.49zM48.58 11.71V15l2.76 9.07h2.93V13.89z"/></g><g fill="#53C3C2"><path d="M68.42 37.55c0-.49-.17-.87-.52-1.14s-.97-.54-1.88-.81c-.9-.27-1.62-.58-2.16-.91-1.02-.64-1.53-1.48-1.53-2.51 0-.9.37-1.65 1.11-2.24s1.7-.88 2.87-.88c.78 0 1.48.14 2.09.43q.915.435 1.44 1.23c.35.53.52 1.12.52 1.77h-1.94c0-.59-.18-1.04-.55-1.38-.37-.33-.89-.5-1.58-.5-.64 0-1.13.14-1.48.41s-.53.65-.53 1.14c0 .41.19.75.57 1.03s1.01.54 1.88.8 1.58.56 2.11.89.92.71 1.16 1.14c.25.43.37.93.37 1.51 0 .94-.36 1.68-1.08 2.23s-1.69.83-2.92.83a5.5 5.5 0 0 1-2.24-.45c-.68-.3-1.21-.72-1.59-1.25s-.57-1.15-.57-1.85h1.95c0 .64.21 1.13.63 1.48s1.03.52 1.81.52c.68 0 1.19-.14 1.53-.41.36-.26.53-.63.53-1.08M79.08 37.86l1.33-5.76h1.83l-2.28 8.34h-1.54l-1.79-5.73-1.76 5.73h-1.54l-2.28-8.34h1.83l1.35 5.7 1.71-5.7h1.41zM88.31 40.44c-.08-.16-.15-.42-.22-.78q-.9.93-2.19.93c-.84 0-1.52-.24-2.05-.72a2.29 2.29 0 0 1-.79-1.77c0-.89.33-1.57.99-2.05s1.61-.71 2.83-.71h1.15v-.54c0-.43-.12-.78-.36-1.04s-.61-.39-1.1-.39c-.43 0-.78.11-1.05.32s-.41.48-.41.81h-1.87c0-.46.15-.89.45-1.28.3-.4.72-.71 1.24-.94s1.1-.34 1.75-.34c.98 0 1.76.25 2.34.74s.88 1.18.89 2.07v3.76c0 .75.11 1.35.32 1.8v.13zm-2.06-1.35c.37 0 .72-.09 1.04-.27.33-.18.57-.42.74-.72v-1.57h-1.01c-.69 0-1.22.12-1.57.36s-.52.58-.52 1.03c0 .36.12.65.36.86s.56.31.96.31M93.45 32.1l.05.96c.62-.75 1.43-1.12 2.43-1.12 1.74 0 2.62.99 2.65 2.98v5.51h-1.87v-5.41c0-.53-.11-.92-.34-1.18-.23-.25-.6-.38-1.12-.38-.76 0-1.32.34-1.69 1.03v5.94h-1.87V32.1zM104.36 38.89h5.1v1.56h-7.05V29.21h1.95zM115.6 40.44c-.08-.16-.15-.42-.22-.78q-.9.93-2.19.93c-.84 0-1.52-.24-2.05-.72a2.29 2.29 0 0 1-.79-1.77c0-.89.33-1.57.99-2.05s1.61-.71 2.83-.71h1.15v-.54c0-.43-.12-.78-.36-1.04s-.61-.39-1.1-.39c-.43 0-.78.11-1.05.32s-.41.48-.41.81h-1.87c0-.46.15-.89.45-1.28.3-.4.72-.71 1.24-.94s1.1-.34 1.75-.34c.98 0 1.76.25 2.34.74s.88 1.18.89 2.07v3.76c0 .75.11 1.35.32 1.8v.13zm-2.06-1.35c.37 0 .72-.09 1.04-.27.33-.18.57-.42.74-.72v-1.57h-1.01c-.69 0-1.22.12-1.57.36s-.52.58-.52 1.03c0 .36.12.65.36.86s.56.31.96.31M121.71 36.87l-.83.86v2.72h-1.87V28.6h1.87v6.83l.59-.73 2.31-2.6h2.25l-3.1 3.48 3.43 4.87h-2.17zM130.61 40.6c-1.19 0-2.15-.37-2.89-1.12s-1.11-1.74-1.11-2.99v-.23c0-.83.16-1.58.48-2.23q.48-.99 1.35-1.53c.87-.54 1.23-.55 1.94-.55 1.14 0 2.01.36 2.63 1.09.62.72.93 1.75.93 3.08v.76h-5.45c.06.69.29 1.23.69 1.63s.91.6 1.52.6c.86 0 1.56-.35 2.1-1.04l1.01.96c-.33.5-.78.89-1.34 1.16-.54.27-1.17.41-1.86.41m-.22-7.15c-.51 0-.93.18-1.25.54s-.52.86-.61 1.5h3.57v-.14c-.04-.63-.21-1.1-.5-1.42s-.69-.48-1.21-.48"/></g></svg>