<svg xmlns="http://www.w3.org/2000/svg" fill="none" viewBox="0 0 14 14"><path fill="currentColor" fill-rule="evenodd" d="M12.426 3.884a.38.38 0 1 1-.647.27.381.381 0 0 1 .647-.27M10.1 2.674q.428.084.83.252a.37.37 0 0 1-.282.683 3.7 3.7 0 0 0-1.393-.281h-.019a1.48 1.48 0 0 1-1.278-.74l-.004-.008a3.684 3.684 0 0 0-6.116-.394.37.37 0 1 1-.575-.464 4.422 4.422 0 0 1 7.335.496l.003.006c.13.22.364.359.62.364h.016q.437 0 .864.086zM.939 7.4l.01-.018a.74.74 0 0 0-.011-.74 4.43 4.43 0 0 1-.436-3.35.37.37 0 0 1 .713.191 3.7 3.7 0 0 0 .376 2.813 1.48 1.48 0 0 1-.017 1.478 3.693 3.693 0 0 0 2.724 5.49.37.37 0 0 1 .317.414.37.37 0 0 1-.413.318A4.427 4.427 0 0 1 .939 7.4m.637.436.026-.026zm4.348 6.082a.383.383 0 0 1-.466-.268.38.38 0 0 1 .363-.474.38.38 0 0 1 .381.378.38.38 0 0 1-.278.364m3.344-2.488a.74.74 0 0 0-.64.37 4.4 4.4 0 0 1-.508.706q.093-.105 0 0l-.011.013a4.4 4.4 0 0 1-.624.58.37.37 0 0 1-.519-.067.37.37 0 0 1 .068-.518q.29-.221.53-.495-.09.101 0 0l.013-.015q.228-.263.403-.562l.006-.013a1.48 1.48 0 0 1 1.281-.737 3.692 3.692 0 0 0 3.418-5.107.37.37 0 0 1 .343-.508.37.37 0 0 1 .34.225 4.436 4.436 0 0 1-4.101 6.13zm-.359-7.327a3 3 0 0 1 .325-.018c1.622 0 2.958 1.33 2.958 2.947S10.856 9.98 9.234 9.98q-.163 0-.324-.018a1.48 1.48 0 0 0-1.447.833 2.96 2.96 0 0 1-2.71 1.763c-1.622 0-2.957-1.33-2.957-2.948 0-.634.205-1.25.584-1.76.335-.5.33-1.156-.01-1.652a2.94 2.94 0 0 1-.572-1.741c0-1.618 1.335-2.948 2.957-2.948 1.172 0 2.237.693 2.708 1.762.264.546.84.878 1.447.832m-5.995 6.653a2.2 2.2 0 0 0 1.91 1.116c1.209 0 2.204-1.007 2.204-2.23s-.995-2.231-2.204-2.231c-.387 0-.768.103-1.103.299-1.047.612-1.411 1.987-.807 3.046M7.32 8.15a2.2 2.2 0 0 0 1.91 1.116c1.21 0 2.204-1.007 2.204-2.23S10.44 4.803 9.23 4.803c-.387 0-.767.103-1.103.299-1.047.612-1.411 1.987-.807 3.046M4.826 6.657c1.208 0 2.202-1.007 2.202-2.23s-.994-2.23-2.203-2.23-2.203 1.006-2.203 2.23.995 2.23 2.203 2.23" clip-rule="evenodd"/></svg>