<svg xmlns="http://www.w3.org/2000/svg" viewBox="0 0 512 512"><path fill="#a00" d="M224.98 48v415.839h78.818V295.337h207.615v-78.836H303.798V48Z"/><path fill="#181f6f" d="M177.329 129.606q-16.046-42.553-38.621-61.945-22.303-19.66-54.395-19.66H18.494v60.059h32.365q24.478 0 35.9 8.349 11.424 8.08 23.119 37.975l5.984 16.159L0 463.836h83.767l69.627-195.797 66.636 195.797h83.77Z"/><path d="M445.541 439.541c0 .985-.797 1.765-1.777 1.765-.985 0-1.783-.78-1.783-1.765a1.78 1.78 0 0 1 3.56 0" style="fill:#fff;fill-opacity:1;fill-rule:nonzero;stroke:none;stroke-width:4.3374815" transform="translate(56.706 49.123)scale(.93924)"/><path d="M443.745 437.511c.56 0 1.033.175 1.424.574.389.391.593.867.593 1.426 0 .574-.174 1.05-.578 1.423-.409.386-.88.59-1.44.59-.542 0-1.02-.174-1.424-.59a1.95 1.95 0 0 1-.593-1.423c0-.541.199-1.02.593-1.426.386-.386.862-.574 1.423-.574zm0 .357c-.459 0-.832.175-1.154.473-.339.34-.49.728-.49 1.172 0 .456.15.827.49 1.167.322.321.71.49 1.154.49.457 0 .846-.174 1.167-.508.322-.286.476-.676.476-1.15 0-.458-.15-.85-.476-1.17a1.65 1.65 0 0 0-1.167-.474zm.542 1.15v.814h-.225v.98h-.628v-.98h-.225v-.815c0-.026.017-.07.026-.07.027-.027.07-.053.1-.053h.827q.043 0 .07.053a.12.12 0 0 1 .027.07zm-.816-.527c0-.174.07-.27.272-.27.174 0 .286.071.286.27 0 .175-.1.292-.286.292-.175 0-.272-.1-.272-.292" style="fill:#000;fill-opacity:1;fill-rule:nonzero;stroke:none;stroke-width:4.3374815" transform="translate(56.706 49.123)scale(.93924)"/><path d="M445.576 435.646c0 .997-.815 1.813-1.813 1.813a1.814 1.814 0 0 1-1.812-1.813 1.81 1.81 0 0 1 1.812-1.812c.998 0 1.813.81 1.813 1.812" style="fill:#fff;fill-opacity:1;fill-rule:nonzero;stroke:none;stroke-width:4.3374815" transform="translate(56.706 49.123)scale(.93924)"/><path d="M443.745 433.63c.56 0 1.033.198 1.441.592.175.175.322.407.422.641a2.1 2.1 0 0 1 0 1.56c-.07.225-.225.439-.422.626-.199.199-.423.356-.663.459q-.376.15-.778.15a2 2 0 0 1-.763-.15c-.25-.1-.46-.257-.659-.442a2.6 2.6 0 0 1-.444-.658 2 2 0 0 1 0-1.526c.1-.253.257-.475.457-.659.373-.391.85-.593 1.41-.593zm0 .373c-.459 0-.85.15-1.154.474-.15.15-.286.34-.373.541-.07.2-.125.406-.125.628 0 .225.026.424.125.623.07.2.224.374.373.53.15.174.34.286.526.368.2.071.41.125.629.125.224 0 .421-.053.625-.125.2-.07.39-.199.56-.356a1.6 1.6 0 0 0 .457-1.155c0-.224-.026-.441-.124-.628-.07-.2-.199-.387-.357-.541a1.58 1.58 0 0 0-1.166-.473zm-.017 1.306-.272.125a.5.5 0 0 0-.1-.125c-.052-.017-.07-.026-.123-.026-.175 0-.272.125-.272.357 0 .1.018.174.07.252.054.07.125.1.2.1.124 0 .199-.054.225-.175l.256.124a.74.74 0 0 1-.225.25c-.07.052-.174.07-.301.07a.58.58 0 0 1-.442-.174.63.63 0 0 1-.174-.457c0-.174.07-.34.174-.46a.56.56 0 0 1 .424-.174c.252 0 .44.1.541.292zm1.15 0-.253.125a.27.27 0 0 0-.125-.125.24.24 0 0 0-.124-.026c-.175 0-.27.125-.27.357 0 .1.026.174.07.252.053.07.125.1.2.1.124 0 .199-.054.256-.175l.252.124a.7.7 0 0 1-.225.25c-.1.052-.199.07-.309.07-.174 0-.34-.053-.439-.174-.124-.1-.174-.253-.174-.457a.63.63 0 0 1 .174-.46.55.55 0 0 1 .422-.174c.256 0 .423.1.526.292z" style="fill:#000;fill-opacity:1;fill-rule:nonzero;stroke:none;stroke-width:4.3374815" transform="translate(56.706 49.123)scale(.93924)"/><text x="446.359" y="437.326" style="font-variant:normal;font-weight:400;font-size:5.05850077px;font-family:Helvetica;-inkscape-font-specification:Helvetica;writing-mode:lr-tb;fill:#000;fill-opacity:1;fill-rule:nonzero;stroke:none;stroke-width:4.33722448" transform="matrix(.93919 0 0 .9393 56.706 49.123)">
      <tspan x="446.35913 449.72784 452.54037 455.35294 458.16547 459.8649 462.67743 464.07886 467.7305 470.26013 471.38293 474.1955 476.72513 480.92834" y="437.326" style="stroke-width:4.33722448">Sandra Dylus &amp;</tspan>
      <tspan x="446.35913 448.88794 451.7005 454.51303 455.91422 459.56665 462.37946 464.06354 465.20169 467.7305 469.13193 470.25476 473.06729 475.87985 478.40948 481.22202" y="441.401" style="stroke-width:4.33722448">Jan Christiansen</tspan>
    </text></svg>