<svg xmlns="http://www.w3.org/2000/svg" xmlns:xlink="http://www.w3.org/1999/xlink" width="1024" height="1024"><desc>SuperCollider Cube SVG - Nathan Ho 2015</desc><defs><linearGradient id="a" gradientUnits="userSpaceOnUse"><stop offset="0%"/><stop offset="100%" stop-color="#FFF"/></linearGradient><linearGradient xlink:href="#a" id="d" x1="50%" x2="50%" y1="100%" y2="0%"/><linearGradient xlink:href="#a" id="e" x1="100%" x2="0%" y1="50%" y2="50%"/><linearGradient xlink:href="#a" id="f" x1="50%" x2="50%" y1="0%" y2="100%"/><linearGradient xlink:href="#a" id="g" x1="0%" x2="100%" y1="50%" y2="50%"/><linearGradient id="b" gradientUnits="userSpaceOnUse"><stop offset="0%"/><stop offset="100%" stop-color="#A7A7A7"/></linearGradient><linearGradient xlink:href="#b" id="h" x1="50%" x2="50%" y1="100%" y2="0%"/><linearGradient xlink:href="#b" id="i" x1="100%" x2="0%" y1="50%" y2="50%"/><linearGradient xlink:href="#b" id="j" x1="50%" x2="50%" y1="0%" y2="100%"/><linearGradient xlink:href="#b" id="k" x1="0%" x2="100%" y1="50%" y2="50%"/><linearGradient id="c" gradientUnits="userSpaceOnUse"><stop offset="0%" stop-color="#4F4F4F"/><stop offset="100%" stop-color="#FFF"/></linearGradient><linearGradient xlink:href="#c" id="l" x1="50%" x2="50%" y1="100%" y2="0%"/><linearGradient xlink:href="#c" id="m" x1="100%" x2="0%" y1="50%" y2="50%"/><linearGradient xlink:href="#c" id="n" x1="50%" x2="50%" y1="0%" y2="100%"/><linearGradient xlink:href="#c" id="o" x1="0%" x2="100%" y1="50%" y2="50%"/><g id="s"><path fill="url(#d)" d="M0 0h1024v1024H0z"/><path fill="url(#e)" d="M64 64h896v896H64z"/><path fill="url(#f)" d="M128 128h768v768H128z"/><path fill="url(#g)" d="M192 192h640v640H192z"/><path fill="url(#d)" d="M256 256h512v512H256z"/><path fill="url(#e)" d="M320 320h384v384H320z"/><path fill="url(#f)" d="M384 384h256v256H384z"/><path fill="url(#g)" d="M448 448h128v128H448z"/></g><g id="r"><path fill="url(#h)" d="M0 0h1024v1024H0z"/><path fill="url(#i)" d="M64 64h896v896H64z"/><path fill="url(#j)" d="M128 128h768v768H128z"/><path fill="url(#k)" d="M192 192h640v640H192z"/><path fill="url(#h)" d="M256 256h512v512H256z"/><path fill="url(#i)" d="M320 320h384v384H320z"/><path fill="url(#j)" d="M384 384h256v256H384z"/><path fill="url(#k)" d="M448 448h128v128H448z"/></g><g id="q"><path fill="url(#l)" d="M0 0h1024v1024H0z"/><path fill="url(#m)" d="M64 64h896v896H64z"/><path fill="url(#n)" d="M128 128h768v768H128z"/><path fill="url(#o)" d="M192 192h640v640H192z"/><path fill="url(#l)" d="M256 256h512v512H256z"/><path fill="url(#m)" d="M320 320h384v384H320z"/><path fill="url(#n)" d="M384 384h256v256H384z"/><path fill="url(#o)" d="M448 448h128v128H448z"/></g><filter id="p"><feGaussianBlur in="SourceAlpha" stdDeviation="12"/></filter></defs><g filter="url(#p)" opacity=".5" transform="translate(0 650)"><use xlink:href="#q" transform="matrix(.41406 .20215 -.49414 .11621 554 26)"/></g><use xlink:href="#r" transform="matrix(.49414 -.11621 0 .58105 472 352)"/><use xlink:href="#s" transform="matrix(.41406 .20215 0 .58105 48 145)"/><use xlink:href="#q" transform="matrix(.41406 .20215 -.49414 .11621 554 26)"/></svg>