<svg xmlns="http://www.w3.org/2000/svg" fill-rule="evenodd" stroke-linejoin="round" stroke-miterlimit="2" clip-rule="evenodd" viewBox="0 0 1164 400"><path fill="none" d="M.658 0h1163v400H.658z"/><g fill="#273240"><path fill-rule="nonzero" d="M410.808 338.269a6.55 6.55 0 0 1-6.551-6.55V159.88a6.55 6.55 0 0 1 6.551-6.55h41.928a6.55 6.55 0 0 1 6.551 6.55v171.839a6.55 6.55 0 0 1-6.551 6.55z"/><ellipse cx="431.598" cy="87.156" rx="32.391" ry="31.346"/><path fill-rule="nonzero" d="M696.469 147.409q21.941 0 35.177 14.802 13.234 14.802 13.234 40.923v128.585c0 1.737-.69 3.403-1.918 4.632a6.55 6.55 0 0 1-4.632 1.918h-41.928a6.55 6.55 0 0 1-6.551-6.55V212.538q0-24.728-15.672-24.728-8.707 0-15.325 5.921-3.43 3.069-6.768 7.824a30.2 30.2 0 0 0-5.898 17.929c-.221 22.92-.221 90.816-.221 112.235 0 1.737-.69 3.403-1.918 4.632a6.55 6.55 0 0 1-4.632 1.918h-41.928a6.55 6.55 0 0 1-6.551-6.55V212.538q0-24.728-15.672-24.728-8.36 0-15.151 6.095-4.005 3.594-7.828 9.187a27.6 27.6 0 0 0-5.06 15.921c-.173 22.446-.173 91.138-.173 112.706 0 1.737-.69 3.403-1.918 4.632a6.55 6.55 0 0 1-4.632 1.918h-41.928a6.55 6.55 0 0 1-6.551-6.55V159.88a6.55 6.55 0 0 1 6.551-6.55h36.022a6.55 6.55 0 0 1 6.45 5.406l1.482 8.355a3.741 3.741 0 0 0 6.438 1.87c5.811-6.348 12.085-11.264 18.809-14.761q13.062-6.79 29.779-6.791 15.324 0 26.644 7.662c4.629 3.134 9.936 10.55 13.347 15.815a5.426 5.426 0 0 0 8.265.782c5.347-5.413 14.008-13.767 19.834-16.945q13.408-7.314 30.823-7.314m183.198 0q33.783 0 51.72 25.773t17.937 72.792q0 28.559-8.881 50.849t-25.425 34.829q-16.544 12.538-39.182 12.538-15.325 0-27.689-6.095a55.1 55.1 0 0 1-12.659-8.58 5.996 5.996 0 0 0-9.952 3.515c-.075-.008-.076-.004-.076 0a6.2 6.2 0 0 1-6.126 5.239h-36.906a6.55 6.55 0 0 1-6.55-6.55V85.725a6.55 6.55 0 0 1 5.849-6.513l41.929-4.511a6.552 6.552 0 0 1 7.251 6.513v79.057a4.556 4.556 0 0 0 7.664 3.33c3.916-3.649 8.454-6.77 13.581-9.401q13.236-6.79 27.515-6.791m-19.504 156.728q32.042 0 32.042-58.163 0-32.74-7.662-45.452t-21.942-12.712q-11.54 0-20.849 8.128a31.73 31.73 0 0 0-10.759 23.814c-.086 14.5-.086 40.738-.086 55.477.002 15.709 12.536 28.549 28.241 28.928.337-.024.675-.02 1.015-.02m260.167-19.504q0 10.449 2.96 15.325 1.863 3.067 5.172 5.17a6.41 6.41 0 0 1 2.6 7.323c-.726 2.723-1.834 6.183-2.995 9.808a23.886 23.886 0 0 1-34.373 13.58q-.003-.005-.008-.008-10.623-5.92-16.892-19.155-18.111 27.514-55.725 27.514-27.514 0-43.884-16.021t-16.37-41.794q0-30.301 22.291-46.322 22.29-16.021 64.432-16.021h11.861a6.945 6.945 0 0 0 6.947-6.947v-1.064q0-16.37-6.966-22.464-6.965-6.095-24.38-6.095-9.055 0-21.942 2.612-10.013 2.03-20.447 5.216a6.546 6.546 0 0 1-8.11-4.117 53161 53161 0 0 1-8.341-24.086 6.55 6.55 0 0 1 4.026-8.327 213 213 0 0 1 29.563-7.868q18.286-3.483 33.958-3.483 39.705 0 58.164 16.369 18.459 16.37 18.459 49.108zm-83.24 20.201q9.055 0 16.543-4.528h.001a26.34 26.34 0 0 0 12.712-22.54v-15.98a7.453 7.453 0 0 0-7.453-7.453h-6.13q-18.808 0-28.037 6.617-9.23 6.618-9.23 20.549 0 11.145 5.747 17.24t15.847 6.095"/></g><path fill="#16cec7" d="M360.039 167.628C323.834 99.341.596 29.568 35.591 74.7s190.036 107.062 199.223 108.212c-47.568 14.937-174.53 41.73-147.353 64.299s156.265-2.637 156.052-2.236c-35.746 26.937-80.254 108.258-35.536 90.883 70.555-27.413 173.158-128.44 152.062-168.23"/></svg>