<svg xmlns="http://www.w3.org/2000/svg" xml:space="preserve" style="fill-rule:evenodd;clip-rule:evenodd;stroke-linecap:round;stroke-linejoin:round;stroke-miterlimit:1.5" viewBox="0 0 260 96"><style>@media (prefers-color-scheme:dark){#wordmark path{fill:#eff0f6!important}#logo path{stroke:#eff0f6!important}}</style><path id="Artboard3" d="M0 0h259.2v96H0z" style="fill:none"/><path id="Artboard2" d="M0 0h259.2v95.999H0z" style="fill:none"/><g id="Artboard21"><g id="wordmark"><path d="M149.658 56.618q-2.473 0-3.586-.814-1.113-.813-1.113-2.786 0-1.826.989-5.228.94-3.33 1.979-5.13t2.486-2.552 3.722-.752q2.25 0 3.191.567.939.568.939 1.998 0 .616-.197 1.652h-2.004q.05-.592.05-.814 0-.912-.421-1.257-.42-.346-1.484-.346-1.657 0-2.745.629t-1.892 2.133-1.595 4.266q-.841 2.935-.841 4.316 0 1.257.618 1.788.619.53 1.978.53 1.658 0 2.486-.481.83-.481 1.447-1.813h2.053q-.594 1.603-1.336 2.479a4.07 4.07 0 0 1-1.842 1.245q-1.1.37-2.882.37M160.368 56.618q-1.83 0-2.634-.469t-.804-1.627q0-.74.346-1.924.52-1.75 1.262-2.663.741-.912 2.04-1.294 1.299-.383 3.574-.383h2.449l.197-.715q.223-.813.223-1.331 0-.716-.495-.974-.495-.26-1.706-.259-1.633 0-2.362.357-.73.358-1.076 1.393h-2.028q.42-1.43 1.026-2.182t1.645-1.06 2.844-.309q2.251 0 3.228.555t.977 1.887q0 .863-.371 2.121l-2.498 8.63h-1.88l.519-1.652h-.173q-.94 1.085-1.842 1.492t-2.461.407m-1.064-3.847q-.173.593-.173 1.011 0 .567.408.777t1.422.209q1.435 0 2.362-.419.928-.419 1.583-1.442.656-1.024 1.175-2.873h-2.696q-1.855 0-2.745.604-.89.605-1.336 2.133M174.268 56.618q-2.499 0-3.574-.53-1.076-.53-1.076-1.813 0-.64.272-1.652l2.028.197a3.1 3.1 0 0 0-.099.765q0 .715.594.961.593.247 2.077.247 1.781 0 2.597-.456t1.163-1.615q.099-.395.099-.543 0-.617-.643-.986-.644-.37-2.301-.765-2.052-.419-2.93-1.011t-.878-1.627q0-.468.197-1.184.396-1.381 1.027-2.108t1.743-1.024q1.114-.296 3.043-.296 2.349 0 3.339.506.989.505.989 1.738 0 .42-.173 1.234l-1.979-.198q.025-.148.025-.394 0-.641-.495-.851-.494-.21-1.78-.21-1.831 0-2.672.444-.84.444-1.162 1.578a.8.8 0 0 0-.05.247q0 .444.705.801t2.535.876q1.93.493 2.733 1.122t.804 1.664q0 .593-.222 1.332-.421 1.43-1.064 2.182t-1.781 1.061q-1.137.308-3.091.308M186.882 56.618q-2.499 0-3.574-.53-1.076-.53-1.076-1.813 0-.64.272-1.652l2.028.197a3.1 3.1 0 0 0-.099.765q0 .715.594.961.593.247 2.077.247 1.781 0 2.597-.456t1.163-1.615q.099-.395.098-.543 0-.617-.642-.986-.644-.37-2.301-.765-2.052-.419-2.931-1.011-.877-.591-.877-1.627 0-.468.197-1.184.396-1.381 1.027-2.108t1.743-1.024q1.113-.296 3.043-.296 2.349 0 3.339.506.989.505.989 1.738 0 .42-.173 1.234l-1.979-.198q.025-.148.025-.394 0-.641-.495-.851t-1.781-.21q-1.83 0-2.671.444t-1.162 1.578a.8.8 0 0 0-.05.247q0 .444.705.801t2.535.876q1.929.493 2.733 1.122t.804 1.664q0 .593-.222 1.332-.421 1.43-1.064 2.182t-1.781 1.061q-1.137.308-3.091.308M199.644 56.618q-2.424 0-3.463-.666-1.038-.666-1.038-2.342 0-1.43.717-3.946.767-2.614 1.607-3.97.841-1.357 2.078-1.924t3.29-.567q2.225 0 3.202.654.977.653.977 2.305 0 1.604-.939 4.686h-8.533q-.322 1.282-.322 2.145 0 1.011.557 1.406.556.394 1.892.394 1.36 0 2.065-.382.705-.383 1.372-1.467h2.152q-.717 1.479-1.422 2.256-.704.777-1.682 1.097-.977.321-2.51.321m4.947-7.62q.37-1.455.37-2.269 0-.936-.506-1.319-.508-.382-1.67-.382-1.335 0-2.152.345-.816.345-1.397 1.208-.582.864-1.126 2.466zM212.68 56.643q-1.707 0-2.424-.481t-.717-1.517q0-.74.42-2.244l2.028-7.077h-3.363l1.014-1.825h2.968l.865-3.255 2.103-.444-1.039 3.699h4.526l-.519 1.825h-4.526l-2.078 7.176q-.247.813-.247 1.233 0 .542.42.789.42.246 1.459.246.841 0 2.746-.246l-.297 1.874q-2.054.246-3.339.247M224.331 56.643q-1.707 0-2.424-.481t-.717-1.517q0-.74.42-2.244l2.028-7.077h-3.363l1.014-1.825h2.968l.865-3.255 2.103-.444-1.039 3.699h4.526l-.519 1.825h-4.526l-2.078 7.176q-.247.813-.247 1.233 0 .542.42.789.42.246 1.46.246.84 0 2.745-.246l-.297 1.874q-2.053.246-3.339.247M234.597 56.618q-2.424 0-3.463-.666-1.038-.666-1.038-2.342 0-1.43.717-3.946.766-2.614 1.608-3.97.84-1.357 2.077-1.924t3.29-.567q2.226 0 3.202.654.978.653.978 2.305 0 1.604-.94 4.686h-8.533q-.322 1.282-.322 2.145 0 1.011.557 1.406.556.394 1.892.394 1.36 0 2.065-.382.704-.383 1.373-1.467h2.151q-.717 1.479-1.422 2.256t-1.681 1.097q-.978.321-2.511.321m4.947-7.62q.37-1.455.371-2.269 0-.936-.507-1.319t-1.67-.382q-1.335 0-2.152.345-.816.345-1.397 1.208-.581.864-1.125 2.466z" style="fill:#0a0c12;fill-rule:nonzero"/></g><path id="logo" d="M77.906 70.345 30.682 40.937m16.369 7.787-1.703-1.06m20.863 12.992-1.726-1.075M48.989 47.666l-1.708-1.063m20.864 12.993-1.729-1.077m-20.938-5.254-2.406-1.498m21.552 13.421-2.123-1.322m-17.023-6.354-2.406-1.499m21.552 13.421-2.123-1.322m-22.313-20.23-9.789-6.096m28.356 17.659-9.456-5.889M76.84 70.707l-8.392-5.225m-28.26-16.185-8.798-5.479M58.755 60.86l-8.465-5.271m26.55 16.533-7.401-4.608M40.188 56.092l-9.789-6.096m28.356 17.659-9.456-5.889M76.84 78.917l-8.392-5.226m17.297-11.213-42.089-26.21m43.729 26.838L45.297 36.895m-1.641-.627 1.641.627m-14.615 4.042-1.599.583m48.823 28.825 7.839-7.867m-7.378 9.734c3.006-3.017 6.012-6.085 9.018-9.106m-9.479 7.239.461 1.867M30.682 40.937l12.974-4.669m-13.257 5.518v8.21m.991-7.593v7.049m8.798-1.57v8.21m2.884-4.325v4.246m2.406-2.748v4.247m17.023 6.354v4.246m2.123-2.924v4.246M49.299 53.556v8.21m.991-7.593v7.048m8.465-1.776v8.21m9.693-2.173v8.209m.991-7.592v7.048m7.401-2.44v8.21M40.188 53.663c-.295.165-.705.267-1.159.267-.895 0-1.622-.399-1.622-.891s.727-.892 1.622-.892c.454 0 .864.103 1.159.268m45.557 10.063 1.64.628M39.029 43.088c.896 0 1.623.4 1.623.892s-.727.891-1.623.891c-.895 0-1.622-.399-1.622-.891s.727-.892 1.622-.892m33.976 20.419c.895 0 1.622.399 1.622.891s-.727.891-1.622.891-1.623-.399-1.623-.891.727-.891 1.623-.891m0 9.483c.895 0 1.622.4 1.622.892 0 .491-.727.891-1.622.891s-1.623-.4-1.623-.891c0-.492.727-.892 1.623-.892M30.399 49.996l3.877-2.128m34.172 25.823c1.182-.648 2.693-1.481 3.875-2.129m-23.024-9.796 3.874-2.13M19.729 35.22v7.062m112.512 9.481v7.092m-8.089-8.143v3.078M61.189 15.782h6.875m8.317 63.969 2.093-.395m-12.848-68.11 65.961 39.642m-.024 1.781-41.575 24.79m34.164-23.669L98.411 69.139m-6.843 11.057-1.58.943m41.575-24.79-28.692 17.108m-11.303 6.739.333-.198m1.397.212c3.032-1.808 6.064-3.608 9.095-5.415m-10.012 3.87c3.014-1.798 6.08-3.618 9.095-5.415m-9.577 6.746c-.253-.426-.037-1.023.482-1.331m.917 1.545c-.519.308-1.145.212-1.399-.214m10.976-6.532c.253.426.037 1.022-.482 1.331m-.917-1.545c.519-.308 1.146-.212 1.399.214M29.083 41.52l-8.675-5.402m66.449 41.381-8.49-5.287m20.044-3.073L35.427 29.915m53.061 24.103c-11.658-7.26-18.891-11.717-29.895-18.573m39.486 13.194C87.126 41.83 80.108 37.499 68.323 30.16m55.768 20.513L68.064 15.782m22.222 29.257-14.72-9.167m9.405 12.082-14.72-9.167M30.399 46.02l-9.991-6.222m66.449 41.381L76.84 74.941m0-.566-7.401-4.609m0 0-.991-.051-9.693-6.036m0-.566-8.465-5.272m0 0-.991-.051-9.111-5.674m0-.566-8.798-5.479m0 0-.991-.051M20.384 34.323l42.127-23.11M45.348 47.664l1.933-1.061m-.22 2.121 1.933-1.06m15.491 11.917q.966-.53 1.931-1.062m-.205 2.137 1.934-1.06M35.492 29.877l25.697-14.095m9.062 23.005 5.315-2.915m9.405 12.082 5.315-2.915m-9.306-5.796c-1.172 1.322-2.677 2.494-4.437 3.463m4.792 2.984c1.251-1.294 2.924-2.385 4.887-3.182m.635 34.991c.657.398 2.099.582 3.131-.04m-3.131 3.72c.657.399 2.099.582 3.131-.04m41.599-30.251c.886.525.868 1.245-.024 1.781m.678 2.774c0 .317-.227.635-.678.906M20.384 34.323c-.886.525-.867 1.259.024 1.795m-.679 2.767c0 .32.228.642.679.913m42.103-28.585c.657-.399 2.083-.59 3.115.033m65.937 48.5-41.575 24.79M29.29 48.726l-8.882-5.531m66.449 41.381-8.383-5.22m-2.093.395L29.667 50.659m0 0-.377-1.933m57.567 35.85c.657.399 2.099.582 3.131-.04m42.253-25.695c0 .316-.227.634-.678.905M19.729 42.282c0 .32.228.642.679.913m43.201-14.223c3.633 0 6.582 1.761 6.582 3.93s-2.949 3.931-6.582 3.931-6.582-1.762-6.582-3.931 2.949-3.93 6.582-3.93m-4.87 6.573c-.267-.377-.415-.792-.415-1.228 0-1.742 2.368-3.156 5.285-3.156s5.285 1.414 5.285 3.156c0 .436-.147.851-.415 1.228m-9.926-.308c.661-1.294 2.676-2.236 5.056-2.236s4.396.942 5.056 2.236m19.737 18.721a2.06 2.06 0 0 1-.309-1.065c0-1.742 2.369-3.156 5.286-3.156s5.285 1.414 5.285 3.156c0 .393-.12.768-.34 1.115m-10.002-.196c.661-1.293 2.676-2.235 5.057-2.235 2.38 0 4.395.941 5.056 2.235m-5.035-6.34c3.632 0 6.582 1.761 6.582 3.93s-2.95 3.931-6.582 3.931c-3.633 0-6.582-1.761-6.582-3.931s2.949-3.93 6.582-3.93M44.958 35.85h7.229m-6.093.708h13.474m-12.337.708h14.286m-13.15.708h14.287m20.522 1.415h5.916m-38.452 0h14.291m-15.428-.708h14.289m20.525 1.416h12.156m-44.697 0h14.295m19.387.707h18.396m-43.764 0h7.12m20.53 1.416h22.777m-23.918-.708h22.781m-20.499 1.416h22.772m-14.657 1.415h16.93m-23.905-.708h22.769m-8.414 1.416h10.687m-3.305.708h4.441" style="fill:none;stroke:#0a0b11;stroke-width:.47px"/></g></svg>