<?xml version="1.0" encoding="UTF-8" standalone="no"?>
<!DOCTYPE svg PUBLIC "-//W3C//DTD SVG 1.1//EN" "http://www.w3.org/Graphics/SVG/1.1/DTD/svg11.dtd">
<svg width="100%" height="100%" viewBox="0 0 260 96" version="1.1" xmlns="http://www.w3.org/2000/svg" xmlns:xlink="http://www.w3.org/1999/xlink" xml:space="preserve" xmlns:serif="http://www.serif.com/" style="fill-rule:evenodd;clip-rule:evenodd;stroke-linecap:round;stroke-linejoin:round;stroke-miterlimit:1.5;">
    <style>
        @media (prefers-color-scheme: dark) {
          #wordmark path { fill: #EFF0F6 !important; }
          #logo path { stroke: #EFF0F6 !important; }
        }
    </style>
    <rect id="Artboard3" x="0" y="0" width="259.2" height="96" style="fill:none;"/>
    <rect id="Artboard2" x="0" y="0" width="259.2" height="95.999" style="fill:none;"/>
    <g id="Artboard21" serif:id="Artboard2">
        <g id="wordmark">
            <path d="M149.658,56.618c-1.649,-0 -2.844,-0.271 -3.586,-0.814c-0.742,-0.542 -1.113,-1.471 -1.113,-2.786c0,-1.217 0.33,-2.96 0.989,-5.228c0.627,-2.22 1.286,-3.929 1.979,-5.13c0.693,-1.2 1.521,-2.05 2.486,-2.552c0.964,-0.501 2.205,-0.752 3.722,-0.752c1.5,0 2.564,0.189 3.191,0.567c0.626,0.379 0.939,1.044 0.939,1.998c0,0.411 -0.066,0.961 -0.197,1.652l-2.004,-0c0.033,-0.395 0.05,-0.666 0.05,-0.814c-0,-0.608 -0.14,-1.027 -0.421,-1.257c-0.28,-0.231 -0.775,-0.346 -1.484,-0.346c-1.105,0 -2.02,0.21 -2.745,0.629c-0.726,0.419 -1.356,1.13 -1.892,2.133c-0.536,1.003 -1.068,2.425 -1.595,4.266c-0.561,1.957 -0.841,3.395 -0.841,4.316c-0,0.838 0.206,1.434 0.618,1.788c0.412,0.353 1.072,0.53 1.978,0.53c1.105,-0 1.934,-0.16 2.486,-0.481c0.553,-0.321 1.035,-0.925 1.447,-1.813l2.053,0c-0.396,1.069 -0.841,1.895 -1.336,2.479c-0.494,0.583 -1.109,0.998 -1.842,1.245c-0.734,0.247 -1.694,0.37 -2.882,0.37Z" style="fill:#0a0c12;fill-rule:nonzero;"/>
            <path d="M160.368,56.618c-1.22,-0 -2.099,-0.156 -2.634,-0.469c-0.536,-0.312 -0.804,-0.854 -0.804,-1.627c-0,-0.493 0.115,-1.134 0.346,-1.924c0.346,-1.167 0.767,-2.054 1.262,-2.663c0.494,-0.608 1.174,-1.04 2.04,-1.294c0.866,-0.255 2.057,-0.383 3.574,-0.383l2.449,0l0.197,-0.715c0.149,-0.542 0.223,-0.986 0.223,-1.331c0,-0.477 -0.165,-0.802 -0.495,-0.974c-0.33,-0.173 -0.898,-0.259 -1.706,-0.259c-1.089,-0 -1.876,0.119 -2.362,0.357c-0.487,0.239 -0.845,0.703 -1.076,1.393l-2.028,0c0.28,-0.953 0.622,-1.681 1.026,-2.182c0.404,-0.501 0.952,-0.855 1.645,-1.06c0.692,-0.206 1.641,-0.309 2.844,-0.309c1.501,0 2.577,0.185 3.228,0.555c0.651,0.37 0.977,0.999 0.977,1.887c-0,0.575 -0.124,1.282 -0.371,2.121l-2.498,8.63l-1.88,0l0.519,-1.652l-0.173,0c-0.626,0.723 -1.241,1.221 -1.842,1.492c-0.602,0.271 -1.423,0.407 -2.461,0.407Zm-1.064,-3.847c-0.115,0.395 -0.173,0.732 -0.173,1.011c0,0.378 0.136,0.637 0.408,0.777c0.272,0.14 0.746,0.209 1.422,0.209c0.957,0 1.744,-0.139 2.362,-0.419c0.619,-0.279 1.146,-0.76 1.583,-1.442c0.437,-0.683 0.829,-1.64 1.175,-2.873l-2.696,-0c-1.236,-0 -2.152,0.201 -2.745,0.604c-0.594,0.403 -1.039,1.114 -1.336,2.133Z" style="fill:#0a0c12;fill-rule:nonzero;"/>
            <path d="M174.268,56.618c-1.666,-0 -2.857,-0.177 -3.574,-0.53c-0.717,-0.354 -1.076,-0.958 -1.076,-1.813c-0,-0.427 0.091,-0.978 0.272,-1.652l2.028,0.197c-0.066,0.263 -0.099,0.518 -0.099,0.765c0,0.477 0.198,0.797 0.594,0.961c0.395,0.165 1.088,0.247 2.077,0.247c1.188,0 2.053,-0.152 2.597,-0.456c0.544,-0.304 0.932,-0.843 1.163,-1.615c0.066,-0.263 0.099,-0.444 0.099,-0.543c-0,-0.411 -0.215,-0.74 -0.643,-0.986c-0.429,-0.247 -1.196,-0.502 -2.301,-0.765c-1.368,-0.279 -2.345,-0.616 -2.93,-1.011c-0.586,-0.394 -0.878,-0.937 -0.878,-1.627c-0,-0.312 0.065,-0.707 0.197,-1.184c0.264,-0.921 0.606,-1.623 1.027,-2.108c0.42,-0.485 1.002,-0.826 1.743,-1.024c0.743,-0.197 1.757,-0.296 3.043,-0.296c1.566,0 2.679,0.169 3.339,0.506c0.659,0.337 0.989,0.916 0.989,1.738c0,0.28 -0.058,0.691 -0.173,1.234l-1.979,-0.198c0.017,-0.098 0.025,-0.23 0.025,-0.394c0,-0.428 -0.165,-0.711 -0.495,-0.851c-0.329,-0.14 -0.923,-0.21 -1.78,-0.21c-1.221,0 -2.111,0.148 -2.672,0.444c-0.56,0.296 -0.948,0.822 -1.162,1.578c-0.033,0.099 -0.05,0.181 -0.05,0.247c0,0.296 0.235,0.563 0.705,0.801c0.47,0.239 1.315,0.531 2.535,0.876c1.287,0.329 2.198,0.703 2.733,1.122c0.536,0.419 0.804,0.974 0.804,1.664c0,0.395 -0.074,0.839 -0.222,1.332c-0.281,0.953 -0.635,1.681 -1.064,2.182c-0.429,0.502 -1.022,0.855 -1.781,1.061c-0.758,0.205 -1.789,0.308 -3.091,0.308Z" style="fill:#0a0c12;fill-rule:nonzero;"/>
            <path d="M186.882,56.618c-1.666,-0 -2.857,-0.177 -3.574,-0.53c-0.718,-0.354 -1.076,-0.958 -1.076,-1.813c-0,-0.427 0.09,-0.978 0.272,-1.652l2.028,0.197c-0.066,0.263 -0.099,0.518 -0.099,0.765c0,0.477 0.198,0.797 0.594,0.961c0.395,0.165 1.088,0.247 2.077,0.247c1.188,0 2.053,-0.152 2.597,-0.456c0.544,-0.304 0.932,-0.843 1.163,-1.615c0.066,-0.263 0.098,-0.444 0.098,-0.543c0,-0.411 -0.214,-0.74 -0.642,-0.986c-0.429,-0.247 -1.196,-0.502 -2.301,-0.765c-1.368,-0.279 -2.345,-0.616 -2.931,-1.011c-0.585,-0.394 -0.877,-0.937 -0.877,-1.627c-0,-0.312 0.065,-0.707 0.197,-1.184c0.264,-0.921 0.606,-1.623 1.027,-2.108c0.42,-0.485 1.001,-0.826 1.743,-1.024c0.742,-0.197 1.756,-0.296 3.043,-0.296c1.566,0 2.679,0.169 3.339,0.506c0.659,0.337 0.989,0.916 0.989,1.738c-0,0.28 -0.058,0.691 -0.173,1.234l-1.979,-0.198c0.017,-0.098 0.025,-0.23 0.025,-0.394c-0,-0.428 -0.165,-0.711 -0.495,-0.851c-0.33,-0.14 -0.923,-0.21 -1.781,-0.21c-1.22,0 -2.11,0.148 -2.671,0.444c-0.56,0.296 -0.948,0.822 -1.162,1.578c-0.033,0.099 -0.05,0.181 -0.05,0.247c0,0.296 0.235,0.563 0.705,0.801c0.47,0.239 1.315,0.531 2.535,0.876c1.286,0.329 2.197,0.703 2.733,1.122c0.536,0.419 0.804,0.974 0.804,1.664c0,0.395 -0.074,0.839 -0.222,1.332c-0.281,0.953 -0.635,1.681 -1.064,2.182c-0.429,0.502 -1.022,0.855 -1.781,1.061c-0.758,0.205 -1.789,0.308 -3.091,0.308Z" style="fill:#0a0c12;fill-rule:nonzero;"/>
            <path d="M199.644,56.618c-1.616,-0 -2.77,-0.222 -3.463,-0.666c-0.692,-0.444 -1.038,-1.225 -1.038,-2.342c-0,-0.954 0.239,-2.269 0.717,-3.946c0.511,-1.743 1.047,-3.066 1.607,-3.97c0.561,-0.904 1.253,-1.546 2.078,-1.924c0.825,-0.378 1.921,-0.567 3.29,-0.567c1.483,0 2.551,0.218 3.202,0.654c0.652,0.435 0.977,1.204 0.977,2.305c0,1.069 -0.313,2.631 -0.939,4.686l-8.533,-0c-0.215,0.854 -0.322,1.57 -0.322,2.145c-0,0.674 0.186,1.143 0.557,1.406c0.371,0.263 1.001,0.394 1.892,0.394c0.906,0 1.595,-0.127 2.065,-0.382c0.47,-0.255 0.927,-0.744 1.372,-1.467l2.152,-0c-0.478,0.986 -0.952,1.738 -1.422,2.256c-0.47,0.518 -1.03,0.884 -1.682,1.097c-0.651,0.214 -1.488,0.321 -2.51,0.321Zm4.947,-7.62c0.247,-0.97 0.37,-1.726 0.37,-2.269c0,-0.624 -0.169,-1.064 -0.506,-1.319c-0.339,-0.255 -0.895,-0.382 -1.67,-0.382c-0.89,-0 -1.608,0.115 -2.152,0.345c-0.544,0.23 -1.01,0.633 -1.397,1.208c-0.388,0.576 -0.763,1.398 -1.126,2.466l6.481,-0.049Z" style="fill:#0a0c12;fill-rule:nonzero;"/>
            <path d="M212.68,56.643c-1.138,-0 -1.946,-0.161 -2.424,-0.481c-0.478,-0.321 -0.717,-0.826 -0.717,-1.517c-0,-0.493 0.14,-1.241 0.42,-2.244l2.028,-7.077l-3.363,-0l1.014,-1.825l2.968,0l0.865,-3.255l2.103,-0.444l-1.039,3.699l4.526,0l-0.519,1.825l-4.526,-0l-2.078,7.176c-0.165,0.542 -0.247,0.953 -0.247,1.233c-0,0.362 0.14,0.624 0.42,0.789c0.28,0.164 0.767,0.246 1.459,0.246c0.561,0 1.476,-0.082 2.746,-0.246l-0.297,1.874c-1.369,0.164 -2.482,0.247 -3.339,0.247Z" style="fill:#0a0c12;fill-rule:nonzero;"/>
            <path d="M224.331,56.643c-1.138,-0 -1.946,-0.161 -2.424,-0.481c-0.478,-0.321 -0.717,-0.826 -0.717,-1.517c-0,-0.493 0.14,-1.241 0.42,-2.244l2.028,-7.077l-3.363,-0l1.014,-1.825l2.968,0l0.865,-3.255l2.103,-0.444l-1.039,3.699l4.526,0l-0.519,1.825l-4.526,-0l-2.078,7.176c-0.165,0.542 -0.247,0.953 -0.247,1.233c-0,0.362 0.14,0.624 0.42,0.789c0.28,0.164 0.767,0.246 1.46,0.246c0.56,0 1.475,-0.082 2.745,-0.246l-0.297,1.874c-1.368,0.164 -2.482,0.247 -3.339,0.247Z" style="fill:#0a0c12;fill-rule:nonzero;"/>
            <path d="M234.597,56.618c-1.616,-0 -2.77,-0.222 -3.463,-0.666c-0.692,-0.444 -1.038,-1.225 -1.038,-2.342c-0,-0.954 0.239,-2.269 0.717,-3.946c0.511,-1.743 1.047,-3.066 1.608,-3.97c0.56,-0.904 1.253,-1.546 2.077,-1.924c0.825,-0.378 1.921,-0.567 3.29,-0.567c1.484,0 2.551,0.218 3.202,0.654c0.652,0.435 0.978,1.204 0.978,2.305c-0,1.069 -0.314,2.631 -0.94,4.686l-8.533,-0c-0.215,0.854 -0.322,1.57 -0.322,2.145c0,0.674 0.186,1.143 0.557,1.406c0.371,0.263 1.001,0.394 1.892,0.394c0.907,0 1.595,-0.127 2.065,-0.382c0.47,-0.255 0.927,-0.744 1.373,-1.467l2.151,-0c-0.478,0.986 -0.952,1.738 -1.422,2.256c-0.47,0.518 -1.03,0.884 -1.681,1.097c-0.652,0.214 -1.489,0.321 -2.511,0.321Zm4.947,-7.62c0.247,-0.97 0.371,-1.726 0.371,-2.269c-0,-0.624 -0.169,-1.064 -0.507,-1.319c-0.338,-0.255 -0.895,-0.382 -1.67,-0.382c-0.89,-0 -1.608,0.115 -2.152,0.345c-0.544,0.23 -1.01,0.633 -1.397,1.208c-0.387,0.576 -0.763,1.398 -1.125,2.466l6.48,-0.049Z" style="fill:#0a0c12;fill-rule:nonzero;"/>
        </g>
        <g id="logo">
            <path d="M77.906,70.345c-15.742,-9.803 -31.483,-19.605 -47.224,-29.408m16.369,7.787c-0.568,-0.353 -1.135,-0.707 -1.703,-1.06m20.863,12.992c-0.575,-0.358 -1.151,-0.716 -1.726,-1.075m-15.496,-11.915c-0.569,-0.354 -1.139,-0.709 -1.708,-1.063m20.864,12.993c-0.577,-0.359 -1.153,-0.718 -1.729,-1.077m-20.938,-5.254c-0.802,-0.499 -1.604,-0.999 -2.406,-1.498m21.552,13.421c-0.708,-0.441 -1.416,-0.881 -2.123,-1.322m-17.023,-6.354c-0.802,-0.5 -1.604,-0.999 -2.406,-1.499m21.552,13.421c-0.708,-0.44 -1.416,-0.881 -2.123,-1.322m-22.313,-20.23c-3.263,-2.032 -6.526,-4.064 -9.789,-6.096m28.356,17.659c-3.152,-1.963 -6.304,-3.926 -9.456,-5.889m27.541,17.151c-2.798,-1.742 -5.595,-3.484 -8.392,-5.225m-28.26,-16.185c-2.933,-1.826 -5.866,-3.652 -8.798,-5.479m27.365,17.042c-2.822,-1.757 -5.643,-3.514 -8.465,-5.271m26.55,16.533c-2.467,-1.536 -4.934,-3.072 -7.401,-4.608m-29.251,-11.422c-3.263,-2.032 -6.526,-4.064 -9.789,-6.096m28.356,17.659c-3.152,-1.963 -6.304,-3.926 -9.456,-5.889m27.541,17.151c-2.798,-1.742 -5.595,-3.484 -8.392,-5.226m17.297,-11.213c-14.03,-8.737 -28.059,-17.474 -42.089,-26.21m43.729,26.838c-14.029,-8.737 -28.059,-17.474 -42.088,-26.211m-1.641,-0.627c0.547,0.209 1.094,0.418 1.641,0.627m-14.615,4.042c-0.533,0.194 -1.066,0.389 -1.599,0.583m48.823,28.825c2.613,-2.622 5.226,-5.244 7.839,-7.867m-7.378,9.734c3.006,-3.017 6.012,-6.085 9.018,-9.106m-9.479,7.239c0.153,0.623 0.307,1.245 0.461,1.867m-47.685,-31.275c4.325,-1.557 8.649,-3.113 12.974,-4.669m-13.257,5.518l-0,8.21m0.991,-7.593l-0,7.049m8.798,-1.57l-0,8.21m2.884,-4.325l0,4.246m2.406,-2.748l0,4.247m17.023,6.354l-0,4.246m2.123,-2.924l-0,4.246m-15.325,-15.878l-0,8.21m0.991,-7.593l-0,7.048m8.465,-1.776l0,8.21m9.693,-2.173l0,8.209m0.991,-7.592l0,7.048m7.401,-2.44l-0,8.21m-36.652,-25.254c-0.295,0.165 -0.705,0.267 -1.159,0.267c-0.895,-0 -1.622,-0.399 -1.622,-0.891c-0,-0.492 0.727,-0.892 1.622,-0.892c0.454,0 0.864,0.103 1.159,0.268m45.557,10.063c0.547,0.21 1.093,0.419 1.64,0.628m-48.356,-20.018c0.896,0 1.623,0.4 1.623,0.892c-0,0.492 -0.727,0.891 -1.623,0.891c-0.895,0 -1.622,-0.399 -1.622,-0.891c-0,-0.492 0.727,-0.892 1.622,-0.892Zm33.976,20.419c0.895,-0 1.622,0.399 1.622,0.891c0,0.492 -0.727,0.891 -1.622,0.891c-0.896,0 -1.623,-0.399 -1.623,-0.891c0,-0.492 0.727,-0.891 1.623,-0.891Zm-0,9.483c0.895,0 1.622,0.4 1.622,0.892c0,0.491 -0.727,0.891 -1.622,0.891c-0.896,-0 -1.623,-0.4 -1.623,-0.891c0,-0.492 0.727,-0.892 1.623,-0.892Zm-42.606,-22.994c1.131,-0.621 2.746,-1.507 3.877,-2.128m34.172,25.823c1.182,-0.648 2.693,-1.481 3.875,-2.129m-23.024,-9.796c1.182,-0.649 2.692,-1.481 3.874,-2.13m-33.444,-24.416l0,7.062m112.512,9.481l0,7.092m-8.089,-8.143l0,3.078m-62.963,-38.008l6.875,-0m8.317,63.969c0.697,-0.132 1.395,-0.263 2.093,-0.395m-12.848,-68.11l65.961,39.642m-0.024,1.781c-13.858,8.263 -27.717,16.526 -41.575,24.79m34.164,-23.669c-8.58,5.116 -17.16,10.233 -25.741,15.349m-6.843,11.057c-0.527,0.315 -1.053,0.629 -1.58,0.943m41.575,-24.79c-9.564,5.703 -19.128,11.405 -28.692,17.108m-11.303,6.739c0.111,-0.066 0.222,-0.132 0.333,-0.198m1.397,0.212c3.032,-1.808 6.064,-3.608 9.095,-5.415m-10.012,3.87c3.014,-1.798 6.08,-3.618 9.095,-5.415m-9.577,6.746c-0.253,-0.426 -0.037,-1.023 0.482,-1.331m0.917,1.545c-0.519,0.308 -1.145,0.212 -1.399,-0.214m10.976,-6.532c0.253,0.426 0.037,1.022 -0.482,1.331m-0.917,-1.545c0.519,-0.308 1.146,-0.212 1.399,0.214m-73.792,-31.944c-2.892,-1.8 -5.783,-3.601 -8.675,-5.402m66.449,41.381c-2.83,-1.762 -5.66,-3.525 -8.49,-5.287m20.044,-3.073c-20.994,-13.075 -41.989,-26.149 -62.984,-39.224m53.061,24.103c-11.658,-7.26 -18.891,-11.717 -29.895,-18.573m39.486,13.194c-10.953,-6.809 -17.971,-11.14 -29.756,-18.479m55.768,20.513c-18.696,-11.643 -37.331,-23.248 -56.027,-34.891m22.222,29.257c-4.907,-3.056 -9.813,-6.111 -14.72,-9.167m9.405,12.082c-4.907,-3.056 -9.813,-6.111 -14.72,-9.167m-39.852,7.233c-3.33,-2.074 -6.661,-4.148 -9.991,-6.222m66.449,41.381c-3.198,-1.991 -9.876,-6.15 -10.017,-6.238m-0,-0.566c-2.467,-1.536 -4.934,-3.073 -7.401,-4.609m0,0l-0.991,-0.051l-9.693,-6.036m0,-0.566c0,-0 -5.147,-3.206 -8.465,-5.272m-0,-0l-0.991,-0.051c-0,-0 -9.108,-5.672 -9.111,-5.674m-0,-0.566c-2.826,-1.76 -6.461,-4.024 -8.798,-5.479m-0,-0l-0.991,-0.051m-10.015,-11.697c14.042,-7.703 28.084,-15.407 42.127,-23.11m-17.163,36.451c0.644,-0.354 1.289,-0.708 1.933,-1.061m-0.22,2.121c0.644,-0.353 1.289,-0.707 1.933,-1.06m15.491,11.917c0.645,-0.353 1.286,-0.708 1.931,-1.062m-0.205,2.137c0.645,-0.353 1.289,-0.707 1.934,-1.06m-32.653,-29.719c8.587,-4.711 17.11,-9.384 25.697,-14.095m9.062,23.005c1.772,-0.972 3.543,-1.944 5.315,-2.915m9.405,12.082c1.772,-0.972 3.544,-1.944 5.315,-2.915m-9.306,-5.796c-1.172,1.322 -2.677,2.494 -4.437,3.463m4.792,2.984c1.251,-1.294 2.924,-2.385 4.887,-3.182m0.635,34.991c0.657,0.398 2.099,0.582 3.131,-0.04m-3.131,3.72c0.657,0.399 2.099,0.582 3.131,-0.04m41.599,-30.251c0.886,0.525 0.868,1.245 -0.024,1.781m0.678,2.774c0,0.317 -0.227,0.635 -0.678,0.906m-111.179,-22.026c-0.886,0.525 -0.867,1.259 0.024,1.795m-0.679,2.767c0,0.32 0.228,0.642 0.679,0.913m42.103,-28.585c0.657,-0.399 2.083,-0.59 3.115,0.033m65.937,48.5c-13.858,8.263 -27.717,16.527 -41.575,24.79m-60.698,-35.81c-2.961,-1.843 -5.921,-3.687 -8.882,-5.531m66.449,41.381c-2.794,-1.74 -5.589,-3.48 -8.383,-5.22m-2.093,0.395c-15.367,-9.569 -46.509,-28.964 -46.714,-29.092m-0,0c-0.126,-0.644 -0.251,-1.288 -0.377,-1.933m57.567,35.85c0.657,0.399 2.099,0.582 3.131,-0.04m42.253,-25.695c0,0.316 -0.227,0.634 -0.678,0.905m-111.834,-17.464c0,0.32 0.228,0.642 0.679,0.913m43.201,-14.223c3.633,-0 6.582,1.761 6.582,3.93c0,2.169 -2.949,3.931 -6.582,3.931c-3.633,-0 -6.582,-1.762 -6.582,-3.931c0,-2.169 2.949,-3.93 6.582,-3.93Zm-4.87,6.573c-0.267,-0.377 -0.415,-0.792 -0.415,-1.228c0,-1.742 2.368,-3.156 5.285,-3.156c2.917,0 5.285,1.414 5.285,3.156c0,0.436 -0.147,0.851 -0.415,1.228m-9.926,-0.308c0.661,-1.294 2.676,-2.236 5.056,-2.236c2.381,0 4.396,0.942 5.056,2.236m19.737,18.721c-0.2,-0.333 -0.309,-0.692 -0.309,-1.065c0,-1.742 2.369,-3.156 5.286,-3.156c2.917,-0 5.285,1.414 5.285,3.156c-0,0.393 -0.12,0.768 -0.34,1.115m-10.002,-0.196c0.661,-1.293 2.676,-2.235 5.057,-2.235c2.38,-0 4.395,0.941 5.056,2.235m-5.035,-6.34c3.632,0 6.582,1.761 6.582,3.93c-0,2.17 -2.95,3.931 -6.582,3.931c-3.633,-0 -6.582,-1.761 -6.582,-3.931c-0,-2.169 2.949,-3.93 6.582,-3.93Zm-48.442,-11.622l7.229,0m-6.093,0.708l13.474,0m-12.337,0.708l14.286,-0m-13.15,0.708l14.287,-0m20.522,1.415l5.916,0m-38.452,0l14.291,0m-15.428,-0.708l14.289,0m20.525,1.416l12.156,-0m-44.697,-0l14.295,-0m19.387,0.707l18.396,0m-43.764,0l7.12,0m20.53,1.416l22.777,-0m-23.918,-0.708l22.781,0m-20.499,1.416l22.772,-0m-14.657,1.415l16.93,0m-23.905,-0.708l22.769,0m-8.414,1.416l10.687,-0m-3.305,0.708l4.441,-0" style="fill:none;stroke:#0a0b11;stroke-width:0.47px;"/>
        </g>
    </g>
</svg>
