<svg xmlns="http://www.w3.org/2000/svg" width="1028" height="590"><path d="M364.09 23.89H14.82L4.61 157.66h10.87C23.3 57.47 31.89 39.93 125.69 39.93h33.39c11.55 1.81 11.55 9.16 11.55 23.08v329.26c0 21.86-1.83 28.53-52.78 28.53h-17.17v14.61c29.02-.56 59.26-1.15 88.93-1.15 29.58 0 59.91.59 88.91 1.15V420.8h-16.88c-50.19 0-52-6.67-52-28.53V63.02c0-13.36 0-20.61 10.89-23.08h33.19c92.55 0 101.61 17.44 109.42 117.73h10.89"/><path d="M667.6 414.32h-10.87c-13.26 89.69-21.08 138.44-127.47 138.44h-83.95c-24.16 0-25.3-3.05-25.3-23.86V359.83h57.06c57.06 0 62.5 20.91 62.5 71.96h9.72V274.44h-9.72c0 50.19-5.45 70.71-62.5 70.71H420v-149.9c0-20.42 1.15-23.47 25.3-23.47H528c93.6 0 104.49 37.2 112.97 117.17h10.9l-14.51-133.78H331.1v16.61c42.84 0 49.7 0 49.7 27.19v326.42c0 27.19-6.77 27.19-49.7 27.19v14.61h314.76"/><path d="m830.66 206.51 89.49-129.38c8.96-12.7 27.19-38.84 76.82-39.5v-14.6c-13.85 1.15-36.83 1.15-51.34 1.15-19.93 0-44.75 0-59.82-1.15v14.61c19.37 1.81 24.13 13.92 24.13 23.67 0 7.23-2.96 12.11-7.25 18.12l-79.85 115.82-89.49-130.99c-4.2-6.59-4.79-8.5-4.79-10.31 0-5.45 6.59-15.75 26.62-16.32v-14.6c-19.37 1.15-48.95 1.15-68.88 1.15-15.66 0-45.89 0-60.5-1.15v14.61c33.22 0 44.09 1.25 57.45 20.03l116.68 171.37-105.22 153.71C668.75 420.34 629.45 421 617.89 421v14.61c13.82-1.15 36.83-1.15 51.34-1.15 16.32 0 44.75 0 59.82 1.15V421c-18.71-1.81-24.13-13.92-24.13-23.67 0-7.82 2.96-12.11 6.01-16.41l96.75-141.2L912.9 394.38c4.76 6.69 4.76 8.5 4.76 10.31 0 4.76-5.42 15.17-26.6 16.41v14.61c19.37-1.15 48.95-1.15 68.88-1.15 15.66 0 45.89 0 60.57 1.15V421.1c-38.74 0-44.84-2.96-56.86-20.03"/></svg>